<?xml version="1.0" encoding="utf-8"?>
<!-- Generator: Adobe Illustrator 22.0.0, SVG Export Plug-In . SVG Version: 6.00 Build 0)  -->
<svg version="1.1" id="Capa_1" xmlns="http://www.w3.org/2000/svg" xmlns:xlink="http://www.w3.org/1999/xlink" x="0px" y="0px"
	 viewBox="0 0 650 450" style="enable-background:new 0 0 650 450;" xml:space="preserve">
<style type="text/css">
	.st0{fill:#E83365;}
	.st1{fill:#3B63AE;}
</style>
<g id="_x23_f5f4f4ff">
</g>
<g>
	<g id="_x23_e83365ff">
		<path class="st0" d="M144.2,37.1c1.8-5.5,7.7-9.2,13.4-7.9c8,1.1,11.9,11.4,7.6,17.9c-2.8,4.8-8.9,5.3-13.9,5.1
			c-26.8,41.3-50.1,85.1-67.8,131.1c-8.8,21.9-15.4,44.6-21.3,67.4c-6.1,27.3-10.6,55-10.7,83.1c-0.6,39.8,6.5,80.1,24.1,116h-7.3
			c-14.5-31.3-22.1-65.6-23.1-100c-0.7-8.7-0.6-17.4,0.2-26c0.2-6.7,0.2-13.5,1.4-20.1c1.8-18.9,5.1-37.7,9.8-56.1
			c3.9-17.6,9.5-34.8,15.4-51.8c9.2-25.5,19.9-50.5,32.3-74.6c12.2-25.1,26.6-49.1,41.6-72.5C144.4,45.1,142.8,41,144.2,37.1z"/>
		<path class="st0" d="M412.8,77.3c8.9-1.6,18.1-1.8,27.1-1.4c16.8,0.3,33.6,5.7,47.4,15.4c11.1,8.3,19.5,20.3,22.3,33.9
			c3.5,15.3,0.4,31.6-6.5,45.6c4.5,4.8,9.4,9.4,12,15.6c4.1,7.9,4.6,17.1,3.3,25.7c-2.4,13.5-12.3,25.2-25,30.1
			c-8.9,3.8-19.2,3.5-28.2,0.4c-6.6-1.5-11.8-6-16.7-10.5c-8.4-8.8-12.1-21.5-10.5-33.5c1-10.3,6.9-19.5,14.5-26.3
			c8-6.2,18.3-9.8,28.5-9.1c3.8,0,7.4,1.7,11.1,2.3c2.1,0.6,2.5-1.9,3.4-3.3c4.6-11.7,7-24.9,3.2-37.2
			c-4.3-15.3-16.9-27.2-31.5-32.8c-9.5-4-19.8-5.6-30-6.2c-9.8-0.4-19.7,0.3-29.2,2.8c-9.2,2.5-18.6,4.5-27.1,9
			c-19.5,8.7-37.6,21.5-50.3,38.9c1.7,5.1,2.5,11.1-1.2,15.5c-4.3,6.1-14,6.2-19.2,1.1c-2.3-2.3-3.1-5.6-3.7-8.7
			c-0.3-6,4.4-12,10.4-12.9c1.9-0.6,4.5-0.1,5.7-2.1c4.6-6.1,9.3-12.2,15.5-16.8C358.7,93.8,385.4,82.1,412.8,77.3 M474.3,186.3
			c-10.8,1.8-17.4,15.1-13,25c2.8,6,8.7,11,15.6,11.1c7.4,0.8,15.2-3.7,18.2-10.5c3.6-7.3,1.2-16.3-4.6-21.7
			C486.2,186.2,479.9,185.3,474.3,186.3z"/>
		<path class="st0" d="M165.4,171.1c3-1,6,0.8,7.1,3.6c-0.2,5.6-4.8,9.5-7.1,14.2c1.2,5.3,7.4,8.9,7,14.7c-0.7,4-5.6,4.9-8.6,3.1
			c-3.1-3.3-5.1-7.6-7.9-11.2c-2.4-2.9-4.2-7.2-1.6-10.5C157.8,180.4,160.5,174.6,165.4,171.1z"/>
		<path class="st0" d="M497.2,271c5.1-13.6,22.9-19.1,35.6-13c9.3,4,14.2,15,11.8,24.7c-2.6,10-10.1,17.5-16.3,25.4
			c-2.2,2.7-5.2,4.8-6.4,8.2c6,0.3,12.1-0.1,18.2,0.3c3.6,0.3,7.2,3.3,6.8,7.2c0.6,3.9-2.8,7.9-6.8,7.7c-12.4,0.1-24.7,0-37.1,0
			c-3.8,0.3-8-2.6-7.7-6.7c-0.5-4.3,3.2-7.2,5.7-10c7.3-8.4,14.9-16.5,21.5-25.5c2.5-3.4,5.6-7,5.3-11.4c0.2-3.9-4.1-6.9-7.7-6.7
			c-3.6-0.1-6.3,2.9-7.7,5.9c-1.8,3.5-2.6,8.2-6.7,9.6c-3.1,1.6-6.7-0.2-8.6-2.7C494.6,279.9,495.8,275.1,497.2,271z"/>
		<path class="st0" d="M559.5,268.2c5.1-9.6,17.1-14,27.5-12.3c7.5,1.2,14.7,6,17.7,13.1c2.9,7.6,1.2,16.4-3.1,23.2
			c-5.5,8.5-12.6,15.7-18.8,23.7c6.5,0.8,13.1-0.2,19.7,0.5c5.2,1.3,7.4,7.8,4.4,12.2c-1.5,2.8-5,2.8-7.8,2.8
			c-11.7-0.1-23.4,0-35.1,0c-3.1,0.3-5.9-1.6-7.4-4.2c-0.7-2.6-0.6-5.6,1.3-7.6c6.7-8,13.8-15.6,20.2-23.8c4-5,9.1-9.8,10.5-16.4
			c1-4.4-3.1-8.9-7.6-8.4c-4.2-0.2-6.8,4-8.3,7.4c-1.5,3-2.3,7.2-5.8,8.5c-3.9,1-9-1-9.8-5.4C556.1,277.1,557.5,272.3,559.5,268.2z"
			/>
		<path class="st0" d="M316.3,257.4c11.5-1.6,24.2-1,34,5.9c7.2,4.7,6.5,17.6-1.8,20.7c-6.7,1.9-12.5-2.8-18.8-4
			c-8.4-2.3-17.7,1.9-22.5,8.9c-4.4,6.2-5.1,14.3-4.7,21.7c0.3,6.1,3,12,6.7,16.7c5.4,5.5,13.7,8,21.2,6c5.7-0.8,10.5-5.4,16.5-4.5
			c8.5,0,12.1,11.9,7.1,17.9c-5.8,7.2-15.4,9.3-24.1,10.2c-14.8,1.3-30.7-3.5-40.4-15.2c-8.7-9.5-12.7-22.5-12.4-35.2
			c-0.2-12,3.6-24.1,11.3-33.4C295.8,265.3,305.5,259.1,316.3,257.4z"/>
		<path class="st0" d="M251.2,257.7c7.6-2.1,15,4.6,15.1,12.1c0.1,24.7,0,49.3,0.1,74c0.2,5.7-3.8,11.6-9.5,12.9
			c-5.6,1.7-11.6-1.7-14.2-6.6c-1.3-5.4-0.9-10.9-0.9-16.4c0-19.7,0-39.3,0-59c0.1-3.9-0.2-8.1,1.6-11.7
			C244.8,260,248.1,258.5,251.2,257.7z"/>
		<path class="st0" d="M162.4,263.2c1.9-3.2,5.8-4.9,9.5-4.8c16,0,32,0,48.1,0c3,0,6.4,0.4,8.6,2.7c3.7,3.8,5,10.4,1.6,14.9
			c-1.9,2.1-4.2,4.5-7.2,4.5c-4.7,0.1-9.5,0-14.2,0.2c-0.3,21.4,0,42.8-0.1,64.2c0,5.6-4.2,11-9.7,12.1c-6.7,1.5-14.7-3.9-14.5-11.1
			c0-20.4,0-40.7,0-61.1c-0.2-1.3,0.5-3.9-1.5-4.1c-5.1-0.8-10.3,0.5-15.3-0.7C161.2,277.4,159.1,268.9,162.4,263.2z"/>
	</g>
	<g id="_x23_3b63aeff">
		<path class="st1" d="M79.1,89.8c3.2-6.3,12.6-7.6,17.7-3c5.3,4.2,5.3,13.5-0.2,17.6c-2.9,2.9-7.3,2.2-11,3.2
			c-3.9,5.3-6.5,11.4-10,17C43.5,183.9,20.8,249.4,16.6,317c-0.7,22.9-0.6,46,3.5,68.5c3.6,22,9.6,43.8,18.7,64.1H32
			c-6.3-13.8-10.6-28.5-14.1-43.3c-5-19.5-7.2-39.6-7.9-59.7c-1.3-11.3,0.3-22.7,0.6-34c3.8-54.7,19.7-108,42.6-157.7
			c5.2-10.5,10.2-21,15.7-31.3c3.5-6.8,7.7-13.2,11.2-20C78,99.5,76.7,94.3,79.1,89.8z"/>
		<path class="st1" d="M414.3,132.1c6.2-2.6,13.8,0.9,16.1,7.2c3.1,6-0.1,13.9-6.1,16.7c-4.7,1.9-10.6,1.3-14.3-2.4
			C403.1,147.8,405.5,134.8,414.3,132.1z"/>
		<path class="st1" d="M194.6,143.4c6.1-7.6,19.6-7.7,25.3,0.3c1.7,2.5,2.6,5.4,3.6,8.2c4.1,14.5,8.4,29,12.7,43.4
			c0.6,2.2,1.1,4.4,1.6,6.6c0.4,0.1,1.2,0.4,1.6,0.5c5.1-18.1,10.7-36.1,16.2-54.1c1.6-4.9,5.8-9.1,10.9-10.1c3-0.5,6-0.5,9,0.1
			c5.2,1.5,9.7,5.8,10.6,11.2c3.9,22.3,7.5,44.6,11.1,67c1.3,6.8,3.4,13.8,1.9,20.7c-2.8,7.9-14.7,9.6-20.1,3.4
			c-2.3-2.7-2.7-6.4-3.2-9.8c-1.7-11.8-3.1-23.7-5.2-35.5c-1-5.9-0.9-12-3.2-17.6c-3.7,14.3-8.4,28.2-12.3,42.4
			c-2,6.6-3.4,13.4-6.4,19.7c-1.5,3.4-5.6,4.5-8.9,4.6c-5,0.4-10.7-2.2-12.3-7.2c-4-12.2-7.3-24.7-11.1-37c-2.3-7.5-3.8-15.3-7-22.5
			c-2.9,18.9-5.3,37.8-8.3,56.7c-0.5,4.3-3.5,8.3-7.7,9.3c-5.6,2-12.9-0.7-14.8-6.6c-1.1-3.8-0.5-7.8,0.1-11.6
			c3.8-22.1,7.3-44.3,11.4-66.4C191.2,153.8,190.7,147.7,194.6,143.4z"/>
		<path class="st1" d="M358,165.9c5.7-2.3,11.9-2.1,17.9-1.8c6.7,0.5,13.3,2.9,18.5,7.2c4.9,4,4.5,13.6-1.8,16
			c-3.6,1.7-7.5,0.2-10.9-1.3c-5.7-2.6-13-5.4-18.5-0.9c0.1,1.5,0.1,3,0,4.5c9.1,6.6,21.2,7.8,29.9,15.2c6.2,5.5,8,14.8,5.4,22.5
			c-2.1,7.5-8.7,12.9-15.9,15.3c-6.8,2.8-14.3,2.1-21.5,1.7c-8.1-1.6-17.1-4.5-21.4-12.1c-3.5-6.1,2.4-14.3,9.2-13.6
			c6.9,0.9,12.1,6.5,19.1,7.4c3.6,1.1,6.9-1.4,9.5-3.5c0-1.4,0-2.8,0-4.3c-9.2-7-21.5-8.2-30.7-15.3c-5.1-4.8-6.4-12.4-5.2-19.1
			C343.2,175.3,350,168.5,358,165.9z"/>
		<path class="st1" d="M545.7,171.7c5.1-5.5,12.8-8.1,20.2-7.8c9.8-0.4,20.3,3.7,25.5,12.3c2.5,4.7,4.2,10.1,3.9,15.5
			c-0.1,14.3,0,28.6-0.1,42.9c-0.6,7.4-9.6,12.2-16.2,8.9c-4-2-6.8-6.3-6.7-10.8c-0.1-12.7,0.1-25.4,0-38c0-5.2-3.8-10-8.8-11.5
			c-5.6-2-12.4,0.9-15,6.1c-1.7,3.1-1.9,6.8-2,10.4c0,11.7,0.1,23.3,0,35c0.1,5.5-5.4,9.7-10.6,9.5c-6.3,0.7-11.8-5.4-11.5-11.6
			c0.1-19.3-0.1-38.5,0.1-57.8c0.1-6.5,6.9-12.2,13.3-10.3C540.9,166.5,543.2,169.2,545.7,171.7z"/>
		<path class="st1" d="M316.2,164.8c4.3-1.2,9.5-0.3,12.2,3.5c2.3,2.6,2.4,6.2,2.4,9.4c-0.1,18.7,0.1,37.4-0.1,56.1
			c0.2,5.7-5,10.8-10.7,10.5c-5.9,0.7-11.7-4.6-11.6-10.5c0-19.3,0-38.7,0-58C308.1,170.8,311.1,165.7,316.2,164.8z"/>
		<path class="st1" d="M414.3,165.1c6.3-2.8,15.3,1.2,15.3,8.6c0.1,19.7,0,39.3,0.1,59c0.4,3.6-0.9,7.5-4,9.6
			c-6.4,4.9-17.3,0.8-17.9-7.5c-0.2-19,0-38-0.1-57C406.9,172.7,409.2,166.9,414.3,165.1z"/>
		<path class="st1" d="M386.1,269.9c5-3.1,11.1-3.4,16.9-2.9c8.9,0.7,17.4,7.3,19.4,16.2c1,6.2,0.5,12.8-2.7,18.3
			c-3.7,6.4-8.7,11.9-13.4,17.6c-2.1,2.8-5,5-6.4,8.3c5.1,0.1,10.1,0,15.2,0c3.2,0,6.7,0.9,8.8,3.5c2.5,4.2,0.7,11.3-4.8,11.7
			c-12.3,0.4-24.7,0-37.1,0.1c-3.1,0.1-6.7-0.5-8.2-3.6c-0.9-3-1-6.8,1.4-9.2c8.4-9.7,16.7-19.4,24.8-29.3c2.5-3.3,5.3-6.8,5.6-11.1
			c0.4-3.5-2.6-6.3-5.7-7.3c-2.6-0.6-5.1,0.7-7.1,2.3c-4.1,3.1-3.5,9.3-7.4,12.6c-4.1,2.6-10.7,0.7-11.6-4.4
			C372.1,283.4,377.9,274.1,386.1,269.9z"/>
		<path class="st1" d="M454.3,267.3c5.7-0.8,11.8-0.9,17,2c8.7,4.9,14.9,13.9,16,23.8c1.3,11.8,1.7,24.4-3.5,35.4
			c-4.2,9.5-14.5,16.1-25,15.4c-6.5-0.2-12.9-2.9-17.4-7.7c-8.5-8-9.6-20.5-9.9-31.5c0.5-9.3,1.3-19.5,7.2-27.1
			C442.4,272.4,448.2,268.8,454.3,267.3 M457.3,282.3c-3.3,1.2-5.2,4.4-6.4,7.5c-2.7,6.3-2.4,13.3-2.3,20c0.3,4.5,0.8,9.3,3,13.3
			c1.7,3.1,4.5,6,8.3,5.9c4.5-0.1,7.5-4.3,9.1-8.1c2.4-7.8,2.7-16.1,1.4-24.1c-0.6-4.8-2.1-9.6-5.5-13.1
			C463.1,281.5,459.9,281.8,457.3,282.3z"/>
		<path class="st1" d="M615.3,279.8c0.2-4.1,6-6,8.8-3.2c2.7,2.7,4.4,6.2,6.8,9.2c2.3,3.2,5.8,7.2,3.3,11.3
			c-3.1,5.4-6.7,10.5-10.6,15.3c-1.8,0-3.5,0.1-5.2-0.2c-2-0.9-3.4-3.3-2.9-5.5c1.1-4.5,4.6-7.7,6.7-11.6c1.1-1.6-0.6-3-1.3-4.3
			C618.6,287.5,615.4,284.1,615.3,279.8z"/>
		<path class="st1" d="M497.3,341c4.2-0.7,8.3,1.1,12.2,2.3c27.5,9.8,58.4,9.7,85.9-0.1c4.2-1.3,8.7-3.3,13.1-1.9
			c4.3,2.6,6.6,8.5,4,13.1c-1.1,2.7-4,3.6-6.4,4.6c-29.5,11.8-62.8,13.7-93.3,4.9c-6-1.8-12.2-3.2-17.6-6.4
			C488.5,354.1,490.2,342.8,497.3,341z"/>
	</g>
</g>
</svg>
