<?xml version="1.0" encoding="UTF-8" ?>
<!DOCTYPE svg PUBLIC "-//W3C//DTD SVG 1.1//EN" "http://www.w3.org/Graphics/SVG/1.1/DTD/svg11.dtd">
<svg width="850pt" height="862pt" viewBox="0 0 850 862" version="1.1" xmlns="http://www.w3.org/2000/svg">
<g id="#ffffe">
<path fill="#fff" opacity="1.00" d=" M 447.18 7.66 C 454.29 8.19 461.39 8.91 468.47 9.78 C 477.01 11.01 485.36 16.46 488.09 24.93 C 492.21 37.89 487.03 54.23 474.35 60.36 C 464.26 65.45 452.59 63.15 442.12 60.64 C 443.77 42.98 445.51 25.32 447.18 7.66 M 450.76 55.78 C 457.68 57.29 465.61 58.94 471.99 54.85 C 478.24 50.84 480.58 43.06 480.92 36.01 C 481.40 29.49 478.94 22.38 473.28 18.71 C 467.89 14.89 461.04 14.95 454.74 14.31 C 453.39 28.13 452.07 41.96 450.76 55.78 Z" />
<path fill="#fff" opacity="1.00" d=" M 371.87 11.29 C 374.87 10.91 377.87 10.54 380.88 10.17 C 389.52 27.28 398.07 44.42 406.67 61.55 C 403.85 61.92 401.02 62.25 398.19 62.53 C 395.67 57.21 393.02 51.95 390.42 46.66 C 383.75 47.31 377.10 48.13 370.47 49.03 C 369.24 54.85 368.16 60.70 366.80 66.49 C 364.19 66.76 361.59 67.05 359.00 67.35 C 363.27 48.66 367.52 29.96 371.87 11.29 M 376.76 18.73 C 375.08 26.76 373.41 34.79 371.79 42.83 C 377.08 42.23 382.35 41.38 387.66 40.88 C 384.03 33.49 380.44 26.09 376.76 18.73 Z" />
<path fill="#fff" opacity="1.00" d=" M 290.12 30.93 C 297.47 28.92 305.96 30.04 311.83 35.16 C 318.48 41.08 321.66 50.24 321.53 59.00 C 321.41 67.83 316.29 76.17 308.83 80.76 C 302.23 85.11 294.37 86.70 286.78 88.36 C 280.80 71.65 274.93 54.90 268.97 38.17 C 276.03 35.80 282.94 32.94 290.12 30.93 M 278.63 41.04 C 283.29 54.12 287.87 67.24 292.57 80.31 C 299.07 78.74 306.46 77.29 310.67 71.55 C 315.16 65.71 314.49 57.65 312.09 51.08 C 309.97 44.59 304.88 38.61 297.92 37.31 C 291.20 35.85 284.82 38.93 278.63 41.04 Z" />
<path fill="#fff" opacity="1.00" d=" M 567.11 89.03 C 574.98 72.78 582.84 56.54 590.73 40.30 C 593.20 41.40 595.63 42.60 598.01 43.89 C 600.07 60.24 602.23 76.58 604.31 92.93 C 610.30 80.50 616.40 68.12 622.33 55.67 C 624.52 56.58 626.67 57.62 628.76 58.76 C 620.89 74.97 613.05 91.20 605.16 107.39 C 602.95 106.32 600.74 105.27 598.51 104.26 C 596.22 87.63 594.09 70.97 591.81 54.33 C 585.69 66.89 579.59 79.45 573.53 92.03 C 571.39 91.02 569.25 90.02 567.11 89.03 Z" />
<path fill="#fff" opacity="1.00" d=" M 215.12 65.48 C 217.43 64.06 219.78 62.70 222.17 61.43 C 231.21 77.03 240.19 92.66 249.24 108.25 C 246.88 109.60 244.52 110.96 242.17 112.33 C 233.17 96.70 224.15 81.09 215.12 65.48 Z" />
<path fill="#fff" opacity="1.00" d=" M 156.31 110.06 C 159.30 101.67 167.43 96.29 175.34 93.04 C 176.29 95.25 177.25 97.45 178.21 99.66 C 172.66 101.74 166.72 104.20 163.14 109.18 C 159.90 113.85 164.61 120.56 169.96 120.28 C 177.72 120.07 185.02 115.32 192.92 117.01 C 201.14 119.19 205.88 129.42 202.41 137.17 C 198.87 145.48 190.82 151.00 182.62 154.13 C 181.55 151.89 180.44 149.67 179.32 147.46 C 185.65 145.21 192.88 142.63 196.23 136.33 C 199.00 131.03 193.75 124.42 188.07 124.91 C 180.96 125.23 174.34 129.43 167.09 128.20 C 159.05 126.97 153.46 117.75 156.31 110.06 Z" />
<path fill="#fff" opacity="1.00" d=" M 634.57 125.59 C 650.93 115.54 667.18 105.31 683.63 95.43 C 685.97 97.32 688.32 99.19 690.67 101.07 C 684.49 119.20 678.32 137.34 672.14 155.47 C 669.94 153.69 667.73 151.94 665.50 150.21 C 667.43 144.59 669.46 139.00 671.36 133.37 C 666.13 129.23 660.88 125.11 655.71 120.91 C 650.72 124.09 645.77 127.32 640.81 130.53 C 638.70 128.91 636.62 127.26 634.57 125.59 M 661.01 117.42 C 665.17 120.79 669.37 124.12 673.55 127.46 C 676.23 119.70 678.96 111.95 681.67 104.19 C 674.74 108.53 667.92 113.05 661.01 117.42 Z" />
<path fill="#fff" opacity="1.00" d=" M 112.55 153.53 C 119.44 149.78 128.06 154.07 131.19 160.76 C 133.05 164.34 132.98 168.50 132.42 172.38 C 141.76 174.04 151.12 175.61 160.44 177.36 C 158.47 179.78 156.49 182.20 154.47 184.59 C 146.22 182.70 137.94 180.94 129.65 179.24 C 127.90 181.64 126.06 183.98 124.12 186.22 C 129.93 190.93 135.71 195.68 141.46 200.47 C 139.72 202.55 137.99 204.65 136.28 206.76 C 122.41 195.21 108.40 183.82 94.47 172.33 C 100.41 166.02 104.72 157.74 112.55 153.53 M 112.35 161.49 C 108.76 163.22 106.68 166.83 104.26 169.82 C 109.34 174.02 114.45 178.21 119.55 182.39 C 122.42 178.96 126.39 175.84 126.97 171.11 C 127.73 163.93 118.64 158.10 112.35 161.49 Z" />
<path fill="#fff" opacity="1.00" d=" M 722.03 156.13 C 729.13 152.60 737.96 152.08 745.06 155.90 C 752.83 160.05 758.01 167.80 761.20 175.81 C 759.03 176.71 756.85 177.60 754.69 178.48 C 752.34 172.39 749.15 166.14 743.75 162.23 C 737.95 158.15 730.09 159.88 724.64 163.70 C 718.09 168.10 711.70 174.61 711.47 182.98 C 711.41 192.34 719.07 199.59 726.89 203.52 C 725.57 205.11 724.26 206.70 722.94 208.28 C 715.29 204.68 708.69 198.50 705.25 190.71 C 702.59 184.69 702.72 177.54 705.71 171.67 C 709.18 164.83 715.21 159.50 722.03 156.13 Z" />
<path fill="#fff" opacity="1.00" d=" M 66.53 213.87 C 68.32 215.10 70.09 216.37 71.83 217.69 C 68.25 224.18 64.66 230.67 61.08 237.16 C 66.10 239.82 71.14 242.42 76.15 245.10 C 79.41 239.12 82.55 233.08 85.80 227.09 C 87.47 228.26 89.13 229.45 90.77 230.67 C 87.63 236.34 84.60 242.08 81.31 247.67 C 86.68 250.91 92.36 253.63 97.80 256.76 C 101.59 249.50 105.31 242.21 109.06 234.93 C 110.90 236.23 112.73 237.56 114.55 238.90 C 109.60 248.25 104.59 257.56 99.62 266.90 C 83.80 258.28 67.85 249.89 51.92 241.48 C 56.65 232.21 61.71 223.10 66.53 213.87 Z" />
<path fill="#fff" opacity="1.00" d=" M 740.83 241.11 C 756.48 232.15 772.09 223.12 787.79 214.23 C 789.16 216.57 790.51 218.91 791.84 221.28 C 776.16 230.20 760.54 239.21 744.89 248.18 C 743.52 245.83 742.17 243.47 740.83 241.11 Z" />
<path fill="#fff" opacity="1.00" d=" M 790.50 272.83 C 799.15 270.43 809.27 271.76 816.02 278.04 C 823.45 285.04 827.53 296.63 823.37 306.38 C 820.16 313.89 812.84 318.76 805.31 321.24 C 797.53 323.89 788.40 324.15 781.15 319.84 C 769.14 312.94 763.16 294.86 772.55 283.53 C 777.02 277.94 783.70 274.63 790.50 272.83 M 796.45 279.58 C 789.57 281.36 782.35 284.16 777.93 290.01 C 773.37 295.91 774.38 304.65 778.68 310.40 C 782.62 315.56 789.83 316.78 795.87 315.42 C 802.75 313.86 809.85 311.03 814.50 305.49 C 819.62 299.46 818.77 289.95 813.93 284.02 C 809.71 279.05 802.48 278.16 796.45 279.58 Z" />
<path fill="#fff" opacity="1.00" d=" M 33.50 283.62 C 48.95 295.09 64.31 306.66 79.72 318.17 C 78.88 321.08 78.02 324.00 77.16 326.91 C 58.03 327.86 38.90 328.94 19.78 330.09 C 20.58 327.29 21.37 324.49 22.36 321.75 C 38.29 321.17 54.21 320.13 70.15 319.58 C 57.26 310.05 44.21 300.73 31.21 291.34 C 31.97 288.76 32.73 286.19 33.50 283.62 Z" />
<path fill="#fff" opacity="1.00" d=" M 786.97 367.96 C 804.92 366.20 822.86 364.25 840.83 362.66 C 841.07 365.25 841.35 367.85 841.68 370.44 C 828.93 381.00 815.91 391.24 803.10 401.73 C 816.85 400.39 830.58 398.84 844.35 397.66 C 844.58 400.01 844.82 402.36 845.04 404.72 C 827.08 406.38 809.14 408.25 791.19 410.06 C 790.93 407.61 790.69 405.17 790.45 402.73 C 803.31 392.02 816.42 381.61 829.31 370.93 C 815.44 372.18 801.58 373.61 787.73 375.07 C 787.42 372.70 787.17 370.33 786.97 367.96 Z" />
<path fill="#fff" opacity="1.00" d=" M 11.82 381.83 C 12.11 379.14 12.41 376.46 12.74 373.78 C 30.68 375.66 48.59 377.79 66.50 379.90 C 66.21 382.58 65.91 385.27 65.61 387.96 C 47.68 385.88 29.76 383.75 11.82 381.83 Z" />
<path fill="#fff" opacity="1.00" d=" M 9.14 434.09 C 27.12 432.67 45.13 431.52 63.12 430.30 C 63.31 432.79 63.49 435.28 63.61 437.78 C 50.25 447.87 36.98 458.09 23.74 468.34 C 37.69 467.28 51.64 466.34 65.60 465.44 C 65.79 467.79 65.94 470.15 66.07 472.51 C 48.08 473.70 30.09 474.90 12.12 476.31 C 11.91 473.58 11.72 470.85 11.56 468.13 C 24.74 458.19 37.83 448.14 51.01 438.20 C 37.25 439.27 23.46 439.96 9.72 441.20 C 9.45 438.83 9.26 436.46 9.14 434.09 Z" />
<path fill="#fff" opacity="1.00" d=" M 791.14 444.63 C 808.29 453.06 825.26 461.85 842.45 470.21 C 842.32 473.32 841.89 476.41 841.50 479.50 C 822.82 483.74 804.13 487.96 785.49 492.36 C 785.81 489.57 786.13 486.79 786.41 484.01 C 792.16 482.45 798.02 481.34 803.85 480.10 C 804.63 473.44 805.44 466.79 806.21 460.13 C 800.87 457.55 795.50 455.06 790.17 452.49 C 790.49 449.86 790.81 447.24 791.14 444.63 M 811.96 462.88 C 811.30 468.18 810.69 473.47 810.07 478.78 C 818.08 476.88 826.12 475.12 834.18 473.42 C 826.79 469.87 819.40 466.32 811.96 462.88 Z" />
<path fill="#fff" opacity="1.00" d=" M 56.12 519.33 C 61.33 517.79 67.31 517.86 72.03 520.81 C 76.95 523.71 79.82 529.06 81.43 534.37 C 82.94 539.43 83.40 545.18 80.85 550.00 C 78.69 554.17 74.54 556.96 70.15 558.39 C 58.31 562.09 46.42 565.67 34.61 569.50 C 33.79 566.92 32.98 564.35 32.19 561.77 C 43.42 558.08 54.84 554.93 66.02 551.08 C 70.44 549.61 74.71 546.04 75.00 541.09 C 75.27 536.52 73.97 531.58 70.65 528.29 C 67.63 525.33 62.94 525.16 59.12 526.41 C 47.56 529.92 36.05 533.57 24.50 537.10 C 23.74 534.67 22.98 532.25 22.24 529.82 C 33.54 526.36 44.79 522.71 56.12 519.33 Z" />
<path fill="#fff" opacity="1.00" d=" M 767.63 554.71 C 770.66 545.32 773.70 535.94 776.76 526.57 C 793.96 532.02 811.09 537.67 828.24 543.27 C 827.41 545.83 826.58 548.40 825.75 550.97 C 810.57 546.15 795.48 541.00 780.25 536.35 C 778.14 543.48 775.89 550.57 773.74 557.70 C 771.70 556.68 769.67 555.69 767.63 554.71 Z" />
<path fill="#fff" opacity="1.00" d=" M 96.46 685.27 C 109.87 673.73 123.18 662.06 136.53 650.44 C 140.76 654.93 144.67 659.70 148.74 664.34 C 153.43 669.70 156.84 676.68 156.22 683.96 C 155.69 691.14 151.23 697.43 145.69 701.76 C 138.42 707.80 128.07 710.40 119.03 707.05 C 108.69 703.48 102.07 694.11 96.46 685.27 M 106.04 687.77 C 109.43 692.59 112.84 697.90 118.33 700.54 C 123.91 703.25 130.66 702.00 135.71 698.71 C 142.56 694.62 148.79 687.53 148.26 679.07 C 147.98 671.41 142.17 665.86 137.51 660.44 C 126.97 669.49 116.53 678.66 106.04 687.77 Z" />
<path fill="#fff" opacity="1.00" d=" M 703.39 667.13 C 705.34 664.82 707.30 662.53 709.27 660.24 C 727.23 666.93 745.13 673.81 763.02 680.68 C 761.19 682.82 759.36 684.96 757.54 687.11 C 752.00 684.99 746.51 682.73 740.94 680.69 C 736.60 685.77 732.24 690.84 727.93 695.95 C 730.94 701.02 734.00 706.07 737.02 711.14 C 735.29 713.12 733.58 715.12 731.90 717.14 C 722.26 700.55 712.91 683.79 703.39 667.13 M 712.09 669.33 C 716.34 676.36 720.37 683.52 724.78 690.45 C 728.09 686.28 731.65 682.34 735.06 678.27 C 727.42 675.25 719.79 672.20 712.09 669.33 Z" />
<path fill="#fff" opacity="1.00" d=" M 664.49 705.49 C 666.50 703.68 668.55 701.90 670.63 700.16 C 682.48 713.75 694.28 727.39 706.09 741.01 C 704.04 742.77 701.99 744.54 699.94 746.32 C 688.10 732.73 676.33 719.08 664.49 705.49 Z" />
<path fill="#fff" opacity="1.00" d=" M 153.29 745.43 C 164.60 731.40 175.79 717.26 187.11 703.23 C 195.29 709.65 203.37 716.20 211.45 722.75 C 209.90 724.21 208.36 725.70 206.83 727.20 C 201.05 722.56 195.43 717.73 189.65 713.10 C 186.05 717.49 182.55 721.98 178.98 726.40 C 184.31 730.68 189.67 734.92 195.03 739.18 C 193.53 740.57 192.03 741.98 190.54 743.39 C 185.43 739.29 180.44 735.05 175.33 730.94 C 171.42 735.82 167.53 740.71 163.64 745.61 C 170.09 750.59 176.55 755.57 182.96 760.60 C 181.33 762.18 179.70 763.76 178.06 765.33 C 169.84 758.65 161.54 752.08 153.29 745.43 Z" />
<path fill="#fff" opacity="1.00" d=" M 626.02 734.12 C 631.02 731.41 637.94 730.23 642.60 734.23 C 647.81 738.43 648.43 746.30 645.20 751.92 C 649.80 750.43 655.49 750.16 659.32 753.61 C 664.39 757.85 665.62 765.67 662.22 771.32 C 657.32 780.13 647.42 783.87 639.60 789.48 C 629.90 774.27 620.20 759.06 610.53 743.84 C 615.70 740.62 620.71 737.12 626.02 734.12 M 620.39 744.27 C 623.73 749.31 626.89 754.47 630.16 759.55 C 633.81 757.22 638.24 755.40 640.41 751.41 C 643.27 745.89 638.03 738.60 631.98 738.86 C 627.55 739.04 623.94 741.95 620.39 744.27 M 633.17 764.25 C 636.54 769.53 639.87 774.84 643.26 780.10 C 647.77 777.16 653.26 775.02 656.18 770.23 C 659.29 764.68 654.06 757.28 647.96 757.38 C 642.26 757.40 637.67 761.25 633.17 764.25 Z" />
<path fill="#fff" opacity="1.00" d=" M 571.89 763.12 C 574.84 761.95 577.82 760.82 580.82 759.75 C 589.08 775.92 597.31 792.11 605.54 808.29 C 603.02 809.21 600.51 810.15 598.00 811.11 C 591.47 797.87 585.04 784.59 578.47 771.38 C 578.78 786.97 579.15 802.57 579.48 818.17 C 577.36 818.93 575.26 819.72 573.18 820.54 C 563.08 808.67 552.96 796.83 542.84 784.99 C 546.68 799.22 550.72 813.40 554.57 827.63 C 552.18 828.50 549.79 829.36 547.40 830.21 C 543.04 812.60 538.42 795.06 534.02 777.46 C 536.91 776.29 539.83 775.20 542.78 774.17 C 552.84 785.74 562.87 797.33 572.87 808.95 C 572.53 793.67 572.20 778.39 571.89 763.12 Z" />
<path fill="#fff" opacity="1.00" d=" M 263.07 771.98 C 267.79 766.61 274.80 763.24 282.00 763.47 C 290.62 763.77 298.61 768.06 304.95 773.68 C 303.43 775.44 301.91 777.21 300.39 778.98 C 295.94 775.01 290.83 771.53 285.01 769.98 C 279.56 768.58 273.70 770.95 270.17 775.20 C 266.34 779.67 263.96 785.30 262.80 791.04 C 261.62 796.84 263.02 803.37 267.46 807.50 C 272.78 812.46 280.29 814.12 287.38 814.14 C 286.93 816.16 286.49 818.20 286.06 820.23 C 277.34 820.45 268.38 817.89 261.64 812.23 C 256.44 807.77 253.43 800.89 253.84 794.03 C 254.30 785.93 257.71 778.04 263.07 771.98 Z" />
<path fill="#fff" opacity="1.00" d=" M 340.45 783.68 C 348.91 781.97 358.65 783.82 364.79 790.22 C 369.86 795.38 371.58 803.02 370.94 810.06 C 370.22 817.95 367.43 826.01 361.67 831.65 C 352.17 841.16 334.93 841.01 325.46 831.57 C 318.49 824.34 318.10 813.22 320.76 804.04 C 323.16 794.45 330.45 785.67 340.45 783.68 M 340.39 789.60 C 334.24 791.82 330.65 797.97 329.14 804.02 C 327.57 810.36 326.73 817.40 329.46 823.56 C 332.37 830.13 340.08 833.40 346.96 832.84 C 353.66 832.12 358.47 826.29 360.43 820.21 C 362.49 813.70 363.58 806.47 361.43 799.84 C 358.76 791.48 348.52 786.97 340.39 789.60 Z" />
<path fill="#fff" opacity="1.00" d=" M 482.23 787.20 C 488.25 786.28 494.73 787.57 499.54 791.44 C 505.76 796.33 508.77 804.21 509.64 811.88 C 510.54 819.40 509.21 827.53 504.42 833.60 C 498.34 841.44 487.57 844.96 477.94 843.15 C 470.02 841.61 463.97 835.03 461.44 827.59 C 458.27 818.45 457.91 807.65 463.07 799.16 C 467.08 792.38 474.56 788.26 482.23 787.20 M 478.15 794.18 C 471.12 795.82 467.00 803.10 466.99 809.98 C 466.97 817.74 468.49 826.18 473.77 832.19 C 480.54 839.63 494.71 838.59 499.67 829.59 C 502.58 824.40 502.41 818.15 501.41 812.47 C 500.35 806.83 498.34 800.93 493.81 797.13 C 489.57 793.45 483.44 792.81 478.15 794.18 Z" />
<path fill="#fff" opacity="1.00" d=" M 404.17 791.86 C 406.88 791.92 409.58 792.00 412.30 792.09 C 411.81 808.01 411.29 823.93 410.82 839.85 C 418.28 839.92 425.73 840.07 433.19 840.15 C 432.82 842.39 432.46 844.64 432.09 846.89 C 422.22 846.61 412.35 846.26 402.48 845.97 C 403.05 827.93 403.59 809.89 404.17 791.86 Z" />
</g>
<g id="#94b43bff">
<path fill="#fff" opacity="1.00" d=" M 409.20 129.13 C 462.52 125.87 516.72 137.10 564.08 161.89 C 622.49 192.18 670.29 242.43 697.44 302.38 C 714.82 340.40 723.87 382.16 724.02 423.96 C 724.26 464.44 716.11 504.94 700.13 542.14 C 672.87 606.17 622.23 659.84 559.92 690.82 C 519.16 711.24 473.63 722.10 428.03 722.06 C 383.85 722.32 339.67 712.37 299.80 693.34 C 235.24 662.83 182.57 608.11 154.54 542.44 C 131.89 490.04 125.14 431.04 134.81 374.82 C 146.32 306.42 183.04 242.71 236.24 198.24 C 284.43 157.33 346.09 132.71 409.20 129.13 M 213.58 323.74 C 213.56 351.17 213.59 378.60 213.58 406.03 C 213.65 418.03 213.11 430.12 215.11 442.01 C 218.08 461.47 226.38 480.54 240.56 494.45 C 254.51 508.48 273.61 516.50 293.04 519.13 C 304.25 520.93 315.64 520.39 326.95 520.47 C 354.72 520.46 382.48 520.48 410.25 520.46 C 410.27 454.88 410.26 389.31 410.25 323.74 C 399.39 323.73 388.53 323.73 377.66 323.74 C 377.65 353.16 377.66 382.58 377.66 412.00 C 377.56 422.05 378.38 432.34 375.37 442.10 C 369.08 464.73 348.86 482.10 326.08 486.71 C 309.36 490.19 291.23 487.41 276.67 478.34 C 262.35 469.83 251.41 455.54 247.72 439.22 C 245.73 431.29 246.25 423.09 246.19 415.01 C 246.18 384.58 246.20 354.16 246.18 323.74 C 235.31 323.72 224.45 323.73 213.58 323.74 M 443.27 323.75 C 443.29 389.33 443.21 454.91 443.31 520.49 C 454.16 520.43 465.01 520.49 475.86 520.45 C 475.85 486.63 475.86 452.80 475.86 418.98 C 475.83 411.65 477.07 404.31 479.67 397.45 C 486.52 379.06 502.64 364.73 521.32 359.08 C 540.44 353.17 562.18 356.00 578.90 367.10 C 591.90 375.60 601.89 388.90 605.56 404.08 C 607.98 413.17 607.21 422.64 607.33 431.94 C 607.35 461.45 607.31 490.96 607.35 520.47 C 618.21 520.46 629.07 520.47 639.94 520.46 C 639.94 487.96 639.94 455.46 639.94 422.96 C 639.96 409.79 638.21 396.54 633.97 384.04 C 628.79 368.62 619.52 354.42 606.80 344.20 C 594.87 334.52 580.23 328.57 565.18 325.85 C 551.63 323.24 537.77 323.79 524.05 323.73 C 497.12 323.74 470.19 323.71 443.27 323.75 Z" />
</g>
<!-- <g id="#ffffffff">
<path fill="#ffffff" opacity="1.00" d=" M 213.58 323.74 C 224.45 323.73 235.31 323.72 246.18 323.74 C 246.20 354.16 246.18 384.58 246.19 415.01 C 246.25 423.09 245.73 431.29 247.72 439.22 C 251.41 455.54 262.35 469.83 276.67 478.34 C 291.23 487.41 309.36 490.19 326.08 486.71 C 348.86 482.10 369.08 464.73 375.37 442.10 C 378.38 432.34 377.56 422.05 377.66 412.00 C 377.66 382.58 377.65 353.16 377.66 323.74 C 388.53 323.73 399.39 323.73 410.25 323.74 C 410.26 389.31 410.27 454.88 410.25 520.46 C 382.48 520.48 354.72 520.46 326.95 520.47 C 315.64 520.39 304.25 520.93 293.04 519.13 C 273.61 516.50 254.51 508.48 240.56 494.45 C 226.38 480.54 218.08 461.47 215.11 442.01 C 213.11 430.12 213.65 418.03 213.58 406.03 C 213.59 378.60 213.56 351.17 213.58 323.74 Z" />
<path fill="#ffffff" opacity="1.00" d=" M 443.27 323.75 C 470.19 323.71 497.12 323.74 524.05 323.73 C 537.77 323.79 551.63 323.24 565.18 325.85 C 580.23 328.57 594.87 334.52 606.80 344.20 C 619.52 354.42 628.79 368.62 633.97 384.04 C 638.21 396.54 639.96 409.79 639.94 422.96 C 639.94 455.46 639.94 487.96 639.94 520.46 C 629.07 520.47 618.21 520.46 607.35 520.47 C 607.31 490.96 607.35 461.45 607.33 431.94 C 607.21 422.64 607.98 413.17 605.56 404.08 C 601.89 388.90 591.90 375.60 578.90 367.10 C 562.18 356.00 540.44 353.17 521.32 359.08 C 502.64 364.73 486.52 379.06 479.67 397.45 C 477.07 404.31 475.83 411.65 475.86 418.98 C 475.86 452.80 475.85 486.63 475.86 520.45 C 465.01 520.49 454.16 520.43 443.31 520.49 C 443.21 454.91 443.29 389.33 443.27 323.75 Z" />
</g> -->
</svg>
