<?xml version="1.0" encoding="UTF-8" ?>
<!DOCTYPE svg PUBLIC "-//W3C//DTD SVG 1.1//EN" "http://www.w3.org/Graphics/SVG/1.1/DTD/svg11.dtd">
<svg width="512pt" height="512pt" viewBox="0 0 512 512" version="1.1" xmlns="http://www.w3.org/2000/svg">
<g id="#f0c382ff">
<path fill="#f0c382" opacity="1.00" d=" M 363.52 47.92 C 363.36 42.29 370.14 38.07 375.07 40.99 C 400.95 56.41 423.89 76.86 441.91 101.03 C 445.19 105.75 448.78 110.27 451.77 115.19 C 455.43 120.87 458.53 126.89 462.39 132.45 C 465.17 140.45 469.61 147.81 472.35 155.86 C 480.21 176.20 485.17 197.66 487.02 219.39 C 488.09 230.23 488.24 241.15 487.67 252.03 C 487.62 253.91 487.80 255.79 487.90 257.68 C 486.80 260.67 486.80 263.88 486.39 267.00 C 483.23 294.09 475.28 320.64 462.82 344.91 C 459.35 351.62 455.59 358.17 451.58 364.58 C 449.50 367.93 446.78 370.93 445.51 374.73 C 444.45 375.54 443.48 376.47 442.68 377.55 C 422.90 404.25 397.45 426.83 368.31 442.85 C 357.04 449.39 344.99 454.51 332.73 458.91 C 303.41 469.17 272.02 473.57 241.02 471.62 C 219.65 470.06 198.57 465.63 178.30 458.75 C 166.50 454.06 154.63 449.35 143.68 442.86 C 114.55 426.82 89.10 404.25 69.32 377.55 C 68.52 376.49 67.56 375.56 66.51 374.74 C 65.89 373.04 65.11 371.38 64.06 369.90 C 58.41 362.00 53.75 353.46 49.18 344.91 C 36.11 319.46 28.02 291.50 25.18 263.05 C 25.05 261.21 24.70 259.41 24.10 257.68 C 24.26 255.12 24.45 252.56 24.27 250.00 C 23.69 239.77 24.05 229.51 24.92 219.30 C 27.50 190.60 35.28 162.33 48.24 136.57 C 48.89 135.26 49.26 133.84 49.62 132.43 C 51.26 130.13 52.99 127.87 54.30 125.36 C 58.84 116.87 64.35 108.96 70.07 101.24 C 76.33 92.90 83.14 84.96 90.45 77.53 C 92.60 75.36 94.76 72.68 97.97 72.20 C 102.98 71.19 108.00 76.08 107.08 81.12 C 106.76 83.88 104.64 85.88 102.84 87.80 C 94.46 96.14 86.82 105.22 79.93 114.83 C 74.81 122.49 68.79 129.91 65.93 138.77 C 64.89 139.46 64.15 140.48 63.62 141.59 C 49.66 168.78 41.75 198.97 40.25 229.48 C 39.94 236.67 39.97 243.88 40.13 251.08 C 40.03 252.82 40.77 254.39 41.64 255.84 C 40.07 258.72 41.35 262.08 41.51 265.15 C 45.45 299.54 57.96 332.89 77.51 361.43 C 83.05 368.25 87.56 375.89 93.78 382.15 C 101.79 391.60 111.02 399.88 120.35 407.99 C 124.24 411.03 128.40 413.71 132.29 416.76 C 156.23 434.14 184.18 445.66 213.08 451.69 C 216.43 452.46 219.85 452.87 223.29 452.94 C 218.18 451.02 212.76 450.14 207.60 448.42 C 190.68 442.91 174.57 434.71 160.34 424.02 C 137.02 394.12 130.16 352.68 141.31 316.57 C 143.21 310.98 145.30 305.44 147.80 300.09 C 150.82 294.16 154.03 288.29 158.02 282.96 C 161.36 278.49 169.09 279.53 171.22 284.65 C 173.27 288.44 170.92 292.48 168.73 295.59 C 148.70 325.68 146.65 366.49 163.14 398.59 C 165.60 403.77 168.68 408.64 172.11 413.23 C 187.70 434.78 211.89 449.92 238.13 454.37 C 251.58 456.39 265.34 456.14 278.70 453.51 C 285.10 451.85 291.50 450.02 297.53 447.27 C 310.57 441.53 322.46 433.14 332.12 422.66 C 335.85 418.56 339.31 414.22 342.47 409.67 C 360.50 382.91 364.97 347.59 353.92 317.26 C 343.11 286.25 316.64 261.10 284.97 252.28 C 279.42 250.56 273.74 249.36 267.96 248.69 C 262.36 247.63 255.87 249.47 250.94 246.08 C 245.67 242.14 248.32 232.72 254.90 232.19 C 294.29 231.26 333.06 251.90 355.05 284.48 C 359.16 289.95 361.44 296.57 365.85 301.81 C 365.79 302.13 365.67 302.78 365.61 303.10 C 371.07 316.07 374.84 329.85 375.60 343.94 C 377.61 372.32 369.15 401.51 351.67 424.01 C 337.63 434.57 321.76 442.67 305.10 448.18 C 299.74 450.03 294.09 450.88 288.80 452.93 C 295.30 452.88 301.59 451.09 307.89 449.66 C 327.99 444.60 347.47 436.83 365.31 426.22 C 374.59 420.88 383.03 414.27 391.66 407.98 C 406.04 395.64 419.78 382.28 430.50 366.58 C 439.03 355.92 445.67 343.86 451.56 331.59 C 462.19 309.10 468.73 284.73 471.06 259.97 C 471.26 258.54 471.09 257.09 470.36 255.84 C 471.20 254.35 471.94 252.75 471.87 250.99 C 472.10 243.80 472.05 236.60 471.70 229.41 C 470.23 198.94 462.39 168.77 448.48 141.61 C 447.91 140.47 447.13 139.43 446.03 138.76 C 445.39 136.58 444.81 134.36 443.62 132.40 C 440.00 126.46 436.46 120.45 432.27 114.87 C 415.54 91.45 394.09 71.44 369.60 56.34 C 366.55 54.53 363.28 51.86 363.52 47.92 Z" />
<path fill="#f0c382" opacity="1.00" d=" M 392.16 167.02 C 392.60 162.49 397.46 159.11 401.86 160.32 C 405.65 161.17 408.35 165.06 407.89 168.92 C 407.03 179.87 406.07 190.81 404.97 201.74 C 400.57 195.15 395.79 188.83 390.77 182.70 C 391.13 177.47 391.46 172.22 392.16 167.02 Z" />
<path fill="#f0c382" opacity="1.00" d=" M 101.35 168.55 C 105.84 166.77 111.33 170.10 111.80 174.90 C 112.27 181.71 111.87 188.55 112.00 195.36 C 105.99 204.00 100.84 213.19 96.08 222.56 C 95.91 207.37 96.02 192.17 96.02 176.97 C 95.83 173.40 97.85 169.69 101.35 168.55 Z" />
<path fill="#f0c382" opacity="1.00" d=" M 174.63 227.51 C 172.45 222.61 176.68 216.57 181.98 216.77 C 185.23 216.61 187.79 218.94 189.57 221.40 C 194.56 228.12 199.81 234.64 204.65 241.47 C 203.53 248.94 202.79 256.46 202.19 263.99 C 195.20 255.82 189.08 246.93 182.44 238.47 C 179.88 234.79 176.64 231.54 174.63 227.51 Z" />
<path fill="#f0c382" opacity="1.00" d=" M 393.01 267.98 C 387.26 264.48 389.34 254.65 396.00 253.75 C 401.58 253.32 406.51 256.86 411.63 258.61 C 413.16 264.65 414.00 270.82 414.77 276.99 C 407.53 273.95 399.98 271.56 393.01 267.98 Z" />
<path fill="#f0c382" opacity="1.00" d=" M 104.61 284.45 C 106.20 282.39 108.28 280.42 110.99 280.14 C 115.55 279.43 120.07 283.47 119.91 288.06 C 120.01 290.68 118.34 292.84 116.85 294.82 C 110.51 302.93 104.29 311.13 97.92 319.23 C 96.57 311.42 96.25 303.50 96.05 295.60 C 98.88 291.87 101.76 288.17 104.61 284.45 Z" />
<path fill="#f0c382" opacity="1.00" d=" M 386.47 347.53 C 382.83 341.39 390.27 333.61 396.60 336.73 C 401.05 339.34 403.82 343.96 407.33 347.63 C 405.44 353.24 403.21 358.73 400.59 364.05 C 396.01 358.44 390.57 353.49 386.47 347.53 Z" />
<path fill="#f0c382" opacity="1.00" d=" M 227.79 357.05 C 231.17 353.19 233.33 347.16 238.94 346.16 C 245.12 345.00 250.28 352.65 246.85 357.94 C 243.10 363.70 238.68 369.00 234.72 374.62 C 232.05 368.92 229.71 363.05 227.79 357.05 Z" />
<path fill="#f0c382" opacity="1.00" d=" M 228.67 417.71 C 230.09 413.72 234.56 412.64 238.27 412.05 C 241.78 416.91 245.45 421.68 249.31 426.27 C 244.88 427.03 240.50 428.19 236.03 428.62 C 230.60 428.82 226.42 422.66 228.67 417.71 Z" />
</g>
<g id="#f7d291ff">
<path fill="#f7d291" opacity="1.00" d=" M 60.79 67.74 C 64.03 64.79 69.70 65.24 72.27 68.85 C 74.36 71.38 73.99 74.85 73.52 77.87 C 72.30 85.65 71.40 93.47 70.07 101.24 C 64.35 108.96 58.84 116.87 54.30 125.36 C 52.99 127.87 51.26 130.13 49.62 132.43 C 52.15 113.32 55.07 94.26 57.70 75.17 C 58.10 72.51 58.58 69.55 60.79 67.74 Z" />
<path fill="#f7d291" opacity="1.00" d=" M 438.15 75.00 C 437.21 69.98 441.92 64.95 447.01 65.84 C 451.00 66.23 453.78 69.94 454.07 73.77 C 456.84 93.33 459.76 112.87 462.39 132.45 C 458.53 126.89 455.43 120.87 451.77 115.19 C 448.78 110.27 445.19 105.75 441.91 101.03 C 440.49 92.38 439.30 83.69 438.15 75.00 Z" />
<path fill="#f7d291" opacity="1.00" d=" M 102.26 104.25 C 105.03 103.01 107.93 101.26 111.09 101.87 C 115.97 102.57 119.11 108.46 116.90 112.89 C 115.49 116.17 111.90 117.42 108.92 118.85 C 94.57 125.44 80.32 132.26 65.93 138.77 C 68.79 129.91 74.81 122.49 79.93 114.83 C 87.24 111.04 94.85 107.84 102.26 104.25 Z" />
<path fill="#f7d291" opacity="1.00" d=" M 396.38 104.43 C 399.19 100.97 404.28 101.27 407.83 103.36 C 415.95 107.25 424.22 110.85 432.27 114.87 C 436.46 120.45 440.00 126.46 443.62 132.40 C 444.81 134.36 445.39 136.58 446.03 138.76 C 430.35 131.57 414.70 124.29 399.11 116.92 C 394.38 114.91 392.79 108.19 396.38 104.43 Z" />
<path fill="#f7d291" opacity="1.00" d=" M 0.00 199.91 C 0.19 196.12 3.11 192.62 6.95 192.17 C 10.61 191.54 14.15 194.00 15.50 197.32 C 18.71 204.62 21.85 211.95 24.92 219.30 C 24.05 229.51 23.69 239.77 24.27 250.00 C 24.45 252.56 24.26 255.12 24.10 257.68 C 16.58 240.56 9.37 223.31 1.93 206.17 C 1.09 204.27 0.40 202.30 0.00 200.27 L 0.00 199.91 Z" />
<path fill="#f7d291" opacity="1.00" d=" M 497.50 195.58 C 501.30 189.25 511.97 192.38 512.00 199.74 L 512.00 200.15 C 511.62 202.23 510.92 204.24 510.07 206.17 C 502.62 223.32 495.42 240.57 487.90 257.68 C 487.80 255.79 487.62 253.91 487.67 252.03 C 488.24 241.15 488.09 230.23 487.02 219.39 C 490.55 211.47 493.52 203.28 497.50 195.58 Z" />
<path fill="#f7d291" opacity="1.00" d=" M 61.43 200.52 C 65.61 198.96 70.70 201.70 71.67 206.06 C 72.59 209.06 71.03 211.97 69.39 214.37 C 60.09 228.16 51.00 242.09 41.64 255.84 C 40.77 254.39 40.03 252.82 40.13 251.08 C 39.97 243.88 39.94 236.67 40.25 229.48 C 44.92 221.83 50.16 214.55 55.02 207.02 C 56.74 204.53 58.35 201.50 61.43 200.52 Z" />
<path fill="#f7d291" opacity="1.00" d=" M 440.16 206.97 C 440.61 202.42 445.55 199.10 449.94 200.33 C 453.35 201.09 455.16 204.33 456.97 207.00 C 461.82 214.51 467.04 221.78 471.70 229.41 C 472.05 236.60 472.10 243.80 471.87 250.99 C 471.94 252.75 471.20 254.35 470.36 255.84 C 461.13 242.30 452.18 228.56 443.01 214.97 C 441.44 212.61 439.63 209.97 440.16 206.97 Z" />
<path fill="#f7d291" opacity="1.00" d=" M 267.96 248.69 C 273.74 249.36 279.42 250.56 284.97 252.28 C 278.61 261.42 272.00 270.39 265.58 279.49 C 263.93 281.70 262.02 284.23 259.10 284.67 C 254.41 286.05 249.44 281.76 249.59 277.01 C 249.51 274.52 250.99 272.41 252.33 270.46 C 257.57 263.22 262.73 255.94 267.96 248.69 Z" />
<path fill="#f7d291" opacity="1.00" d=" M 359.23 274.18 C 361.85 270.55 367.62 270.04 370.82 273.19 C 373.28 275.33 374.03 278.99 372.86 282.00 C 370.66 288.65 368.13 295.19 365.85 301.81 C 361.44 296.57 359.16 289.95 355.05 284.48 C 356.42 281.04 357.21 277.32 359.23 274.18 Z" />
<path fill="#f7d291" opacity="1.00" d=" M 132.45 306.57 C 129.96 302.16 132.99 296.06 137.95 295.27 C 142.00 294.22 145.35 297.30 147.80 300.09 C 145.30 305.44 143.21 310.98 141.31 316.57 C 138.41 313.20 134.84 310.36 132.45 306.57 Z" />
<path fill="#f7d291" opacity="1.00" d=" M 17.13 332.14 C 19.77 329.10 24.52 328.95 27.73 331.17 C 34.90 335.71 42.13 340.18 49.18 344.91 C 53.75 353.46 58.41 362.00 64.06 369.90 C 65.11 371.38 65.89 373.04 66.51 374.74 C 50.55 364.65 34.59 354.53 18.73 344.30 C 14.55 341.85 13.66 335.55 17.13 332.14 Z" />
<path fill="#f7d291" opacity="1.00" d=" M 482.99 331.92 C 486.07 329.66 490.55 328.57 493.80 331.14 C 498.27 334.21 497.99 341.58 493.28 344.29 C 477.42 354.53 461.47 364.63 445.51 374.73 C 446.78 370.93 449.50 367.93 451.58 364.58 C 455.59 358.17 459.35 351.62 462.82 344.91 C 469.43 340.41 476.30 336.30 482.99 331.92 Z" />
<path fill="#f7d291" opacity="1.00" d=" M 163.14 398.59 C 166.09 395.02 168.60 389.50 173.99 389.59 C 179.40 389.37 183.67 395.64 181.26 400.56 C 178.78 405.16 175.10 408.97 172.11 413.23 C 168.68 408.64 165.60 403.77 163.14 398.59 Z" />
<path fill="#f7d291" opacity="1.00" d=" M 325.68 396.83 C 329.05 395.13 333.34 396.44 335.50 399.46 C 337.97 402.75 340.23 406.21 342.47 409.67 C 339.31 414.22 335.85 418.56 332.12 422.66 C 328.81 417.74 325.25 412.98 322.15 407.93 C 319.78 404.11 321.55 398.57 325.68 396.83 Z" />
<path fill="#f7d291" opacity="1.00" d=" M 109.31 449.91 C 109.67 445.64 113.84 442.54 118.00 442.80 C 126.56 442.79 135.13 442.61 143.68 442.86 C 154.63 449.35 166.50 454.06 178.30 458.75 C 157.90 458.52 137.50 458.91 117.10 458.71 C 112.57 458.75 108.63 454.43 109.31 449.91 Z" />
<path fill="#f7d291" opacity="1.00" d=" M 332.73 458.91 C 344.99 454.51 357.04 449.39 368.31 442.85 C 376.52 442.59 384.73 442.83 392.94 442.77 C 396.17 442.61 399.75 443.60 401.50 446.55 C 404.17 450.45 402.33 456.48 397.84 458.09 C 394.03 459.32 389.93 458.59 386.00 458.76 C 368.25 458.90 350.47 458.35 332.73 458.91 Z" />
</g>
<g id="#e3aa75ff">
<path fill="#e3aa75" opacity="1.00" d=" M 223.86 123.12 C 227.83 122.53 232.28 120.67 236.07 122.91 C 240.00 125.10 241.16 130.86 238.37 134.39 C 236.26 137.45 232.26 137.74 228.94 138.44 C 199.15 143.39 170.95 157.31 148.71 177.71 C 115.74 207.39 96.08 251.21 96.05 295.60 C 96.25 303.50 96.57 311.42 97.92 319.23 C 103.56 360.64 126.87 399.12 160.34 424.02 C 174.57 434.71 190.68 442.91 207.60 448.42 C 212.76 450.14 218.18 451.02 223.29 452.94 C 219.85 452.87 216.43 452.46 213.08 451.69 C 184.18 445.66 156.23 434.14 132.29 416.76 C 128.40 413.71 124.24 411.03 120.35 407.99 C 115.91 401.95 111.02 396.20 107.26 389.69 C 90.31 363.05 80.82 331.70 80.20 300.15 C 79.54 276.70 83.92 253.19 92.51 231.38 C 93.75 228.46 95.22 225.63 96.08 222.56 C 100.84 213.19 105.99 204.00 112.00 195.36 C 138.06 158.03 178.92 131.09 223.86 123.12 Z" />
<path fill="#e3aa75" opacity="1.00" d=" M 334.89 153.88 C 333.63 149.36 337.25 144.38 341.92 144.14 C 344.91 143.79 347.48 145.68 349.88 147.19 C 365.20 156.86 379.11 168.82 390.77 182.70 C 395.79 188.83 400.57 195.15 404.97 201.74 C 407.13 205.93 409.86 209.80 411.89 214.07 C 435.38 258.25 438.26 312.62 420.09 359.17 C 413.45 376.90 403.47 393.23 391.66 407.98 C 383.03 414.27 374.59 420.88 365.31 426.22 C 347.47 436.83 327.99 444.60 307.89 449.66 C 301.59 451.09 295.30 452.88 288.80 452.93 C 294.09 450.88 299.74 450.03 305.10 448.18 C 321.76 442.67 337.63 434.57 351.67 424.01 C 372.53 408.43 389.59 387.66 400.59 364.05 C 403.21 358.73 405.44 353.24 407.33 347.63 C 415.00 325.03 417.68 300.69 414.77 276.99 C 414.00 270.82 413.16 264.65 411.63 258.61 C 402.33 218.65 376.69 182.90 341.94 161.12 C 339.14 159.27 335.65 157.47 334.89 153.88 Z" />
<path fill="#e3aa75" opacity="1.00" d=" M 220.16 185.12 C 224.00 182.83 229.44 184.65 231.20 188.73 C 233.05 192.77 230.60 196.99 229.56 200.90 C 225.96 214.10 222.60 227.40 220.62 240.96 C 214.77 279.51 215.36 319.79 227.79 357.05 C 229.71 363.05 232.05 368.92 234.72 374.62 C 248.08 404.24 270.42 429.50 297.53 447.27 C 291.50 450.02 285.10 451.85 278.70 453.51 C 267.97 445.51 258.22 436.26 249.31 426.27 C 245.45 421.68 241.78 416.91 238.27 412.05 C 232.24 403.66 227.00 394.71 222.52 385.40 C 204.22 347.91 199.37 305.23 202.19 263.99 C 202.79 256.46 203.53 248.94 204.65 241.47 C 206.98 224.86 210.46 208.37 215.49 192.36 C 216.35 189.61 217.38 186.49 220.16 185.12 Z" />
</g>
</svg>
