<svg id="Capa_5_copia_2" data-name="Capa 5 copia 2" xmlns="http://www.w3.org/2000/svg" viewBox="0 0 900 340"><title>S01</title><rect width="900" height="340" fill="none"/><path d="M659.28,503.88a1.46,1.46,0,0,0-.78-.92,40.66,40.66,0,0,1-4.94-2.79,1.77,1.77,0,0,0-2.12.6q-1.89,2.39-3.59,4.92a2,2,0,0,1-1.77.67,25.36,25.36,0,0,1-11.44-5.93A63.64,63.64,0,0,1,619,484a91.87,91.87,0,0,1-8.27-20.21c-.26-1-.51-1.91-.75-2.88a2.39,2.39,0,0,1,.24-1.41l.49-.68a55.26,55.26,0,0,0,10.92-20.08,21.06,21.06,0,0,0-1.64-14.83,20.19,20.19,0,0,0-20.49-11.3q-6.6.14-13.21.37c-.34-.07-.69-.15-1-.25l-.44-.11a.82.82,0,0,0-1,.82q0,.46.12.93a58.76,58.76,0,0,1-.18,9.38,1.87,1.87,0,0,0,.67,1.47,1.83,1.83,0,0,0,1.56.39,8.12,8.12,0,0,0,.85-.07,1.24,1.24,0,0,1,.71.08.73.73,0,0,1,.37.5,11.22,11.22,0,0,1,.21,1.72,142.69,142.69,0,0,1-.42,24.37q-1.11,21.26-1.71,42.53c0,.85-.08,1.71-.14,2.57a1.61,1.61,0,0,0,.66,1.29,1.68,1.68,0,0,0,1.44.25,51.18,51.18,0,0,1,6.37-1.36,2.29,2.29,0,0,0,1.78-2.68q.4-15.12,1.74-30.19a1.84,1.84,0,0,1,.52-1,2.19,2.19,0,0,1,.9-.39c.35-.09.7-.2,1-.31a1.82,1.82,0,0,1,.77,0,.69.69,0,0,1,.43.37,21.23,21.23,0,0,1,1,4.17,49.42,49.42,0,0,0,4.52,14.31,115.91,115.91,0,0,0,7,16.46q5.08,7,10.49,13.74a57,57,0,0,0,23.31,13.32,1.51,1.51,0,0,0,1.64-.61,64,64,0,0,0,4.87-9.9,53.37,53.37,0,0,0,4.85-9.93A1.16,1.16,0,0,0,659.28,503.88Zm-49.6-66.09a16.77,16.77,0,0,1-8.75,13.29,1.89,1.89,0,0,1-.84.2.4.4,0,0,1-.36-.36l0-.8q.43-6.18.61-12.36c0-3.8.1-7.6.23-11.4a1,1,0,0,1,1.06-.8,8.38,8.38,0,0,1,5.66,2.94A10.67,10.67,0,0,1,609.68,437.79Z" transform="translate(-172 -222.09)" fill="#fff"/><path d="M728.2,419.41c-.4-.19-.8-.37-1.21-.52l-.4-.15a2.19,2.19,0,0,0-1,.2q-8.52,1.85-17,3.5a195.45,195.45,0,0,1-19.44,3.09,13.09,13.09,0,0,0-3.48,1.21,1.85,1.85,0,0,0-.88,1.2q-.6,5.69-1.38,11.35c-.1.52-.19,1-.27,1.57a3.18,3.18,0,0,0,.13,1.44.72.72,0,0,0,.47.42h.37c1.48-.37,3-.66,4.48-.88a42.75,42.75,0,0,0,5.74-.66,1.38,1.38,0,0,1,1.1.38,1.28,1.28,0,0,1,.32.75,6.45,6.45,0,0,1-.19,2.15q-1.87,15.78-3.85,31.55c-.79,6.44-1.5,12.89-2.18,19.35h12.84a501.39,501.39,0,0,1,6.89-53.46,1.75,1.75,0,0,1,1-1.24,32.09,32.09,0,0,1,7.52-.18,62.88,62.88,0,0,1,7.52.1,2.48,2.48,0,0,0,1.82-2q1.11-8.27,2.07-16.55A2.61,2.61,0,0,0,728.2,419.41Z" transform="translate(-172 -222.09)" fill="#fff"/><path d="M674.38,522.23a12.36,12.36,0,0,0,11,3.95c7.19.09,13.42-6.28,14.88-15.2q1.5-8.43,2.29-17c-4.47-.31-8.45-.93-12.89-1.24-.16,4-.61,8.27-.8,12.24-.43,4.06-2.8,7.35-6,8.26a1.93,1.93,0,0,1-2.12-1.38,33.86,33.86,0,0,1-.36-10.82,9.61,9.61,0,0,0-.16-2.4,1.32,1.32,0,0,0-1-.93,25.28,25.28,0,0,0-4-.27c-.58-.08-8.77,1.08-8.23,4.63S671.57,519.32,674.38,522.23Z" transform="translate(-172 -222.09)" fill="#fff"/><path d="M546.08,481.23c0-.13-2.62-10.44-2.71-10.58-.23-.46-4.46-16.87-5.69-24.72a127.23,127.23,0,0,1-2.33-23.6,53.07,53.07,0,0,0-.78-6.42,2.25,2.25,0,0,0-2.81-1.32,58.32,58.32,0,0,1-8.24.89,1,1,0,0,0-.8.7,9.05,9.05,0,0,0-.15,1.48c-.18,1.33-.41,2.65-.71,4a1.64,1.64,0,0,0,.57,1.54,1,1,0,0,0,.68.14c.43,0,.87-.09,1.3-.15a.76.76,0,0,1,.9.89,5.87,5.87,0,0,1-.53,1.68q-2.76,11.89-5.62,23.77-5.61,20.29-11.53,40.49a2.65,2.65,0,0,0-.08,1,1.49,1.49,0,0,0,1.44,1.08c1.62-.13,3.23-.31,4.84-.53a18.27,18.27,0,0,0,3.53-.47,2.41,2.41,0,0,0,1.36-1.5q2.16-7.06,4.58-14.06c.25-.89.53-1.78.83-2.66a2.4,2.4,0,0,1,1.29-1.51,19.54,19.54,0,0,1,6.43-1.55,1.1,1.1,0,0,1,1.07.55,2.61,2.61,0,0,1,.33,1.1q.94,11.21,1.7,22.43a1,1,0,0,0,.66.77,2,2,0,0,0,1.18,0q4.92-.81,9.81-1.72a1.91,1.91,0,0,0,1.16-.76,3.45,3.45,0,0,0,.12-2.43C547.3,486.91,546.7,484.07,546.08,481.23Zm-14.27-18.46-3.13.77a2.72,2.72,0,0,1-1.47,0,.61.61,0,0,1-.48-.71l3.43-14.42.17-.54a3.1,3.1,0,0,1,.58-1.18.14.14,0,0,1,.15,0,.15.15,0,0,1,.12.11,78.19,78.19,0,0,1,1.49,14.87A1.12,1.12,0,0,1,531.81,462.77Z" transform="translate(-172 -222.09)" fill="#fff"/><path d="M760.24,483.28c0-.14-2.87-11.84-3-12-.26-.52-4.88-19.13-6.22-28a148.38,148.38,0,0,1-2.55-26.77,61,61,0,0,0-.85-7.28,2.46,2.46,0,0,0-3.08-1.51,61.86,61.86,0,0,1-9,1,1.07,1.07,0,0,0-.89.79,10.39,10.39,0,0,0-.16,1.68c-.19,1.51-.45,3-.77,4.49a1.86,1.86,0,0,0,.63,1.75,1,1,0,0,0,.73.16c.48-.05,1-.1,1.42-.17a.81.81,0,0,1,.75.23.89.89,0,0,1,.24.78,6.7,6.7,0,0,1-.58,1.91q-3,13.5-6.14,27-6.14,23-12.6,45.93a3.2,3.2,0,0,0-.09,1.15,1.62,1.62,0,0,0,1.57,1.22c1.77-.14,3.54-.34,5.29-.59a19.3,19.3,0,0,0,3.86-.54,2.65,2.65,0,0,0,1.48-1.7q2.37-8,5-15.95c.28-1,.59-2,.91-3a2.7,2.7,0,0,1,1.41-1.7,20.67,20.67,0,0,1,7-1.76,1.15,1.15,0,0,1,1.17.62,3,3,0,0,1,.36,1.25q1,12.72,1.86,25.45a1.14,1.14,0,0,0,.72.88,2.19,2.19,0,0,0,1.29,0c3.59-.62,7.16-1.26,10.73-1.95a2.07,2.07,0,0,0,1.26-.87,4.09,4.09,0,0,0,.14-2.76C761.57,489.74,760.92,486.51,760.24,483.28Zm-15.6-20.94-3.42.88a2.9,2.9,0,0,1-1.6.06.71.71,0,0,1-.53-.82l3.75-16.36.19-.6a3.52,3.52,0,0,1,.63-1.34.16.16,0,0,1,.17-.05.15.15,0,0,1,.12.13,91.67,91.67,0,0,1,1.63,16.87A1.27,1.27,0,0,1,744.64,462.34Z" transform="translate(-172 -222.09)" fill="#fff"/><path d="M794.67,405.3a4.23,4.23,0,0,0-2.17-.9,16.58,16.58,0,0,0-8.2.81,6.91,6.91,0,0,0-3.34,5.62,2.65,2.65,0,0,1-.24.72.18.18,0,0,1-.07.05.12.12,0,0,1-.08,0,1.67,1.67,0,0,1-.39-.56,7.94,7.94,0,0,0-9.76-5.13,8.7,8.7,0,0,0-3.92,15.33c1,.48,2,.95,3,1.41a3.32,3.32,0,0,0,2.64-.14l1-.4a2.8,2.8,0,0,1,.76-.17.39.39,0,0,1,.27.08l.13.3a7.29,7.29,0,0,1-.14,1.92c-.13.71-.25,1.43-.34,2.15a1.22,1.22,0,0,0,.78,1.22,1.25,1.25,0,0,0,1.41-.38,22,22,0,0,0,4.93-10,.84.84,0,0,1,.36-.59.19.19,0,0,1,.19,0,.47.47,0,0,1,.22.2,6.37,6.37,0,0,0,5.63,4.29,7.46,7.46,0,0,0,2.32-.67,1.11,1.11,0,0,1,.6-.11l.2.12a1.3,1.3,0,0,1,.25.71,6.53,6.53,0,0,1-1.27,4.74,1.67,1.67,0,0,0-.31.74,1,1,0,0,0,.46.76,1,1,0,0,0,.88.09,3.57,3.57,0,0,0,1.4-1.06,18.67,18.67,0,0,0,6.3-15A16.31,16.31,0,0,0,794.67,405.3Z" transform="translate(-172 -222.09)" fill="#1d1d1b"/><path d="M256.49,279.13a8.52,8.52,0,0,0-6.6,4.49,9.48,9.48,0,0,0,5.92,13.43,3.85,3.85,0,0,0,1.67.34l.37-.12a1,1,0,0,0,.58-.68,1,1,0,0,0-.17-.88,31.91,31.91,0,0,1-1.76-3.32,1.27,1.27,0,0,1,.4-1.5,22.44,22.44,0,0,0,4.51-4.41,6.36,6.36,0,0,0-1.47-6.62,7.37,7.37,0,0,0-3.45-.73Z" transform="translate(-172 -222.09)" fill="#1d1d1b"/><path d="M253.61,272.52a5.72,5.72,0,0,0-2-3.45,7.56,7.56,0,0,0-11.93,1.33,13.56,13.56,0,0,0,.39,16.7,13.38,13.38,0,0,0,4.88,4.24,1,1,0,0,0,1-.18,2.37,2.37,0,0,0,.51-.54,1,1,0,0,0,0-.72,5.49,5.49,0,0,0-.79-1.47,14.59,14.59,0,0,1-1.55-3.87,1.15,1.15,0,0,1,.34-1.07,22.36,22.36,0,0,1,2.92-1.69,12.09,12.09,0,0,0,6.36-7.93A2.5,2.5,0,0,0,253.61,272.52Zm-9.15-1.86a1.11,1.11,0,0,1-.28.48c-1,.95-1.91,1.91-2.84,2.89a1.4,1.4,0,0,1-.61.39.2.2,0,0,1-.19-.06.38.38,0,0,1-.07-.27,1.26,1.26,0,0,1,.26-.68,14.26,14.26,0,0,1,2.62-2.7,1.34,1.34,0,0,1,1-.24.18.18,0,0,1,.1.07A.17.17,0,0,1,244.46,270.66Z" transform="translate(-172 -222.09)" fill="#1d1d1b"/><path d="M246.65,269.28a9.37,9.37,0,0,1-1.72,2.25,13.54,13.54,0,0,1-2.07,1.28,9.8,9.8,0,0,0-1.76,1.71,8.36,8.36,0,0,0-1.28,2.27l-.28,0a7.61,7.61,0,0,1,.33-2.86,8.44,8.44,0,0,1,1.42-2.64,5.57,5.57,0,0,1,2.16-2.07,4.65,4.65,0,0,1,1.48-.36,3.48,3.48,0,0,1,1.63.2Z" transform="translate(-172 -222.09)" fill="#fff"/><path d="M256,282a13.55,13.55,0,0,1-1.18,1.2c-.35.35-.84.52-1.21.88a5.35,5.35,0,0,0-1,1.22,8.66,8.66,0,0,0-.72,1.5l-.14,0a6.56,6.56,0,0,1,.23-1.74,5.81,5.81,0,0,1,.77-1.66,3.44,3.44,0,0,1,1.31-1.34,2.54,2.54,0,0,1,1.9-.16Z" transform="translate(-172 -222.09)" fill="#fff"/><path d="M785.68,408.17a3.59,3.59,0,0,0-1.14,2.14,5.93,5.93,0,0,0,.14,2.37c.18.79.67,1.49.81,2.31a9.77,9.77,0,0,1,.21,1.28,5.35,5.35,0,0,1,0,1.45h0a.12.12,0,0,1-.13.11l-.05,0a5.3,5.3,0,0,1-2-2.1,4.38,4.38,0,0,1-.43-1.37c0-.5-.08-1-.08-1.47a6.07,6.07,0,0,1,.53-2.9,3.92,3.92,0,0,1,2-2,.1.1,0,0,1,.13.06.09.09,0,0,1,0,.11Z" transform="translate(-172 -222.09)" fill="#fff"/><path d="M766.68,411.92a6.38,6.38,0,0,0,.05,2.35,6.2,6.2,0,0,0,.79,2.05,4.16,4.16,0,0,0,.7.81,6.55,6.55,0,0,1,.67.81,11,11,0,0,1,.61,1,5.28,5.28,0,0,1,.6,1.19l-.11.17a4,4,0,0,1-2.6-.9A4.79,4.79,0,0,1,766,417a6.57,6.57,0,0,1-.31-2.7,6.15,6.15,0,0,1,.8-2.46Z" transform="translate(-172 -222.09)" fill="#fff"/><path d="M763,311.27v-1a1.06,1.06,0,0,1,.14-.58.48.48,0,0,1,.43-.17l.29.06c.34.09.67.16,1,.23a.67.67,0,0,0,.47-.15,3.86,3.86,0,0,0,.49-.5.66.66,0,0,0,.13-.52.66.66,0,0,0-.32-.44,9.21,9.21,0,0,0-1-.38l-.76-.27a1.2,1.2,0,0,1-.83-1,81,81,0,0,1-.28-11.12,2,2,0,0,1,.23-.79.72.72,0,0,1,.44-.36,19.25,19.25,0,0,1,4.22-.35,2.13,2.13,0,0,0,1.15-.8.51.51,0,0,0-.08-.67,1.23,1.23,0,0,0-.89-.29,57.25,57.25,0,0,0-6.37.84.76.76,0,0,0-.53.6,4.36,4.36,0,0,0,.05,1.25q.1,11.86.1,23.72a1.35,1.35,0,0,0,1.57,1.24l3.71-.27a2.33,2.33,0,0,0,1.57-1,.5.5,0,0,0-.1-.66,1.3,1.3,0,0,0-1.09-.36c-.94,0-1.88.06-2.82.05a.93.93,0,0,1-.68-.31.91.91,0,0,1-.23-.72c0-1.77,0-3.54,0-5.32Z" transform="translate(-172 -222.09)" fill="#fff"/><path d="M773.54,300.25a6,6,0,0,1-1.1-4.89,2,2,0,0,1,1-1.21.83.83,0,0,1,.8.13,6.72,6.72,0,0,1,1.28,1.53,1.74,1.74,0,0,0,.48.53.38.38,0,0,0,.41,0,1,1,0,0,0,.3-1.08,4.09,4.09,0,0,0-3.29-2.83,3.43,3.43,0,0,0-2.56,1.86,6.15,6.15,0,0,0,.6,6,37.79,37.79,0,0,1,4.92,9.84,6.6,6.6,0,0,1-1.41,5.79,2.53,2.53,0,0,1-4-1.27,1.36,1.36,0,0,0-1.11-.89,1.67,1.67,0,0,0-.54.07.64.64,0,0,0-.34.66,4.68,4.68,0,0,0,1.06,2.15,4.12,4.12,0,0,0,7.1-.51,9.11,9.11,0,0,0,.12-9.32,37.79,37.79,0,0,0-3.75-6.57Z" transform="translate(-172 -222.09)" fill="#fff"/><path d="M828.92,319.28a162.07,162.07,0,0,1-4.55-26.62,1.62,1.62,0,0,0-.46-.91.8.8,0,0,0-.68-.21.76.76,0,0,0-.57.43,1.83,1.83,0,0,0-.23.68q-2.43,14.13-6,28a1.23,1.23,0,0,0,.44,1,.54.54,0,0,0,.52.06,1.41,1.41,0,0,0,.72-.85q1.29-4.38,2.2-8.85a1.26,1.26,0,0,1,1.27-1l2.84.15a1.25,1.25,0,0,1,.8.52,1.7,1.7,0,0,1,.25.68c.06.35.13.69.21,1q.91,3.69,1.57,7.44a.76.76,0,0,0,.53.59.78.78,0,0,0,.54-.15A1.78,1.78,0,0,0,828.92,319.28Zm-4.27-10.67a.76.76,0,0,1-.29.5,1.53,1.53,0,0,1-.73.28,7.35,7.35,0,0,1-2.08-.28.42.42,0,0,1-.31-.27v-.6c.22-1.6.5-3.2.84-4.79a43.27,43.27,0,0,1,.95-5.65.1.1,0,0,1,.08-.06.09.09,0,0,1,.08.06q.66,4.72,1.35,9.45A4.78,4.78,0,0,1,824.65,308.61Z" transform="translate(-172 -222.09)" fill="#fff"/><path d="M805.06,304a35,35,0,0,1,0-6.47,1.08,1.08,0,0,0-.13-.84,1.09,1.09,0,0,0-.69-.48.9.9,0,0,0-1.17.67,5.62,5.62,0,0,0,0,1.16,139.86,139.86,0,0,1,.18,16.38,7.57,7.57,0,0,1-2.16,5.21,2.15,2.15,0,0,1-3.48-.9,26.72,26.72,0,0,1-.71-12c0-3.25,0-6.49,0-9.73a1.11,1.11,0,0,0-.37-.9.82.82,0,0,0-.84-.14.82.82,0,0,0-.5.68q-.35,8.89-.53,17.77a13.4,13.4,0,0,0,1.85,6.5,4.52,4.52,0,0,0,7.33-2.16,23.54,23.54,0,0,0,1.42-10.38c0-1.46-.08-2.92-.2-4.38Z" transform="translate(-172 -222.09)" fill="#fff"/><path d="M816.48,301.82q.16-5.42.45-10.8a1.05,1.05,0,0,0-.28-.8.84.84,0,0,0-1.46.44q-.56,11.71-.9,23.45a.31.31,0,0,1-.18.25.21.21,0,0,1-.25-.05,1.35,1.35,0,0,1-.31-.59q-2.46-8.1-5-16.17a1.88,1.88,0,0,0-.78-.8.64.64,0,0,0-.92.49q-.14,1.2-.15,2.4-.6,10.38-.53,20.78a2.1,2.1,0,0,0,.53,1.05.66.66,0,0,0,.64.18.66.66,0,0,0,.47-.47,3.76,3.76,0,0,0,.12-1.33q0-7.75.26-15.5l.09-.43a.08.08,0,0,1,.07,0,.12.12,0,0,1,.08,0,3.88,3.88,0,0,1,.71,1.76q2.28,7.88,4.89,15.67a1.2,1.2,0,0,0,.7.66.36.36,0,0,0,.23,0,.76.76,0,0,0,.28-.22,5.39,5.39,0,0,0,.74-3.53c0-5.47.17-11,.51-16.41Z" transform="translate(-172 -222.09)" fill="#fff"/><path d="M484.07,302.47a15,15,0,0,1-1.32-3.28,2,2,0,0,1,1.29-2.32,1.32,1.32,0,0,1,1.35.52,12.13,12.13,0,0,1,.93,2.16,1.4,1.4,0,0,0,.45.57.48.48,0,0,0,.37.07.5.5,0,0,0,.31-.22,1.1,1.1,0,0,0,.13-.93,5.27,5.27,0,0,0-3-3.8,3.43,3.43,0,0,0-3.51,5.06,55.64,55.64,0,0,1,4.57,12.57,4.44,4.44,0,0,1-2.14,5.07,3.08,3.08,0,0,1-3.49-1.3,7.71,7.71,0,0,1-.94-1.25.5.5,0,0,1,0-.13c0-.23-.05-.47-.06-.71v-.26a.47.47,0,0,0-.22-.42l-.25-.11a1.15,1.15,0,0,0-.63-.1,34.55,34.55,0,0,1-4.17.38.42.42,0,0,1-.36-.19,1.44,1.44,0,0,1-.13-.57q-.14-3.18,0-6.35a4.52,4.52,0,0,1,.11-1.16.79.79,0,0,1,.63-.56h.36a8.08,8.08,0,0,0,1.55.17,1,1,0,0,0,1-1,.64.64,0,0,0-.46-.57,1.83,1.83,0,0,0-.66-.11,5.21,5.21,0,0,1-1.87-.35.92.92,0,0,1-.55-.7,49.69,49.69,0,0,1-.15-8.09.79.79,0,0,1,.57-.61,16.94,16.94,0,0,1,5.17-.2,1.25,1.25,0,0,0,1-.69.7.7,0,0,0,0-.66.72.72,0,0,0-.57-.36A6.66,6.66,0,0,0,478,292a25.07,25.07,0,0,0-5.61.24l-.62.18a.88.88,0,0,0-.38.49,4,4,0,0,0-.09,1.39q.13,10.32,0,20.66a1.22,1.22,0,0,0,.4,1,1.2,1.2,0,0,0,1,.29,38.31,38.31,0,0,1,4.66-.47.92.92,0,0,1,.56.12.28.28,0,0,1,.08.11,1.94,1.94,0,0,1,.07.33,2.41,2.41,0,0,0,1.09,2.15,4.78,4.78,0,0,0,8.28-2.29,18.58,18.58,0,0,0-1.75-10.4c-.49-1.11-1-2.2-1.58-3.28Z" transform="translate(-172 -222.09)" fill="#fff"/><path d="M506.67,315.57q-1.79-9-3.21-18a41.5,41.5,0,0,0-.65-4.29,1.57,1.57,0,0,0-.69-.85.56.56,0,0,0-.65.1l-.12.22c-.33,1-.63,2.11-.89,3.18q-3,10.2-5.61,20.5a1.58,1.58,0,0,0,.72,1.37.51.51,0,0,0,.54,0,1.31,1.31,0,0,0,.39-.61c.82-3.36,1.68-6.73,2.58-10.08a1.07,1.07,0,0,1,1-.77c.57,0,1.14-.08,1.71-.13a1.16,1.16,0,0,1,.49.05.84.84,0,0,1,.35.21,1,1,0,0,1,.37.6l.28,1.55q.83,4.06,1.6,8.13a2.24,2.24,0,0,0,.39.69.48.48,0,0,0,.62.12,1.41,1.41,0,0,0,.79-1.91Zm-4.34-11.29-.26.13a5.41,5.41,0,0,1-1.55.26,1.17,1.17,0,0,1-.32,0,.55.55,0,0,1-.15-.08.69.69,0,0,1-.16-.72c.51-1.66,1-3.34,1.42-5a.72.72,0,0,1,.25-.36.12.12,0,0,1,.18,0,1.22,1.22,0,0,1,.24.5c.16,1.16.3,2.31.43,3.46a7.73,7.73,0,0,1,.14,1.35A.77.77,0,0,1,502.33,304.28Z" transform="translate(-172 -222.09)" fill="#fff"/><path d="M493.1,295.94a6.7,6.7,0,0,1,0-1,1,1,0,0,1,.53-.81A3,3,0,0,1,495,294c.86,0,1.71,0,2.56-.09a1.35,1.35,0,0,0,1.11-.7.66.66,0,0,0,0-.55.67.67,0,0,0-.42-.37,1.69,1.69,0,0,0-.67-.11q-6.45,0-12.88-.07a1.43,1.43,0,0,0-.88.33.64.64,0,0,0,.1.94,2.6,2.6,0,0,0,1.75.47c1.46,0,2.92,0,4.37,0a2.21,2.21,0,0,1,.76.26.81.81,0,0,1,.36.49,4.85,4.85,0,0,1,.11,1.37q0,9.26.13,18.52a1.38,1.38,0,0,0,.65,1.14.69.69,0,0,0,.75-.12,2.14,2.14,0,0,0,.63-1.55q-.29-9-.35-18Z" transform="translate(-172 -222.09)" fill="#fff"/><path d="M363.7,317.36a162.39,162.39,0,0,1-4.56-26.63,1.56,1.56,0,0,0-.46-.9.77.77,0,0,0-1.24.21,1.68,1.68,0,0,0-.24.68q-2.42,14.13-6,28a1.26,1.26,0,0,0,.44,1,.56.56,0,0,0,.53.06,1.48,1.48,0,0,0,.72-.85c.85-2.92,1.59-5.87,2.2-8.85a1.24,1.24,0,0,1,1.26-1l2.85.15a1.25,1.25,0,0,1,.8.53,1.59,1.59,0,0,1,.24.67c.06.35.13.69.21,1q.91,3.68,1.58,7.43a.75.75,0,0,0,.53.59.81.81,0,0,0,.54-.15A1.77,1.77,0,0,0,363.7,317.36Zm-4.28-10.68a.69.69,0,0,1-.29.5,1.57,1.57,0,0,1-.72.29,7.75,7.75,0,0,1-2.09-.29.39.39,0,0,1-.3-.27v-.6c.22-1.6.51-3.2.84-4.79a45,45,0,0,1,.95-5.65.11.11,0,0,1,.09-.06.09.09,0,0,1,.07.06c.44,3.15.9,6.3,1.35,9.45A4.45,4.45,0,0,1,359.42,306.68Z" transform="translate(-172 -222.09)" fill="#fff"/><path d="M346.76,319.63q.18-14.78-.24-29.54l-.13-1.33a.93.93,0,0,0-.21-.59.54.54,0,0,0-.45-.24.52.52,0,0,0-.44.25l-.13.26a6.44,6.44,0,0,0,0,2.19l0,28.47c0,.91.07,1.83.17,2.74l0,.57a1.44,1.44,0,0,0,1.26,1.34,39.41,39.41,0,0,0,8.41.15.69.69,0,0,0,.57-.69.71.71,0,0,0-.58-.69,24.2,24.2,0,0,0-2.95,0,32.19,32.19,0,0,1-4.6-.2A.72.72,0,0,1,347,322a.89.89,0,0,1-.08-.17,3,3,0,0,1-.07-.32c0-.63-.06-1.26-.07-1.89Z" transform="translate(-172 -222.09)" fill="#fff"/><path d="M899,309.61q-.25-11.76.06-23.51l.24-1.54a1,1,0,0,1,.57-.82,4.07,4.07,0,0,1,1.39-.15c1.62-.07,3.24-.19,4.86-.34a1.5,1.5,0,0,0,1.09-.94.51.51,0,0,0-.33-.63,2.81,2.81,0,0,0-1.32-.08q-6.74.45-13.49.51a1.12,1.12,0,0,0-.8.46.76.76,0,0,0,.35,1,3.25,3.25,0,0,0,2,.23c1,0,1.94-.07,2.92-.08a1,1,0,0,1,.9.89q-.55,17.16.07,34.32a17.77,17.77,0,0,1-1.65,6.75,1.24,1.24,0,0,1-.42.4.64.64,0,0,1-.76-.14,2,2,0,0,1-.6-1.07c-.1-.28-.19-.56-.28-.85a1.5,1.5,0,0,0-1.15-1.18.73.73,0,0,0-.55.14.76.76,0,0,0-.29.49A2.11,2.11,0,0,0,892,325a3.93,3.93,0,0,0,3.46,3.1,2.16,2.16,0,0,0,1.6-1,14.27,14.27,0,0,0,2.36-9.79q-.31-3.84-.39-7.69Z" transform="translate(-172 -222.09)" fill="#fff"/><path d="M876.31,326.71a1,1,0,0,0-1-.16l-.46.46a3.74,3.74,0,0,1-4,1.76,4.92,4.92,0,0,1-3.64-3,23.34,23.34,0,0,1-2.31-6.6,25.34,25.34,0,0,0-3.18-8.2.47.47,0,0,1-.05-.26.51.51,0,0,1,.1-.25c.23-.21.47-.41.71-.6a11.13,11.13,0,0,0,3.47-9.53,5.33,5.33,0,0,0-6.39-6.08,4.72,4.72,0,0,1-1.59-.09l-.28,0a.6.6,0,0,0-.57.38,6.64,6.64,0,0,0-.33,2.07q-.12,11.07.14,22.13c0,1.85,0,3.7.05,5.55a.83.83,0,0,0,.27.63.88.88,0,0,0,.64.24.77.77,0,0,0,.55-.47,6.62,6.62,0,0,0,.27-3.12c0-2.93,0-5.85-.11-8.78a4.42,4.42,0,0,1,.13-.61.58.58,0,0,1,.3-.37.58.58,0,0,1,.48,0,4,4,0,0,1,2.14,2.26q1.51,5.69,3.33,11.3a9.92,9.92,0,0,0,4,4.78,6.76,6.76,0,0,0,7.58-2.36A.93.93,0,0,0,876.31,326.71ZM859.69,309.4a1.06,1.06,0,0,1-.82-.08.89.89,0,0,1-.34-.65q-.12-5.91-.2-11.81a.81.81,0,0,1,.41-.64,3,3,0,0,1,1.73-.36,7.18,7.18,0,0,1,1.38.14,1.7,1.7,0,0,1,1.2.61,9.29,9.29,0,0,1,1.25,6.55A6.38,6.38,0,0,1,859.69,309.4Z" transform="translate(-172 -222.09)" fill="#fff"/><path d="M913.81,318.33a162.27,162.27,0,0,1-4.56-26.62,1.56,1.56,0,0,0-.46-.91.75.75,0,0,0-.68-.21.77.77,0,0,0-.56.43,1.63,1.63,0,0,0-.24.68q-2.43,14.13-6,28a1.25,1.25,0,0,0,.44,1,.51.51,0,0,0,.53.06,1.45,1.45,0,0,0,.72-.85c.85-2.91,1.59-5.87,2.19-8.85a1.25,1.25,0,0,1,1.27-1l2.84.14a1.28,1.28,0,0,1,.8.53,1.52,1.52,0,0,1,.25.68c.06.34.13.69.21,1q.92,3.69,1.58,7.43a.73.73,0,0,0,.53.6.82.82,0,0,0,.54-.16A1.79,1.79,0,0,0,913.81,318.33Zm-4.28-10.68a.74.74,0,0,1-.29.51,1.55,1.55,0,0,1-.73.28,7.72,7.72,0,0,1-2.08-.28.42.42,0,0,1-.31-.27v-.6c.22-1.61.5-3.21.84-4.79a43.27,43.27,0,0,1,.95-5.65.09.09,0,0,1,.08-.06.08.08,0,0,1,.08.06q.66,4.72,1.35,9.45A4.38,4.38,0,0,1,909.53,307.65Z" transform="translate(-172 -222.09)" fill="#fff"/><path d="M879.92,321.64q-.72-9-1.92-18-.78-7.77-1.3-15.56a1.06,1.06,0,0,0-2.1-.21,285.85,285.85,0,0,1-5.45,28.91c-.43,1.6-.89,3.19-1.36,4.77a1.36,1.36,0,0,0,.8,1.52.69.69,0,0,0,.84-.38q2.19-7.71,3.76-15.57a1,1,0,0,1,.67-.62,4.3,4.3,0,0,1,1.24,0,2.69,2.69,0,0,1,.8.08.65.65,0,0,1,.42.3,3.08,3.08,0,0,1,.29,1.23q.92,7,1.58,14.05a1.88,1.88,0,0,0,.56,1.13.47.47,0,0,0,.59,0A1.63,1.63,0,0,0,879.92,321.64Zm-4.27-17.16a1.83,1.83,0,0,1-.61.11c-.22,0-.44,0-.66,0l-.28-.05a.77.77,0,0,1-.35-.75c.51-2.31,1-4.64,1.37-7a.07.07,0,0,1,.07-.06.19.19,0,0,1,.12.07,1.62,1.62,0,0,1,.17.48q.32,3.22.55,6.45A.7.7,0,0,1,875.65,304.48Z" transform="translate(-172 -222.09)" fill="#fff"/><path d="M885.08,304a155.56,155.56,0,0,0,6.32,14.51.55.55,0,0,0,.67.21,1.66,1.66,0,0,0,.75-.9,9.66,9.66,0,0,0,.27-3.21q-.45-14.09.44-28.15a1.45,1.45,0,0,0-.34-.89.78.78,0,0,0-1.33.08,2.88,2.88,0,0,0-.09,1.09q-1,12.91-.64,25.87l-.09.52a.12.12,0,0,1-.1.08.14.14,0,0,1-.12-.06,114.42,114.42,0,0,1-6.39-16.52,1.34,1.34,0,0,0-1.11-.84.72.72,0,0,0-.69.44l-.06.3q0,11.16-.5,22.31a1.34,1.34,0,0,0,.75,1.08.45.45,0,0,0,.45,0l.16-.19a4.2,4.2,0,0,0,.5-1.86q.42-7.09.37-14.19a.27.27,0,0,1,.24-.22.45.45,0,0,1,.37.2l.17.37Z" transform="translate(-172 -222.09)" fill="#fff"/><path d="M857.34,290.88l-.26-.14a1.21,1.21,0,0,0-.64-.18q-4-.3-7.92-.23a.89.89,0,0,0-.87.86q-.3,13.76.05,27.51a1.71,1.71,0,0,0,.36.74.57.57,0,0,0,.42.21.6.6,0,0,0,.44-.19,1.25,1.25,0,0,0,.33-.62c.1-2.33.09-4.66,0-7s0-4.68,0-7a1,1,0,0,1,.51-.83,2.44,2.44,0,0,1,.89-.1h.73a2.62,2.62,0,0,1,.57-.06,3.58,3.58,0,0,1,.48,0h.28a7.49,7.49,0,0,0,1.16,0,1,1,0,0,0,.71-.44,1,1,0,0,0,.13-.83.76.76,0,0,0-.62-.41,16,16,0,0,0-2.4,0c-.5,0-1,0-1.51,0a1,1,0,0,1-.91-.91q0-4.16.24-8.3a.92.92,0,0,1,.8-.81,50.76,50.76,0,0,1,6.29.12.83.83,0,0,0,.74-.46,2,2,0,0,0,.17-.32.49.49,0,0,0,0-.2A.55.55,0,0,0,857.34,290.88Z" transform="translate(-172 -222.09)" fill="#fff"/><path d="M630.86,319.65A162.25,162.25,0,0,1,626.31,293a1.62,1.62,0,0,0-.46-.91.78.78,0,0,0-.68-.22.81.81,0,0,0-.57.43,2,2,0,0,0-.24.69q-2.42,14.12-6,28a1.18,1.18,0,0,0,.44,1,.51.51,0,0,0,.52.06,1.38,1.38,0,0,0,.72-.85q1.29-4.38,2.2-8.85a1.24,1.24,0,0,1,1.27-1l2.84.14a1.3,1.3,0,0,1,.8.53,1.6,1.6,0,0,1,.25.67c.06.35.13.7.21,1q.92,3.69,1.57,7.43a.76.76,0,0,0,.53.6.79.79,0,0,0,.54-.16A1.77,1.77,0,0,0,630.86,319.65ZM626.59,309a.8.8,0,0,1-.29.51,1.64,1.64,0,0,1-.73.28,7.67,7.67,0,0,1-2.08-.28.44.44,0,0,1-.31-.27v-.6c.22-1.61.5-3.21.84-4.79a43.41,43.41,0,0,1,1-5.66.09.09,0,0,1,.16,0q.66,4.74,1.35,9.46A4.71,4.71,0,0,1,626.59,309Z" transform="translate(-172 -222.09)" fill="#fff"/><path d="M657.76,316.8q-1.78-9-3.21-18a40.91,40.91,0,0,0-.65-4.28,1.63,1.63,0,0,0-.69-.86.6.6,0,0,0-.65.1l-.12.22c-.33,1.06-.63,2.12-.89,3.19q-3,10.19-5.61,20.49a1.58,1.58,0,0,0,.72,1.38.55.55,0,0,0,.54-.05,1.42,1.42,0,0,0,.39-.61q1.24-5.05,2.58-10.08a1.06,1.06,0,0,1,1-.77c.58,0,1.15-.08,1.72-.14a1.29,1.29,0,0,1,.48.06.73.73,0,0,1,.35.21,1,1,0,0,1,.37.59l.28,1.56c.55,2.71,1.09,5.41,1.61,8.13a2.13,2.13,0,0,0,.38.69.47.47,0,0,0,.62.11,1.38,1.38,0,0,0,.79-1.9Zm-4.34-11.29-.25.13a5.92,5.92,0,0,1-1.56.26,1.65,1.65,0,0,1-.31,0,.38.38,0,0,1-.15-.09.67.67,0,0,1-.17-.71q.78-2.49,1.42-5a.83.83,0,0,1,.26-.36.12.12,0,0,1,.17,0,1.26,1.26,0,0,1,.24.51c.16,1.15.31,2.3.43,3.46a7.63,7.63,0,0,1,.14,1.35A.68.68,0,0,1,653.42,305.51Z" transform="translate(-172 -222.09)" fill="#fff"/><path d="M610.25,312.09a120.63,120.63,0,0,1,1.16-16.45,5.3,5.3,0,0,1,2.12-3.88,1,1,0,0,1,1.41.33,5.08,5.08,0,0,1,.77,2.12,2.42,2.42,0,0,0,.23.58.61.61,0,0,0,.48.27.62.62,0,0,0,.51-.19,2,2,0,0,0,.23-2.05,3.46,3.46,0,0,0-6.75-.44,33.69,33.69,0,0,0-1.93,11.51,65,65,0,0,0,.08,13.66,4.39,4.39,0,0,0,5.3,4.17,4.24,4.24,0,0,0,2.39-2,.83.83,0,0,0-.09-1,.84.84,0,0,0-.94-.24l-.52.45a2.4,2.4,0,0,1-2.37,1,1.62,1.62,0,0,1-1.25-.91,17.42,17.42,0,0,1-.83-7Z" transform="translate(-172 -222.09)" fill="#fff"/><path d="M645.9,304.11a15.42,15.42,0,0,0-5.59-9.92,16.49,16.49,0,0,0-6.2-2.4,1.87,1.87,0,0,0-.62.1.86.86,0,0,0-.41.47,3.18,3.18,0,0,0-.16,1.4q.36,12.57.46,25.15a2,2,0,0,0,.4,1.15.75.75,0,0,0,.47.23,5.78,5.78,0,0,0,2.39-.52,13.87,13.87,0,0,0,8.92-10.71A17.89,17.89,0,0,0,645.9,304.11Zm-8.8,13.68a3,3,0,0,1-1.29.36.52.52,0,0,1-.45-.26,1.92,1.92,0,0,1-.22-.74q.32-11.13-.46-22.26a2.62,2.62,0,0,1,.16-.92.53.53,0,0,1,.6-.26,10.47,10.47,0,0,1,8,7.79,13.9,13.9,0,0,1,.57,2.71A13.23,13.23,0,0,1,637.1,317.79Z" transform="translate(-172 -222.09)" fill="#fff"/><path d="M312.53,325.4a1.12,1.12,0,0,0-1.21-.19l-.53.55a4.37,4.37,0,0,1-4.64,2,5.71,5.71,0,0,1-4.24-3.49,26.92,26.92,0,0,1-2.68-7.67,29.77,29.77,0,0,0-3.7-9.54.5.5,0,0,1-.06-.31.5.5,0,0,1,.12-.29l.82-.7a12.94,12.94,0,0,0,4-11.08,6.19,6.19,0,0,0-7.42-7.07,5.54,5.54,0,0,1-1.86-.1l-.33-.05a.68.68,0,0,0-.66.44,7.88,7.88,0,0,0-.38,2.41q-.14,12.87.17,25.74-.07,3.23.05,6.45a1,1,0,0,0,1.06,1,.86.86,0,0,0,.63-.55,7.59,7.59,0,0,0,.32-3.63q.08-5.1-.12-10.2a5.57,5.57,0,0,1,.14-.71A.73.73,0,0,1,293,308a4.57,4.57,0,0,1,2.49,2.63q1.77,6.63,3.88,13.16a11.54,11.54,0,0,0,4.68,5.55,7.88,7.88,0,0,0,8.82-2.74A1.11,1.11,0,0,0,312.53,325.4Zm-19.34-20.14a1.17,1.17,0,0,1-.95-.09,1,1,0,0,1-.39-.75q-.14-6.87-.24-13.74a.94.94,0,0,1,.49-.74,3.41,3.41,0,0,1,2-.42,8.7,8.7,0,0,1,1.61.16,1.93,1.93,0,0,1,1.39.71,10.83,10.83,0,0,1,1.46,7.62A7.4,7.4,0,0,1,293.19,305.26Z" transform="translate(-172 -222.09)" fill="#fff"/><path d="M317.26,318.15A127.2,127.2,0,0,1,314.91,303a12,12,0,0,1,.09-1.89l0-.33-.44-1.15a98.77,98.77,0,0,0-3-16.09,1.8,1.8,0,0,0-1-.84.74.74,0,0,0-.88.41,2.1,2.1,0,0,0-.21.79q-2.19,12.27-4.34,24.56a93.78,93.78,0,0,0-1.83,10.26,1.35,1.35,0,0,0,.25.89.74.74,0,0,0,.64.25.75.75,0,0,0,.58-.39,2.73,2.73,0,0,0,.38-1.21q1.15-7.35,2.77-14.61l.24-.66.25-.22a2.64,2.64,0,0,1,1.38-.56,11.34,11.34,0,0,1,2.33-.1.87.87,0,0,1,.68.43,16.28,16.28,0,0,1,.61,4.29,105.58,105.58,0,0,1,1.92,12.24,2.18,2.18,0,0,0,.25.59.73.73,0,0,0,1.07.07A1.68,1.68,0,0,0,317.26,318.15Zm-4.77-18.22a.52.52,0,0,1-.2.3,1.21,1.21,0,0,1-.55.22c-.5,0-1,.05-1.49.09s-.87.09-1.32.1a.41.41,0,0,1-.39-.22.89.89,0,0,1-.06-.51q.86-4.2,1.47-8.44c0-.35.08-.7.11-1.05a5.75,5.75,0,0,1,.14-1.3.37.37,0,0,1,.29-.27.19.19,0,0,1,.16,0,.39.39,0,0,1,.14.17c.68,3.32,1.24,6.67,1.66,10A2.17,2.17,0,0,1,312.49,299.93Z" transform="translate(-172 -222.09)" fill="#fff"/><path d="M325.07,300.9a14.37,14.37,0,0,1-4.05-8.85,1.57,1.57,0,0,1,.77-1.36l.33-.07a2.45,2.45,0,0,1,1.57.86c.59.64,1.17,1.28,1.74,1.93a1.51,1.51,0,0,0,.71.42.6.6,0,0,0,.7-.32,1.67,1.67,0,0,0,.05-.63,6,6,0,0,0-6.44-4.37,1.88,1.88,0,0,0-1.12,1,8.7,8.7,0,0,0,1.5,9.35,32.42,32.42,0,0,1,6.93,13.55,13.62,13.62,0,0,1-3.15,9.3,2.29,2.29,0,0,1-2.88-.21l-2-1.78a1.93,1.93,0,0,0-.9-.36.71.71,0,0,0-.74.46,1.44,1.44,0,0,0,.31,1.47,9.14,9.14,0,0,0,5.14,3.18,4.58,4.58,0,0,0,3.77-2.27,15.5,15.5,0,0,0,.12-17.47,21.62,21.62,0,0,0-2.34-3.85Z" transform="translate(-172 -222.09)" fill="#fff"/><path d="M284.85,301.31a119.86,119.86,0,0,1,.27-16.08,2.1,2.1,0,0,1,.22-.59.86.86,0,0,1,.5-.29,3.45,3.45,0,0,1,1.36,0c2.8,0,5.6.06,8.4.16a.82.82,0,0,0,.56-.22,5.36,5.36,0,0,0,.71-.72.49.49,0,0,0,.11-.42.63.63,0,0,0-.37-.31,6.74,6.74,0,0,0-2.32-.22q-8.22,0-16.43-.4l-4.92.15a.74.74,0,0,0-.52.27.59.59,0,0,0-.14.58.58.58,0,0,0,.43.41,9.65,9.65,0,0,0,3.51.2c2,0,3.93.12,5.89.27a.87.87,0,0,1,.78.51A3.57,3.57,0,0,1,283,286q-.37,10.11-.16,20.24c-.3,4.38-.51,8.75-.63,13.14a2,2,0,0,0,.41,1.18.58.58,0,0,0,.71.11,1.75,1.75,0,0,0,.84-1.34l.69-18Z" transform="translate(-172 -222.09)" fill="#fff"/><path d="M418.23,318.6q-1.51-9.25-3.57-18.4a67,67,0,0,1-1.45-7A1.48,1.48,0,0,0,412,292.1a1,1,0,0,0-.88.74q-1.89,9.48-4.13,18.89a32.11,32.11,0,0,0-1.54,5.85,1.18,1.18,0,0,0,.18.82.59.59,0,0,0,.42.27.63.63,0,0,0,.48-.15,3.31,3.31,0,0,0,1-1.92l2.44-8.45a1.83,1.83,0,0,1,1.28-1,8.2,8.2,0,0,1,2-.33,1,1,0,0,1,.8.36,3.61,3.61,0,0,1,.37,1.29q.86,5.37,1.95,10.69a1.31,1.31,0,0,0,.42.57.62.62,0,0,0,.75,0,4.7,4.7,0,0,0,.44-.34A.85.85,0,0,0,418.23,318.6Zm-5-14a.51.51,0,0,1-.15.21,1,1,0,0,1-.31.19,2.73,2.73,0,0,1-1,.21,2.3,2.3,0,0,1-.78.07.4.4,0,0,1-.21-.12.57.57,0,0,1-.13-.27l.06-.93c.32-1.51.66-3,1-4.53a1.06,1.06,0,0,1,.29-.54.23.23,0,0,1,.18-.08.19.19,0,0,1,.16.09l.22.54.79,4.44A1.27,1.27,0,0,1,413.24,304.61Z" transform="translate(-172 -222.09)" fill="#fff"/><path d="M449.88,318.54a.83.83,0,0,0-.9-.14l-.4.41a3.26,3.26,0,0,1-3.47,1.53,4.31,4.31,0,0,1-3.17-2.62,20.13,20.13,0,0,1-2-5.73,22.09,22.09,0,0,0-2.77-7.13.37.37,0,0,1,0-.23.43.43,0,0,1,.09-.22l.61-.52a9.68,9.68,0,0,0,3-8.28,4.63,4.63,0,0,0-5.55-5.29,4,4,0,0,1-1.39-.08l-.25,0a.51.51,0,0,0-.49.33,5.51,5.51,0,0,0-.28,1.8q-.12,9.62.12,19.24c0,1.61,0,3.22,0,4.82a.75.75,0,0,0,.23.55.73.73,0,0,0,.56.21.66.66,0,0,0,.48-.41,5.79,5.79,0,0,0,.23-2.71c0-2.55,0-5.09-.09-7.63a3.12,3.12,0,0,1,.11-.53.54.54,0,0,1,.26-.33.61.61,0,0,1,.42,0,3.49,3.49,0,0,1,1.86,2q1.32,5,2.9,9.83a8.56,8.56,0,0,0,3.5,4.15,5.86,5.86,0,0,0,6.59-2.05A.81.81,0,0,0,449.88,318.54Zm-14.45-15.05a.88.88,0,0,1-.71-.07.74.74,0,0,1-.3-.57q-.09-5.13-.17-10.26a.69.69,0,0,1,.36-.56,2.6,2.6,0,0,1,1.5-.31,6.11,6.11,0,0,1,1.2.12,1.45,1.45,0,0,1,1,.53,8.06,8.06,0,0,1,1.09,5.69A5.54,5.54,0,0,1,435.43,303.49Z" transform="translate(-172 -222.09)" fill="#fff"/><path d="M399.07,318.64A162.09,162.09,0,0,1,394.51,292a1.56,1.56,0,0,0-.46-.9.78.78,0,0,0-.68-.22.77.77,0,0,0-.56.43,1.68,1.68,0,0,0-.24.68q-2.43,14.13-6,28a1.26,1.26,0,0,0,.44,1,.55.55,0,0,0,.53.06,1.48,1.48,0,0,0,.72-.85c.85-2.92,1.59-5.87,2.19-8.85a1.26,1.26,0,0,1,1.27-1l2.84.15a1.2,1.2,0,0,1,.8.53,1.48,1.48,0,0,1,.25.67c.06.35.13.69.21,1q.92,3.69,1.58,7.44a.73.73,0,0,0,.53.59.81.81,0,0,0,.54-.15A1.8,1.8,0,0,0,399.07,318.64ZM394.79,308a.72.72,0,0,1-.29.5,1.45,1.45,0,0,1-.73.28,7.35,7.35,0,0,1-2.08-.28.42.42,0,0,1-.31-.27v-.6c.22-1.6.5-3.2.84-4.79a43.27,43.27,0,0,1,.95-5.65s.05-.06.08-.06a.09.09,0,0,1,.08.06q.66,4.72,1.35,9.45A4.45,4.45,0,0,1,394.79,308Z" transform="translate(-172 -222.09)" fill="#fff"/><path d="M388.72,291.87a7,7,0,0,0-7.28-4.28,6,6,0,0,1-1.84-.22l-.35-.06a.78.78,0,0,0-.53.21l-.45.5a17.79,17.79,0,0,1-2.26,1.46,11.33,11.33,0,0,0-1.66,1.26,1.16,1.16,0,0,0-.37.82.63.63,0,0,0,.88.54,4.92,4.92,0,0,0,1.17-.74,16.67,16.67,0,0,1,1.81-1.13.62.62,0,0,1,.48-.06.5.5,0,0,1,.27.35,6.2,6.2,0,0,1,.12,1.36q.29,12,.82,24.07c.05,2.64.23,5.27.51,7.89a.91.91,0,0,0,.93.84,1,1,0,0,0,.69-.64,2,2,0,0,0,.2-.94q-.39-7.07-.53-14.14a.73.73,0,0,1,.43-.69,2.33,2.33,0,0,1,.83-.09c.35,0,.69-.06,1-.11a6,6,0,0,0,4.71-4.15A18.25,18.25,0,0,0,388.72,291.87Zm-2.23,12a3.58,3.58,0,0,1-4.37,2.4,1,1,0,0,1-.81-.46,2.64,2.64,0,0,1-.15-.6q-.11-7.44-.51-14.86a.91.91,0,0,1,.55-.8,4.43,4.43,0,0,1,3,.24,7.92,7.92,0,0,1,2.57,2.61A14.86,14.86,0,0,1,386.49,303.87Z" transform="translate(-172 -222.09)" fill="#fff"/><path d="M453.48,320.15q-1.22-7.92-2.84-15.76-1.17-6.78-2.12-13.61a.94.94,0,0,0-1.87,0,248.25,248.25,0,0,1-3,25.79c-.27,1.43-.57,2.85-.89,4.28a1.21,1.21,0,0,0,.8,1.29.63.63,0,0,0,.72-.39q1.44-6.93,2.32-13.94a.84.84,0,0,1,.55-.59,4,4,0,0,1,1.09-.12,2.12,2.12,0,0,1,.71,0,.63.63,0,0,1,.39.23,2.84,2.84,0,0,1,.33,1.07q1.24,6.11,2.27,12.26a1.76,1.76,0,0,0,.57,1,.42.42,0,0,0,.52-.07A1.46,1.46,0,0,0,453.48,320.15Zm-4.85-14.83a2,2,0,0,1-.53.13l-.58.08-.25,0a.67.67,0,0,1-.35-.64c.29-2.07.55-4.14.76-6.22a.06.06,0,0,1,.06-.05.12.12,0,0,1,.1.05,1.18,1.18,0,0,1,.19.41q.48,2.82.89,5.64A.66.66,0,0,1,448.63,305.32Z" transform="translate(-172 -222.09)" fill="#fff"/><path d="M402.8,319.63q.19-14.78-.24-29.54l-.12-1.33a1.06,1.06,0,0,0-.21-.59.54.54,0,0,0-.9,0l-.13.26a6.44,6.44,0,0,0,0,2.19l0,28.47c0,.91.07,1.83.17,2.74l0,.57a1.44,1.44,0,0,0,1.26,1.34,39.41,39.41,0,0,0,8.41.15.7.7,0,0,0,.57-.69.72.72,0,0,0-.59-.69,24,24,0,0,0-2.94,0,32.27,32.27,0,0,1-4.61-.2A.72.72,0,0,1,403,322a.87.87,0,0,1-.07-.17,3,3,0,0,1-.08-.32c0-.63-.05-1.26-.07-1.89Z" transform="translate(-172 -222.09)" fill="#fff"/><path d="M427.71,294.66a5.65,5.65,0,0,0-5.84-3.44,4.92,4.92,0,0,1-1.48-.17l-.28-.05a.63.63,0,0,0-.43.17l-.36.4a14.34,14.34,0,0,1-1.81,1.17,8.25,8.25,0,0,0-1.34,1,.92.92,0,0,0-.29.66.52.52,0,0,0,.24.4.47.47,0,0,0,.46,0,3.82,3.82,0,0,0,.94-.59,12.06,12.06,0,0,1,1.45-.9.45.45,0,0,1,.39-.05.37.37,0,0,1,.22.28,5,5,0,0,1,.09,1.09q.22,9.66.66,19.32c.05,2.11.18,4.23.41,6.33a.73.73,0,0,0,.74.67.78.78,0,0,0,.56-.51,1.49,1.49,0,0,0,.16-.75c-.21-3.78-.35-7.57-.42-11.35a.58.58,0,0,1,.34-.56,1.89,1.89,0,0,1,.67-.07c.28,0,.56-.05.83-.09a4.79,4.79,0,0,0,3.79-3.33A14.72,14.72,0,0,0,427.71,294.66Zm-1.79,9.63a2.86,2.86,0,0,1-3.51,1.92.82.82,0,0,1-.65-.36,2.07,2.07,0,0,1-.12-.49q-.08-6-.41-11.92a.72.72,0,0,1,.44-.64,3.54,3.54,0,0,1,2.4.19,6.43,6.43,0,0,1,2.06,2.09A12,12,0,0,1,425.92,304.29Z" transform="translate(-172 -222.09)" fill="#fff"/><path d="M419.9,320.84c4-.35,8.63-1.27,9.52-5.83.66-3.43.5-8.56-3.55-9.69a.82.82,0,0,0-.43,1.58c3.06.85,3.09,6,2.22,8.5-1.1,3.17-5,3.56-7.76,3.81-1,.09-1,1.73,0,1.63Z" transform="translate(-172 -222.09)" fill="#fff"/><path d="M431.45,307.59l3-1.78a.82.82,0,0,0-.82-1.41l-3,1.78a.82.82,0,0,0,.82,1.41Z" transform="translate(-172 -222.09)" fill="#fff"/><path d="M571.68,317.75q-1.53-9.25-3.58-18.4a67,67,0,0,1-1.45-7,1.46,1.46,0,0,0-1.21-1.1,1,1,0,0,0-.88.75q-1.89,9.48-4.13,18.89a32.94,32.94,0,0,0-1.54,5.85,1.18,1.18,0,0,0,.19.82.56.56,0,0,0,.42.26.55.55,0,0,0,.47-.15,3.2,3.2,0,0,0,1-1.91l2.44-8.45a1.8,1.8,0,0,1,1.29-1,7.59,7.59,0,0,1,2-.33.92.92,0,0,1,.8.36,3.56,3.56,0,0,1,.37,1.28q.85,5.37,1.95,10.7a1.39,1.39,0,0,0,.42.57.65.65,0,0,0,.76,0,4.58,4.58,0,0,0,.43-.34A.88.88,0,0,0,571.68,317.75Zm-5-14a.6.6,0,0,1-.16.22,1.23,1.23,0,0,1-.31.19,3.12,3.12,0,0,1-1.05.21,2,2,0,0,1-.78.06.38.38,0,0,1-.21-.12.5.5,0,0,1-.13-.26l.06-.94c.33-1.5.66-3,1-4.52a1.05,1.05,0,0,1,.29-.55.24.24,0,0,1,.18-.07.21.21,0,0,1,.17.08l.21.55.79,4.43A1.26,1.26,0,0,1,566.69,303.75Z" transform="translate(-172 -222.09)" fill="#fff"/><path d="M526,312.47c0-2,0-3.92.07-5.88a1.42,1.42,0,0,1,1.83-1.11c.24,0,.49.1.73.17a.9.9,0,1,0,.69-1.63c-.91-.17-1.82-.33-2.73-.47a.68.68,0,0,1-.51-.46A4.5,4.5,0,0,1,526,302q0-3.09.24-6.17a.74.74,0,0,1,.55-.59,5.65,5.65,0,0,1,1.16,0c.48,0,1,0,1.43-.05a1.42,1.42,0,0,0,1.15-.71.5.5,0,0,0,0-.4.52.52,0,0,0-.28-.3,1.89,1.89,0,0,0-.81-.19q-2.07-.17-4.14-.3a1.13,1.13,0,0,0-1,1.29q.15,12.18-.18,24.37a1.58,1.58,0,0,0,1.65,1.65,34.28,34.28,0,0,0,4.18-.13,1.17,1.17,0,0,0,1.07-1.08.51.51,0,0,0-.22-.39l-.24-.1a5.22,5.22,0,0,0-2.12,0c-.62,0-1.23,0-1.85.06a.65.65,0,0,1-.49-.19.67.67,0,0,1-.17-.5c.07-1.9.09-3.81.09-5.72Z" transform="translate(-172 -222.09)" fill="#fff"/><path d="M586.74,304.77a10.27,10.27,0,0,1-2.15-8.15,2.11,2.11,0,0,1,1-1.28.91.91,0,0,1,.94.08,2.5,2.5,0,0,1,1,1.11c.16.27.31.54.46.81a1.24,1.24,0,0,0,.43.45.47.47,0,0,0,.35,0,.44.44,0,0,0,.27-.23,1,1,0,0,0,.09-.63,4.19,4.19,0,0,0-3.19-3.58,4,4,0,0,0-2.75,1.69,4,4,0,0,0-.62,3.16,14.68,14.68,0,0,0,3.23,8.2,15.07,15.07,0,0,1,2.06,7.66,6.15,6.15,0,0,1-6.29,3.93,5.15,5.15,0,0,1-3.87-2.64,2.58,2.58,0,0,0-.83-.78.63.63,0,0,0-.66,0,.6.6,0,0,0-.28.59,2.07,2.07,0,0,0,.47,1.14,7.22,7.22,0,0,0,13.14-1.69,16.05,16.05,0,0,0-2.75-9.9Z" transform="translate(-172 -222.09)" fill="#fff"/><path d="M581.18,302.67a19.61,19.61,0,0,0-2-8.2,3.16,3.16,0,0,0-1.58-1.79,4.56,4.56,0,0,0-5.47,3.38,16.5,16.5,0,0,0,.63,13.56,3.45,3.45,0,0,0,5.53.4A8,8,0,0,0,581.18,302.67ZM576.85,309a2,2,0,0,1-2.87-.67,14,14,0,0,1,1-13.27l.37-.4a1.2,1.2,0,0,1,1.25-.37,3.1,3.1,0,0,1,1.13.83,15.44,15.44,0,0,1,1.73,7.51A6.74,6.74,0,0,1,576.85,309Z" transform="translate(-172 -222.09)" fill="#fff"/><path d="M555.66,310.44a80.48,80.48,0,0,1,.59-15.36,4.18,4.18,0,0,1,4.72-3.54,2.25,2.25,0,0,0,.63-.11.65.65,0,0,0,.41-.61.38.38,0,0,0-.25-.31,4.91,4.91,0,0,0-4.42,0,5,5,0,0,0-2.68,3.53,39.34,39.34,0,0,0-.87,10.38,56.89,56.89,0,0,0,1.26,14.78,3.73,3.73,0,0,0,7.24,0,.55.55,0,0,0-.22-.52.56.56,0,0,0-.56-.07,1.31,1.31,0,0,0-.58.34c-.31.35-.63.69-1,1a1.88,1.88,0,0,1-1.56.27,1.94,1.94,0,0,1-1.22-1,17.67,17.67,0,0,1-1.4-6.57c-.06-.72-.11-1.45-.13-2.18Z" transform="translate(-172 -222.09)" fill="#fff"/><path d="M532.26,294.88c-.1,7-.89,14.55-.07,21.49.46,3.84,4.37,2.42,7.74,2.49a.82.82,0,0,0,0-1.63c-2.15-.05-5,.73-6.11-1.72-.7-1.56,0-5.14,0-6.87q0-6.88.1-13.76a.82.82,0,0,0-1.63,0Z" transform="translate(-172 -222.09)" fill="#fff"/><path d="M713.15,317.31q-1.53-9.26-3.58-18.4a67,67,0,0,1-1.44-7,1.49,1.49,0,0,0-1.22-1.1,1,1,0,0,0-.88.75q-1.87,9.48-4.13,18.89a32.72,32.72,0,0,0-1.54,5.85,1.18,1.18,0,0,0,.19.82.56.56,0,0,0,.42.26.58.58,0,0,0,.47-.15,3.2,3.2,0,0,0,1-1.91l2.44-8.45a1.82,1.82,0,0,1,1.29-1,7.73,7.73,0,0,1,2-.33.92.92,0,0,1,.8.36,3.37,3.37,0,0,1,.37,1.28q.86,5.37,2,10.7a1.39,1.39,0,0,0,.42.57.65.65,0,0,0,.76,0,5,5,0,0,0,.43-.34A.89.89,0,0,0,713.15,317.31Zm-5-14a.71.71,0,0,1-.15.22,1.29,1.29,0,0,1-.32.19,3.12,3.12,0,0,1-1.05.21,2,2,0,0,1-.78.06.38.38,0,0,1-.21-.12.58.58,0,0,1-.13-.26l.06-.94c.33-1.5.66-3,1-4.52a1.05,1.05,0,0,1,.29-.55.26.26,0,0,1,.18-.07.21.21,0,0,1,.17.08l.21.55.79,4.43A1.27,1.27,0,0,1,708.16,303.31Z" transform="translate(-172 -222.09)" fill="#fff"/><path d="M744.8,319a.81.81,0,0,0-.9-.14l-.41.4a3.23,3.23,0,0,1-3.46,1.53,4.26,4.26,0,0,1-3.17-2.61,20.15,20.15,0,0,1-2-5.73,22,22,0,0,0-2.76-7.13.42.42,0,0,1-.05-.24.4.4,0,0,1,.09-.21l.61-.52a9.67,9.67,0,0,0,3-8.29,4.64,4.64,0,0,0-5.55-5.29,4.07,4.07,0,0,1-1.39-.07l-.24,0a.54.54,0,0,0-.5.33,5.79,5.79,0,0,0-.28,1.8q-.1,9.63.12,19.24c0,1.61,0,3.22,0,4.83a.81.81,0,0,0,.23.55.78.78,0,0,0,.56.21.68.68,0,0,0,.48-.42,5.79,5.79,0,0,0,.24-2.71c0-2.54,0-5.09-.1-7.63a5,5,0,0,1,.11-.53.53.53,0,0,1,.27-.32.49.49,0,0,1,.41,0,3.39,3.39,0,0,1,1.86,2q1.34,4.95,2.9,9.84a8.66,8.66,0,0,0,3.5,4.15,5.88,5.88,0,0,0,6.59-2.05A.8.8,0,0,0,744.8,319Zm-14.46-15.06a.88.88,0,0,1-.71-.06.8.8,0,0,1-.29-.57c-.07-3.42-.13-6.85-.18-10.27a.74.74,0,0,1,.36-.56,2.61,2.61,0,0,1,1.5-.31,8.13,8.13,0,0,1,1.21.12,1.47,1.47,0,0,1,1,.53,8.09,8.09,0,0,1,1.1,5.7A5.55,5.55,0,0,1,730.34,303.92Z" transform="translate(-172 -222.09)" fill="#fff"/><path d="M694,319.2a162.09,162.09,0,0,1-4.56-26.62,1.67,1.67,0,0,0-.45-.91.8.8,0,0,0-.68-.21.76.76,0,0,0-.57.43,1.85,1.85,0,0,0-.24.68q-2.41,14.13-6,28a1.2,1.2,0,0,0,.44,1,.54.54,0,0,0,.52.06,1.41,1.41,0,0,0,.72-.85q1.29-4.38,2.2-8.85a1.24,1.24,0,0,1,1.27-1l2.84.14a1.33,1.33,0,0,1,.8.53,1.7,1.7,0,0,1,.25.68,9,9,0,0,0,.21,1q.91,3.69,1.57,7.44a.76.76,0,0,0,.53.59.8.8,0,0,0,.54-.15A1.79,1.79,0,0,0,694,319.2Zm-4.28-10.67a.71.71,0,0,1-.28.5,1.64,1.64,0,0,1-.73.28,7.25,7.25,0,0,1-2.08-.28.41.41,0,0,1-.31-.27v-.6c.22-1.6.5-3.2.84-4.79a43.27,43.27,0,0,1,1-5.65.08.08,0,0,1,.08-.06.09.09,0,0,1,.07.06q.68,4.72,1.36,9.45A4.44,4.44,0,0,1,689.7,308.53Z" transform="translate(-172 -222.09)" fill="#fff"/><path d="M721.37,294.31a5.06,5.06,0,0,0-5.23-3.07,4.22,4.22,0,0,1-1.32-.15l-.25,0a.61.61,0,0,0-.38.15l-.32.36a12.47,12.47,0,0,1-1.62,1.05,7,7,0,0,0-1.19.9.84.84,0,0,0-.27.59.45.45,0,0,0,.22.36.43.43,0,0,0,.41,0,3.62,3.62,0,0,0,.84-.53,11.72,11.72,0,0,1,1.3-.81.43.43,0,0,1,.35,0,.33.33,0,0,1,.19.25,3.51,3.51,0,0,1,.08,1q.21,8.64.59,17.27c0,1.89.17,3.78.37,5.66a.65.65,0,0,0,.66.6.69.69,0,0,0,.5-.45,1.46,1.46,0,0,0,.14-.68c-.18-3.38-.31-6.76-.37-10.14a.51.51,0,0,1,.3-.5,1.76,1.76,0,0,1,.6-.07c.25,0,.5,0,.74-.07a4.28,4.28,0,0,0,3.39-3A13.16,13.16,0,0,0,721.37,294.31Zm-1.6,8.61a2.57,2.57,0,0,1-3.14,1.72.73.73,0,0,1-.58-.33,2.09,2.09,0,0,1-.11-.43c-.05-3.55-.17-7.11-.36-10.66a.65.65,0,0,1,.39-.57,3.22,3.22,0,0,1,2.14.17,5.61,5.61,0,0,1,1.85,1.87A10.72,10.72,0,0,1,719.77,302.92Z" transform="translate(-172 -222.09)" fill="#fff"/><path d="M748.4,316.54q-1.14-7-2.7-13.94-1.12-6-2-12a.87.87,0,0,0-.9-.79.91.91,0,0,0-1,.76,199.42,199.42,0,0,1-3.17,22.88c-.29,1.27-.6,2.53-.93,3.8a1,1,0,0,0,.79,1.13.61.61,0,0,0,.71-.35q1.5-6.14,2.44-12.37a.83.83,0,0,1,.56-.53,4.36,4.36,0,0,1,1.08-.11,2.41,2.41,0,0,1,.71,0,.59.59,0,0,1,.39.2,2.15,2.15,0,0,1,.32.94q1.2,5.42,2.18,10.85a1.43,1.43,0,0,0,.56.85.45.45,0,0,0,.52-.07A1.21,1.21,0,0,0,748.4,316.54Zm-4.72-13.1a1.63,1.63,0,0,1-.53.12,5.73,5.73,0,0,1-.58.07l-.25,0a.58.58,0,0,1-.35-.56q.48-2.76.81-5.52a.08.08,0,0,1,.07,0,.12.12,0,0,1,.1,0,.82.82,0,0,1,.18.36c.31,1.66.59,3.33.85,5A.57.57,0,0,1,743.68,303.44Z" transform="translate(-172 -222.09)" fill="#fff"/><path d="M714.82,318.32c4-.35,8.63-1.28,9.51-5.84.67-3.43.5-8.56-3.54-9.68a.82.82,0,0,0-.44,1.57c3.07.85,3.09,6,2.23,8.51-1.11,3.16-5,3.56-7.76,3.81-1,.09-1.05,1.72,0,1.63Z" transform="translate(-172 -222.09)" fill="#fff"/><path d="M696.73,290.14c0,8.78-.55,17.77,0,26.54.32,5.18,5.91,3.34,10.07,3.22,1.05,0,1.06-1.67,0-1.64-1.27,0-2.53.08-3.81.09-2.32,0-3.26.59-4.22-1.34-1.17-2.36-.4-6.6-.4-9.18V290.14a.82.82,0,0,0-1.63,0Z" transform="translate(-172 -222.09)" fill="#fff"/><path d="M673.71,295.4q-.11,12.78,0,25.57a.82.82,0,0,0,1.64,0q-.17-12.78-.06-25.57a.82.82,0,0,0-1.63,0Z" transform="translate(-172 -222.09)" fill="#fff"/><path d="M671.2,296.77a7.71,7.71,0,0,1,4.93-1.14c2.62.46,3.13,2.1,3.34,4.51.31,3.49.34,8.23-4.17,8.73-1,.12-1,1.75,0,1.64,6-.66,6.39-6.61,5.69-11.51-.28-1.89-.79-4.37-2.91-4.91a11.17,11.17,0,0,0-7.7,1.27.82.82,0,0,0,.82,1.41Z" transform="translate(-172 -222.09)" fill="#fff"/><path d="M960.07,390.14a1.11,1.11,0,0,0-1.2-.19l-.54.55a4.37,4.37,0,0,1-4.64,2,5.73,5.73,0,0,1-4.24-3.49,27.23,27.23,0,0,1-2.68-7.67,29.54,29.54,0,0,0-3.7-9.54.56.56,0,0,1-.06-.31.5.5,0,0,1,.12-.29l.82-.7a12.94,12.94,0,0,0,4-11.08,6.2,6.2,0,0,0-7.43-7.07,5.47,5.47,0,0,1-1.85-.1l-.34-.05a.69.69,0,0,0-.66.44,7.58,7.58,0,0,0-.37,2.41q-.15,12.87.16,25.74-.06,3.23,0,6.45a1,1,0,0,0,.31.73,1,1,0,0,0,.75.28.89.89,0,0,0,.64-.55,7.7,7.7,0,0,0,.31-3.63q.08-5.1-.12-10.2a5.57,5.57,0,0,1,.14-.71.73.73,0,0,1,.36-.43.68.68,0,0,1,.56,0,4.58,4.58,0,0,1,2.48,2.63q1.78,6.61,3.88,13.15a11.54,11.54,0,0,0,4.68,5.55,7.87,7.87,0,0,0,8.82-2.74A1.09,1.09,0,0,0,960.07,390.14ZM940.74,370a1.17,1.17,0,0,1-1-.1,1,1,0,0,1-.4-.75q-.14-6.87-.23-13.74a1,1,0,0,1,.48-.74,3.41,3.41,0,0,1,2-.42,9.88,9.88,0,0,1,1.62.16,2,2,0,0,1,1.38.71,10.79,10.79,0,0,1,1.47,7.62A7.43,7.43,0,0,1,940.74,370Z" transform="translate(-172 -222.09)" fill="#fff"/><path d="M412.83,370.31q-.21-2.21-.6-4.38a17.7,17.7,0,0,0-.62-2.61,1.28,1.28,0,0,0-1.1-.9,4,4,0,0,0-5.45,3,33.13,33.13,0,0,0-.32,12.59,13.9,13.9,0,0,0,.94,3.81,3,3,0,0,0,2.54,1.39,3.08,3.08,0,0,0,2.56-1.36A17.94,17.94,0,0,0,412.83,370.31ZM409.33,381a1.27,1.27,0,0,1-1,.53,1.25,1.25,0,0,1-1-.57,22.25,22.25,0,0,1-1-8.38,12.4,12.4,0,0,1,1.57-8,1.49,1.49,0,0,1,1.41-.67,1.12,1.12,0,0,1,1,.75,37.94,37.94,0,0,1,1.05,8.49A12.14,12.14,0,0,1,409.33,381Z" transform="translate(-172 -222.09)" fill="#fff"/><path d="M401.89,363.88c.11-3.61.27-7.21.45-10.8a1,1,0,0,0-.27-.8.85.85,0,0,0-.88-.25.87.87,0,0,0-.59.69q-.56,11.71-.89,23.45a.34.34,0,0,1-.18.25.21.21,0,0,1-.25-.05,1.25,1.25,0,0,1-.31-.59q-2.48-8.1-5-16.17a1.85,1.85,0,0,0-.79-.8.63.63,0,0,0-.58,0,.65.65,0,0,0-.34.48q-.12,1.2-.15,2.4-.59,10.38-.53,20.78a2.12,2.12,0,0,0,.54,1,.66.66,0,0,0,1.11-.29,3.76,3.76,0,0,0,.12-1.33q0-7.76.25-15.5l.1-.43a.07.07,0,0,1,.06,0,.15.15,0,0,1,.09,0,4.12,4.12,0,0,1,.71,1.76q2.28,7.88,4.89,15.67a1.17,1.17,0,0,0,.7.66.37.37,0,0,0,.23,0,.85.85,0,0,0,.28-.22,5.46,5.46,0,0,0,.74-3.53c0-5.47.17-11,.5-16.41Z" transform="translate(-172 -222.09)" fill="#fff"/><path d="M208.74,371a34.11,34.11,0,0,1,0-6.47,1.12,1.12,0,0,0-.13-.84,1.14,1.14,0,0,0-.69-.49,1,1,0,0,0-.74.08,1,1,0,0,0-.43.6,5.62,5.62,0,0,0,0,1.16,137.72,137.72,0,0,1,.19,16.38,7.56,7.56,0,0,1-2.17,5.21,2.16,2.16,0,0,1-2,.49,2.14,2.14,0,0,1-1.49-1.4,26.72,26.72,0,0,1-.71-12c0-3.24,0-6.48,0-9.73a1.1,1.1,0,0,0-.37-.89.8.8,0,0,0-.84-.14.82.82,0,0,0-.5.68q-.35,8.88-.53,17.77a13.36,13.36,0,0,0,1.85,6.49,4.51,4.51,0,0,0,7.33-2.16,23.33,23.33,0,0,0,1.41-10.37c0-1.46-.08-2.92-.19-4.38Z" transform="translate(-172 -222.09)" fill="#fff"/><path d="M220.16,368.77q.17-5.4.45-10.8a1,1,0,0,0-.28-.79.84.84,0,0,0-.87-.25.83.83,0,0,0-.59.69q-.57,11.72-.9,23.44a.33.33,0,0,1-.18.26.21.21,0,0,1-.25-.05,1.38,1.38,0,0,1-.31-.6q-2.47-8.09-5-16.17a1.83,1.83,0,0,0-.79-.79.63.63,0,0,0-.58,0,.64.64,0,0,0-.34.47c-.08.8-.13,1.61-.14,2.41q-.6,10.38-.53,20.77a2.06,2.06,0,0,0,.53,1.05.66.66,0,0,0,.64.18.66.66,0,0,0,.47-.47,3.72,3.72,0,0,0,.12-1.33q0-7.74.25-15.49l.1-.43a.08.08,0,0,1,.06,0,.1.1,0,0,1,.09,0,4,4,0,0,1,.71,1.75q2.28,7.89,4.89,15.68a1.15,1.15,0,0,0,.7.65.36.36,0,0,0,.23,0,.85.85,0,0,0,.28-.22,5.47,5.47,0,0,0,.74-3.53q0-8.22.51-16.42Z" transform="translate(-172 -222.09)" fill="#fff"/><path d="M922,356.73a7,7,0,0,0-7.28-4.28,5.79,5.79,0,0,1-1.85-.21l-.34-.06a.74.74,0,0,0-.53.21l-.45.49a16.42,16.42,0,0,1-2.26,1.46,11.48,11.48,0,0,0-1.67,1.27,1.13,1.13,0,0,0-.36.81.62.62,0,0,0,.88.54,4.54,4.54,0,0,0,1.16-.73,17.06,17.06,0,0,1,1.81-1.13.61.61,0,0,1,.49-.06.5.5,0,0,1,.27.35,6.2,6.2,0,0,1,.12,1.36q.27,12,.82,24.07.08,4,.51,7.89a.89.89,0,0,0,.92.83,1,1,0,0,0,.7-.63,1.91,1.91,0,0,0,.19-.94q-.39-7.07-.52-14.14a.72.72,0,0,1,.43-.7,2.9,2.9,0,0,1,.83-.09c.35,0,.69-.05,1-.1a6,6,0,0,0,4.71-4.15A18.28,18.28,0,0,0,922,356.73Zm-2.23,12a3.57,3.57,0,0,1-4.37,2.4,1,1,0,0,1-.81-.46,2.41,2.41,0,0,1-.16-.6q-.09-7.43-.5-14.85a.88.88,0,0,1,.55-.8,4.44,4.44,0,0,1,3,.24,8,8,0,0,1,2.57,2.6A14.91,14.91,0,0,1,919.77,368.73Z" transform="translate(-172 -222.09)" fill="#fff"/><path d="M934.34,387.79A127.22,127.22,0,0,1,932,372.62a12,12,0,0,1,.09-1.89l0-.33-.44-1.15a99.82,99.82,0,0,0-3-16.09,1.84,1.84,0,0,0-1-.85.76.76,0,0,0-.88.42,1.92,1.92,0,0,0-.2.78q-2.21,12.28-4.35,24.57a91.42,91.42,0,0,0-1.82,10.26,1.3,1.3,0,0,0,.24.89.75.75,0,0,0,1.22-.14,2.74,2.74,0,0,0,.39-1.21q1.14-7.35,2.76-14.61l.24-.66.25-.22a2.69,2.69,0,0,1,1.38-.57,11.34,11.34,0,0,1,2.33-.09.88.88,0,0,1,.68.42,16,16,0,0,1,.61,4.29,103.32,103.32,0,0,1,1.92,12.25,2,2,0,0,0,.25.58.72.72,0,0,0,.52.27.7.7,0,0,0,.55-.19A1.72,1.72,0,0,0,934.34,387.79Zm-4.78-18.22a.44.44,0,0,1-.2.3,1.19,1.19,0,0,1-.55.21l-1.48.1c-.44.05-.88.08-1.32.1a.43.43,0,0,1-.4-.22.89.89,0,0,1-.06-.51c.58-2.8,1.07-5.62,1.47-8.44,0-.35.08-.7.11-1.05a5.75,5.75,0,0,1,.14-1.3.38.38,0,0,1,.29-.27.21.21,0,0,1,.16,0,.4.4,0,0,1,.14.18c.68,3.32,1.24,6.67,1.67,10A2.37,2.37,0,0,1,929.56,369.57Z" transform="translate(-172 -222.09)" fill="#fff"/><path d="M962.65,386.56q-1.51-9-3.5-17.8-1.47-7.68-2.67-15.39a1.05,1.05,0,0,0-1.05-1,1.07,1.07,0,0,0-1.07,1,284.46,284.46,0,0,1-2.87,29.28c-.29,1.63-.6,3.25-.93,4.87a1.34,1.34,0,0,0,.92,1.44.7.7,0,0,0,.81-.45q1.5-7.87,2.37-15.84a1,1,0,0,1,.61-.68,4.67,4.67,0,0,1,1.23-.16,2.75,2.75,0,0,1,.81,0,.63.63,0,0,1,.44.26,3.21,3.21,0,0,1,.4,1.2q1.53,6.9,2.81,13.86a1.91,1.91,0,0,0,.66,1.07.47.47,0,0,0,.59-.08A1.66,1.66,0,0,0,962.65,386.56Zm-5.77-16.71a2,2,0,0,1-.6.15,4.87,4.87,0,0,1-.65.1l-.29,0a.76.76,0,0,1-.41-.71c.3-2.35.55-4.7.75-7.07a.07.07,0,0,1,.07-.06.14.14,0,0,1,.12.06,1.28,1.28,0,0,1,.21.46q.6,3.18,1.12,6.38A.74.74,0,0,1,956.88,369.85Z" transform="translate(-172 -222.09)" fill="#fff"/><path d="M485.69,363.33q.17-5.4.45-10.8a1,1,0,0,0-.28-.79.82.82,0,0,0-.87-.25.81.81,0,0,0-.59.69q-.56,11.71-.9,23.44a.33.33,0,0,1-.18.26.21.21,0,0,1-.25-.05,1.38,1.38,0,0,1-.31-.6q-2.46-8.1-5-16.17a1.88,1.88,0,0,0-.79-.79.65.65,0,0,0-.59,0,.63.63,0,0,0-.33.47c-.09.8-.14,1.6-.15,2.41q-.6,10.38-.53,20.77a2.06,2.06,0,0,0,.53,1.05.66.66,0,0,0,.64.18.66.66,0,0,0,.47-.47,3.72,3.72,0,0,0,.12-1.33q0-7.74.26-15.49l.09-.43a.07.07,0,0,1,.07,0,.09.09,0,0,1,.08,0,3.89,3.89,0,0,1,.71,1.75q2.28,7.89,4.9,15.68a1.14,1.14,0,0,0,.69.65.36.36,0,0,0,.23,0,.76.76,0,0,0,.28-.22,5.35,5.35,0,0,0,.74-3.53q0-8.22.51-16.42Z" transform="translate(-172 -222.09)" fill="#fff"/><path d="M490.37,365c0-2.32.06-4.65.13-7a1,1,0,0,0-.38-.7,1,1,0,0,0-.77-.2.55.55,0,0,0-.32.28,2.34,2.34,0,0,0-.19,1.07,159.16,159.16,0,0,0,.15,16.92c.09,2.69.06,5.38-.11,8.06a1.68,1.68,0,0,0,.26.9.59.59,0,0,0,.7.17,1.83,1.83,0,0,0,1-1.61,162.33,162.33,0,0,0-.42-17.92Z" transform="translate(-172 -222.09)" fill="#fff"/><path d="M368.67,383a4.33,4.33,0,0,0-1.17-.7,8.19,8.19,0,0,1-3.19-5.84,11,11,0,0,0-1.28-3.14l-.21-.35a1,1,0,0,1,.27-1,11.54,11.54,0,0,0,2.29-3.24l.34-1.13a4.77,4.77,0,0,0-7.61-4.11.89.89,0,0,0-.26.59l.06.38a50,50,0,0,1-.17,8.48,50.92,50.92,0,0,1-.39,5.22,1.36,1.36,0,0,0,.54,1.36.55.55,0,0,0,.47,0,1.9,1.9,0,0,0,1-1.39c.05-1.21.08-2.41.08-3.62a.72.72,0,0,1,.42-.65,1,1,0,0,1,.82.2,5,5,0,0,1,1.62,3,10.19,10.19,0,0,0,4.59,7.15,1.47,1.47,0,0,0,1.89-.39A.64.64,0,0,0,368.67,383Zm-7.12-12.12-.53.37a1.4,1.4,0,0,1-1.11.14.44.44,0,0,1-.28-.31l0-.65a23.6,23.6,0,0,1,.52-5,1.18,1.18,0,0,1,.67-.83,2.34,2.34,0,0,1,2.43.71,4,4,0,0,1-1.68,5.6Z" transform="translate(-172 -222.09)" fill="#fff"/><path d="M351.26,373.5c1.06,0,2.13-.06,3.19-.13a1.68,1.68,0,0,0,1.29-.79.68.68,0,0,0,0-.54.69.69,0,0,0-.39-.38,3,3,0,0,0-1.08,0,10.05,10.05,0,0,1-3.14-.22.79.79,0,0,1-.64-.64,9.9,9.9,0,0,1,0-1.44c0-1.44,0-2.88.08-4.31a.63.63,0,0,1,.41-.55,4.21,4.21,0,0,1,1.17-.09c1.14,0,2.29,0,3.43,0a1.64,1.64,0,0,0,1.06-.57.66.66,0,0,0,.08-.53.65.65,0,0,0-.35-.41,5.22,5.22,0,0,0-2.53-.43,14.18,14.18,0,0,0-4.55.11,1,1,0,0,0-.82,1.09q0,8-.25,16a.82.82,0,0,0,.43.67,6.07,6.07,0,0,0,3.43.06,13.69,13.69,0,0,1,2.79-.05,1.44,1.44,0,0,0,1.32-.69l.1-.24a.68.68,0,0,0-.45-.67,2.91,2.91,0,0,0-1.45-.26c-.74,0-1.49,0-2.24,0a6.57,6.57,0,0,1-1.25,0,1,1,0,0,1-.45-.22.72.72,0,0,1-.23-.36,5.9,5.9,0,0,1-.09-1.51c0-.55,0-1.09,0-1.64a1.22,1.22,0,0,1,1.06-1.3Z" transform="translate(-172 -222.09)" fill="#fff"/><path d="M347.77,365.23c0-.4,0-.79,0-1.18a3.43,3.43,0,0,0-1-1.46,6.07,6.07,0,0,0-3-.84,11.06,11.06,0,0,0-3.31.7,1.24,1.24,0,0,0-.54.45.66.66,0,0,0-.06.55,1.83,1.83,0,0,0,.74,1l.27.2a1.39,1.39,0,0,1,.31.7c.28,4.46.35,8.94.21,13.41a2.61,2.61,0,0,0,.32,1.19.5.5,0,0,0,.68.2,2.77,2.77,0,0,0,.79-.7,1.51,1.51,0,0,0,.15-.79,24.1,24.1,0,0,1,.16-5,1.31,1.31,0,0,1,.66-.94A7,7,0,0,0,347.77,365.23Zm-2.6,4.62-.32.46a1.06,1.06,0,0,1-.71.47,1.08,1.08,0,0,1-.83-.21,1.44,1.44,0,0,1-.32-.71l-.06-1.69a36.29,36.29,0,0,1-.07-3.76.76.76,0,0,1,.76-.68c.42,0,.84,0,1.26.07a1.16,1.16,0,0,1,1,1A7.64,7.64,0,0,1,345.17,369.85Z" transform="translate(-172 -222.09)" fill="#fff"/><path d="M375.48,365.23a4.36,4.36,0,0,0-2.11-1.65c-.57-.3-1.14-.58-1.73-.85a2.72,2.72,0,0,0-3.18,1.35,17.81,17.81,0,0,0-1.87,8.84,10.71,10.71,0,0,0,2,6.92,1.69,1.69,0,0,0,1.46.6,6.47,6.47,0,0,0,6.38-6.32A14.9,14.9,0,0,0,375.48,365.23ZM373.35,377a3,3,0,0,1-2.71,1.52l-.39-.07a1.78,1.78,0,0,1-.9-.93,14.44,14.44,0,0,1-.66-6.93,11.06,11.06,0,0,1,1.22-5.11,2.71,2.71,0,0,1,.56-.61,1,1,0,0,1,.56-.17.89.89,0,0,1,.53.13c.49.34,1,.64,1.52.93l.39.15a1.36,1.36,0,0,1,.52.68,16.73,16.73,0,0,1,.5,1.61A12.2,12.2,0,0,1,373.35,377Z" transform="translate(-172 -222.09)" fill="#fff"/><path d="M1005.78,372a19.28,19.28,0,0,1,1.71-10.37,2.5,2.5,0,0,1,3.41-.77,5.59,5.59,0,0,0,.66.41.56.56,0,0,0,.49,0,.57.57,0,0,0,.35-.33,1.33,1.33,0,0,0-.5-1.65,4.69,4.69,0,0,0-7.07,3.36,35.57,35.57,0,0,0-.75,12.59,17.58,17.58,0,0,0,1.22,7.07,3.19,3.19,0,0,0,5.12.72,3.35,3.35,0,0,0,1.28-1.46.72.72,0,0,0-.18-.8.74.74,0,0,0-.82-.13,4.54,4.54,0,0,0-1,.61,3.17,3.17,0,0,1-1.65.78,1.22,1.22,0,0,1-1.13-.92,34.94,34.94,0,0,1-1.15-9.15Z" transform="translate(-172 -222.09)" fill="#fff"/><path d="M1002.11,383.26q-1.51-9.25-3.57-18.4a67,67,0,0,1-1.45-7,1.48,1.48,0,0,0-1.21-1.1,1,1,0,0,0-.88.75q-1.89,9.48-4.13,18.89a31.9,31.9,0,0,0-1.54,5.85,1.18,1.18,0,0,0,.18.82.58.58,0,0,0,.42.26.6.6,0,0,0,.48-.15,3.2,3.2,0,0,0,1-1.91l2.44-8.45a1.8,1.8,0,0,1,1.28-1,7.74,7.74,0,0,1,2-.33.94.94,0,0,1,.8.36,3.56,3.56,0,0,1,.37,1.28q.86,5.37,2,10.7a1.39,1.39,0,0,0,.42.57.63.63,0,0,0,.75,0,3.68,3.68,0,0,0,.44-.34A.85.85,0,0,0,1002.11,383.26Zm-5-14a.48.48,0,0,1-.15.22,1.23,1.23,0,0,1-.31.19,3.17,3.17,0,0,1-1,.21,2.06,2.06,0,0,1-.78.06.35.35,0,0,1-.21-.12.5.5,0,0,1-.13-.26l.06-.94c.32-1.5.66-3,1-4.52a1.05,1.05,0,0,1,.29-.55.23.23,0,0,1,.18-.07.21.21,0,0,1,.16.08l.22.55.79,4.43A1.27,1.27,0,0,1,997.12,369.26Z" transform="translate(-172 -222.09)" fill="#fff"/><path d="M1045.69,385.54a1.12,1.12,0,0,0-1-.13l-.47.37a4.17,4.17,0,0,1-4,1.43,4.86,4.86,0,0,1-3.67-2.43,16.81,16.81,0,0,1-2.32-5.34,18.34,18.34,0,0,0-3.2-6.63.36.36,0,0,1,0-.22.37.37,0,0,1,.11-.2l.7-.49a8.08,8.08,0,0,0,3.5-7.7,3.85,3.85,0,0,0-1.59-3.83,6.3,6.3,0,0,0-4.84-1.1,5.72,5.72,0,0,1-1.6-.07l-.29,0a.62.62,0,0,0-.57.31,4.4,4.4,0,0,0-.33,1.67q-.12,9,.14,17.91c0,1.49,0,3,0,4.49a.67.67,0,0,0,.27.51,1,1,0,0,0,.64.19.75.75,0,0,0,.56-.38,4.4,4.4,0,0,0,.27-2.53c0-2.36,0-4.73-.11-7.09a2.83,2.83,0,0,1,.13-.5.49.49,0,0,1,.3-.3.82.82,0,0,1,.49,0,3.63,3.63,0,0,1,2.15,1.83q1.53,4.61,3.35,9.15a8.86,8.86,0,0,0,4,3.87,7.86,7.86,0,0,0,7.63-1.91A.66.66,0,0,0,1045.69,385.54Zm-16.73-14a1.28,1.28,0,0,1-.82-.06.69.69,0,0,1-.34-.53c-.08-3.19-.15-6.37-.2-9.56a.65.65,0,0,1,.42-.51,3.48,3.48,0,0,1,1.73-.29,9.2,9.2,0,0,1,1.39.11,1.82,1.82,0,0,1,1.2.49,6.3,6.3,0,0,1,1.27,5.3C1033.66,368.82,1031.76,370.89,1029,371.53Z" transform="translate(-172 -222.09)" fill="#fff"/><path d="M1017.16,375.28l0-4.09a.91.91,0,0,1,.83-.8,10.69,10.69,0,0,1,1.27.07c.27,0,.55.06.82.07a1.21,1.21,0,0,0,1.13-1,.53.53,0,0,0-.18-.43,1.81,1.81,0,0,0-1.18-.37q-.92,0-1.83-.15a.85.85,0,0,1-.72-.78,12.16,12.16,0,0,1,0-1.35c-.07-1.42-.08-2.84-.06-4.27a4.48,4.48,0,0,1,.1-1.15.85.85,0,0,1,.63-.57,5.71,5.71,0,0,1,1.37-.08c1,0,1.93-.06,2.9-.13a1.17,1.17,0,0,0,.87-.82.67.67,0,0,0-.27-.72l-.28-.09a19,19,0,0,0-2.72,0c-1,0-2.09,0-3.13,0a1,1,0,0,0-1,.83,32.48,32.48,0,0,0-.26,8.06,112.61,112.61,0,0,0-.26,12.46,1.53,1.53,0,0,0,1.51,1.12,35,35,0,0,0,5.3-.47,1.73,1.73,0,0,0,1.13-.83.52.52,0,0,0,0-.44,1.24,1.24,0,0,0-1.27-.49,21.59,21.59,0,0,1-4.17.25.65.65,0,0,1-.56-.48,8.05,8.05,0,0,1,0-2.35c0-.37,0-.73,0-1.09Z" transform="translate(-172 -222.09)" fill="#fff"/><path d="M987.74,364.29a28.85,28.85,0,0,0,.13-5.65.6.6,0,0,0-1.18-.07,4.24,4.24,0,0,0-.15,1.37,73,73,0,0,0-.62,12c0,.49-.08,1-.13,1.49a.79.79,0,0,1-.82.73h-1.85a1.14,1.14,0,0,1-.65-.15.87.87,0,0,1-.3-.57,116.07,116.07,0,0,1-.44-15,1,1,0,0,0-.31-.76.73.73,0,0,0-1.16.46,5.07,5.07,0,0,0-.1,1.29l.11,14.76q.08,3.69.39,7.37a.85.85,0,0,0,1.17.67,1.54,1.54,0,0,0,.66-1.64,22.9,22.9,0,0,1-.3-3.88.6.6,0,0,1,.32-.56,2,2,0,0,1,.6-.12h1.72a.81.81,0,0,1,.8.69c.08,2,.09,4,0,6a1.65,1.65,0,0,0,.38,1,.7.7,0,0,0,.39.26.62.62,0,0,0,.42-.06,1.76,1.76,0,0,0,.72-1.72,56.35,56.35,0,0,1,.14-9.72c-.06-2.74-.05-5.47,0-8.21Z" transform="translate(-172 -222.09)" fill="#fff"/><path d="M613,367.16a35,35,0,0,1,0-6.47,1.08,1.08,0,0,0-.14-.84,1,1,0,0,0-.69-.48.89.89,0,0,0-.73.07.91.91,0,0,0-.43.6,5,5,0,0,0,0,1.16,142.08,142.08,0,0,1,.19,16.38,7.65,7.65,0,0,1-2.17,5.21,2.15,2.15,0,0,1-3.48-.9,26.88,26.88,0,0,1-.71-12c0-3.25,0-6.49,0-9.73a1.11,1.11,0,0,0-.37-.9.79.79,0,0,0-.83-.14.78.78,0,0,0-.5.68q-.36,8.88-.54,17.77a13.36,13.36,0,0,0,1.85,6.49,4.51,4.51,0,0,0,7.33-2.16,23.48,23.48,0,0,0,1.42-10.37c0-1.46-.08-2.92-.2-4.38Z" transform="translate(-172 -222.09)" fill="#fff"/><path d="M599.41,364.42q.17-5.4.45-10.8a1.08,1.08,0,0,0-.28-.8.84.84,0,0,0-1.46.44q-.55,11.73-.9,23.45a.3.3,0,0,1-.18.25.21.21,0,0,1-.25,0,1.5,1.5,0,0,1-.31-.6q-2.46-8.1-5-16.17a1.83,1.83,0,0,0-.79-.79.68.68,0,0,0-.59,0,.66.66,0,0,0-.33.48c-.09.8-.14,1.6-.15,2.41q-.58,10.37-.53,20.77a2,2,0,0,0,.54,1.05.64.64,0,0,0,.63.18.66.66,0,0,0,.47-.47,3.72,3.72,0,0,0,.12-1.33q0-7.76.26-15.49l.09-.43a.08.08,0,0,1,.07,0,.11.11,0,0,1,.08,0,3.93,3.93,0,0,1,.71,1.76q2.3,7.89,4.9,15.68a1.16,1.16,0,0,0,.69.65.4.4,0,0,0,.24,0,1,1,0,0,0,.27-.22,5.36,5.36,0,0,0,.74-3.54c0-5.47.17-10.94.51-16.41Z" transform="translate(-172 -222.09)" fill="#fff"/><path d="M646.92,378q-1.8-9-3.21-18a41.73,41.73,0,0,0-.65-4.28,1.65,1.65,0,0,0-.7-.86.58.58,0,0,0-.64.1l-.13.22c-.33,1.06-.62,2.12-.88,3.19q-3,10.19-5.62,20.5a1.59,1.59,0,0,0,.73,1.37.53.53,0,0,0,.53,0,1.33,1.33,0,0,0,.4-.61q1.23-5.06,2.58-10.08a1,1,0,0,1,1-.77c.57,0,1.14-.08,1.71-.14a1.38,1.38,0,0,1,.49.06.84.84,0,0,1,.35.21,1,1,0,0,1,.37.59l.28,1.56q.83,4.06,1.6,8.13a2.33,2.33,0,0,0,.38.69.48.48,0,0,0,.62.12,1.41,1.41,0,0,0,.8-1.91Zm-4.35-11.29-.25.13a5.41,5.41,0,0,1-1.55.26,1.12,1.12,0,0,1-.32,0,.46.46,0,0,1-.15-.09.67.67,0,0,1-.16-.71q.76-2.49,1.42-5a.74.74,0,0,1,.25-.36.14.14,0,0,1,.18,0,1.26,1.26,0,0,1,.24.51c.16,1.15.3,2.3.43,3.46a7.62,7.62,0,0,1,.13,1.35A.68.68,0,0,1,642.57,366.66Z" transform="translate(-172 -222.09)" fill="#fff"/><path d="M631.33,373.23a80.48,80.48,0,0,1,.59-15.36,4.18,4.18,0,0,1,4.72-3.54,2.68,2.68,0,0,0,.63-.11.65.65,0,0,0,.41-.61.38.38,0,0,0-.25-.31,5,5,0,0,0-7.1,3.52,39.34,39.34,0,0,0-.87,10.38A56.89,56.89,0,0,0,630.72,382a3.73,3.73,0,0,0,7.24,0,.55.55,0,0,0-.22-.52.54.54,0,0,0-.56-.07,1.31,1.31,0,0,0-.58.34c-.31.35-.63.69-1,1a1.92,1.92,0,0,1-1.56.27,1.94,1.94,0,0,1-1.22-1,17.67,17.67,0,0,1-1.4-6.57c-.06-.73-.11-1.45-.13-2.18Z" transform="translate(-172 -222.09)" fill="#fff"/><path d="M619,370.27a156.72,156.72,0,0,0,6.32,14.51.55.55,0,0,0,.67.21,1.62,1.62,0,0,0,.75-.9,9.7,9.7,0,0,0,.27-3.22q-.45-14.07.44-28.14a1.45,1.45,0,0,0-.34-.89.78.78,0,0,0-1.33.08,2.88,2.88,0,0,0-.09,1.09q-1,12.92-.64,25.87l-.08.52a.15.15,0,0,1-.11.08.13.13,0,0,1-.11-.06,112.14,112.14,0,0,1-6.39-16.52,1.37,1.37,0,0,0-1.12-.84.72.72,0,0,0-.69.44l-.06.3q0,11.16-.5,22.31a1.36,1.36,0,0,0,.75,1.08.47.47,0,0,0,.46,0l.16-.19a4.33,4.33,0,0,0,.49-1.86q.42-7.1.37-14.19a.26.26,0,0,1,.24-.22.43.43,0,0,1,.37.2l.17.37Z" transform="translate(-172 -222.09)" fill="#fff"/><path d="M774.94,372a28.53,28.53,0,0,1-4.22-9.37,1.79,1.79,0,0,1,.85-1.88,1.65,1.65,0,0,1,1.72.58c.45.5.9,1,1.36,1.49a1.74,1.74,0,0,0,.55.34.66.66,0,0,0,.64-.26.69.69,0,0,0,.08-.69,5.92,5.92,0,0,0-4.26-3.38,3.54,3.54,0,0,0-3,3.94,24.24,24.24,0,0,0,3.92,9,14,14,0,0,1,1.85,10.8,5.14,5.14,0,0,1-4.61,3.93,1.77,1.77,0,0,1-1.56-1.22,7.49,7.49,0,0,0-.63-1.42,1,1,0,0,0-1.78.89,4.65,4.65,0,0,0,8.2,1.81,11.66,11.66,0,0,0,2-11.89,28.5,28.5,0,0,0-1.18-2.65Z" transform="translate(-172 -222.09)" fill="#fff"/><path d="M689.2,365.53a35,35,0,0,1,0-6.47,1.12,1.12,0,0,0-.13-.84,1.11,1.11,0,0,0-.69-.49.92.92,0,0,0-.74.08,1,1,0,0,0-.43.6,6.41,6.41,0,0,0,0,1.16,137.72,137.72,0,0,1,.19,16.38,7.52,7.52,0,0,1-2.17,5.2,2.13,2.13,0,0,1-3.47-.9,26.72,26.72,0,0,1-.71-12c0-3.24,0-6.48,0-9.73a1.1,1.1,0,0,0-.37-.89.8.8,0,0,0-.84-.14.82.82,0,0,0-.5.68q-.35,8.88-.53,17.77a13.36,13.36,0,0,0,1.85,6.49,4.52,4.52,0,0,0,7.33-2.16,23.35,23.35,0,0,0,1.41-10.37c0-1.46-.08-2.92-.19-4.38Z" transform="translate(-172 -222.09)" fill="#fff"/><path d="M761.09,374.75a2,2,0,0,1,.15-.84.66.66,0,0,1,.47-.39.55.55,0,0,1,.18,0,4.44,4.44,0,0,1,.63,0,4.13,4.13,0,0,1,.78.08l.32,0a.81.81,0,0,0,.52-.19l.2-.25a2.09,2.09,0,0,0,.35-.49.39.39,0,0,0-.1-.53A1.26,1.26,0,0,0,764,372l-1.92-.29a1,1,0,0,1-.79-.58,3.58,3.58,0,0,1-.14-1.38c0-1.95.05-3.9.11-5.84a.86.86,0,0,1,.46-.79,3.67,3.67,0,0,1,1.36-.14c1,0,1.94-.06,2.91,0a1.44,1.44,0,0,0,1.13-1.08.58.58,0,0,0-.33-.55,2.38,2.38,0,0,0-1.09-.14c-1.58,0-3.16.06-4.73.15a1.37,1.37,0,0,0-1.18.93,28.47,28.47,0,0,0-.39,5.9q.06,7.06-.32,14.11a1.42,1.42,0,0,0,.43.9,1,1,0,0,0,.57.16c1.49-.1,3-.24,4.47-.4a1.66,1.66,0,0,0,1.22-.86.57.57,0,0,0,0-.48.56.56,0,0,0-.37-.3,1.85,1.85,0,0,0-.77-.11,22.74,22.74,0,0,1-3.09.27.86.86,0,0,1-.59-.23.6.6,0,0,1-.14-.21,1.13,1.13,0,0,1-.06-.36q.22-2.93.32-5.85Z" transform="translate(-172 -222.09)" fill="#fff"/><path d="M673.27,368.85a79.67,79.67,0,0,1-3.6-11,2.19,2.19,0,0,1,.37-1.65,1,1,0,0,1,.84-.32,5.64,5.64,0,0,1,4.15,3,4.92,4.92,0,0,0,.69.82,1,1,0,0,0,.6.29.42.42,0,0,0,.4-.24.81.81,0,0,0,0-.61,7.46,7.46,0,0,0-6.72-4.89,3.23,3.23,0,0,0-2,1.58,3.18,3.18,0,0,0-.22,2.56,58.59,58.59,0,0,0,3.78,11,32.75,32.75,0,0,1,1.56,10.4,5,5,0,0,1-2.77,4.15,1.12,1.12,0,0,1-1-.14,3.83,3.83,0,0,1-1.77-2.85,1.91,1.91,0,0,0-.21-.74.6.6,0,0,0-.4-.31.88.88,0,0,0-.69-.07.89.89,0,0,0-.53.44,1.74,1.74,0,0,0,0,1.17,5.05,5.05,0,0,0,5.35,4,7,7,0,0,0,3.89-5.69,32.35,32.35,0,0,0-1.25-9.33c-.16-.54-.32-1.08-.5-1.61Z" transform="translate(-172 -222.09)" fill="#fff"/><path d="M704.43,366.09c-.06-1.6-.17-3.18-.35-4.76a1.22,1.22,0,0,0-.56-.75.57.57,0,0,0-.79.4,2.19,2.19,0,0,0-.07.81l0,22.37a1.87,1.87,0,0,0,.42,1.18.59.59,0,0,0,.69.12,1.64,1.64,0,0,0,.83-1.44q-.24-9-.21-17.93Z" transform="translate(-172 -222.09)" fill="#fff"/><path d="M703.5,355.52l-.26-.14a1.19,1.19,0,0,0-.64-.18q-4-.3-7.92-.22a.88.88,0,0,0-.87.85q-.3,13.77.05,27.52a1.76,1.76,0,0,0,.36.74.56.56,0,0,0,.42.2.55.55,0,0,0,.44-.18,1.28,1.28,0,0,0,.33-.63c.1-2.33.09-4.66,0-7s0-4.69,0-7a.93.93,0,0,1,.5-.82,2.24,2.24,0,0,1,.89-.1h.73a3.45,3.45,0,0,1,.57-.05,3.89,3.89,0,0,1,.49,0h.27a7.49,7.49,0,0,0,1.16,0,1.06,1.06,0,0,0,.72-.44,1,1,0,0,0,.12-.83.79.79,0,0,0-.62-.42,17.32,17.32,0,0,0-2.39,0h-1.52a.94.94,0,0,1-.91-.9q0-4.15.24-8.3a.94.94,0,0,1,.8-.82,49.08,49.08,0,0,1,6.3.13.84.84,0,0,0,.73-.46,1.71,1.71,0,0,0,.17-.33.45.45,0,0,0,.05-.19A.58.58,0,0,0,703.5,355.52Z" transform="translate(-172 -222.09)" fill="#fff"/><path d="M710.16,372.12a34.05,34.05,0,0,1,1.06-12.1,2.55,2.55,0,0,1,2.39-1.71,2,2,0,0,1,1,.39c.32.31.64.61,1,.9a.78.78,0,0,0,.53.2.47.47,0,0,0,.44-.37,1.17,1.17,0,0,0-.28-1.16,3.92,3.92,0,0,0-7.11,1.77,37.21,37.21,0,0,0-.83,13.17,20.49,20.49,0,0,0,.69,7.14,3.67,3.67,0,0,0,6.18,1,2.94,2.94,0,0,0,.93-1.05.79.79,0,0,0-1.16-1l-.91.87a3.64,3.64,0,0,1-1.51.65,2,2,0,0,1-2-1.62,38.5,38.5,0,0,1-.38-7.11Z" transform="translate(-172 -222.09)" fill="#fff"/><path d="M729.94,378.72c0-1,0-2.09,0-3.14a.83.83,0,0,1,.5-.76,3.6,3.6,0,0,1,1.35,0,18.1,18.1,0,0,1,1.82.24.61.61,0,0,0,.49-.12,1.72,1.72,0,0,0,.33-.51l.15-.28a.49.49,0,0,0-.18-.6,2.58,2.58,0,0,0-1.12-.28c-.83-.11-1.65-.21-2.48-.28a.93.93,0,0,1-.79-.59,4.34,4.34,0,0,1-.16-1.39q-.3-4.29-.35-8.6a1.22,1.22,0,0,1,.37-.9l.26-.13a14,14,0,0,1,2.24-.14c.67,0,1.33,0,2,0a1.56,1.56,0,0,0,.56-.12.9.9,0,0,0,.36-.25,2.38,2.38,0,0,0,.35-.5.38.38,0,0,0,0-.31.37.37,0,0,0-.2-.24,1.74,1.74,0,0,0-1.07-.2q-2.25.08-4.5,0a2.15,2.15,0,0,0-1.91,2.22q.16,11.85.15,23.7a1.34,1.34,0,0,0,.47.95,1.36,1.36,0,0,0,1,.34c1.58,0,3.17-.06,4.74-.18a1,1,0,0,0,1-1A.56.56,0,0,0,735,385a4.33,4.33,0,0,0-2.14-.19l-2,.06a1.23,1.23,0,0,1-.56-.18.49.49,0,0,1-.22-.27,4.33,4.33,0,0,1,0-1.39q0-2.18,0-4.35Z" transform="translate(-172 -222.09)" fill="#fff"/><path d="M753.86,365.58a55.26,55.26,0,0,1,.33-5.75A1,1,0,0,1,755,359l4.38-.42a1.58,1.58,0,0,0,.94-.87.72.72,0,0,0,0-.54.74.74,0,0,0-.4-.38l-.29-.05a9.31,9.31,0,0,0-2.17.23q-5.21.22-10.41.38a.67.67,0,0,1-.54-.4,4.29,4.29,0,0,1-.07-1.24c0-1.05,0-2.11,0-3.17a1.06,1.06,0,0,0-.14-.58.92.92,0,0,0-.72-.37h0l-.14,0a.88.88,0,0,0-.71.61,3.45,3.45,0,0,0-.15,1.39q-.15,9.84-.18,19.67a14.29,14.29,0,0,1-.06,2.36.05.05,0,0,1,0,0,.08.08,0,0,1-.07-.05q-2.4-8-4.86-16a1.69,1.69,0,0,0-1-1.1.7.7,0,0,0-.73.27l-.1.28a223.88,223.88,0,0,0-.63,24,1.42,1.42,0,0,0,.67,1.12.52.52,0,0,0,.63-.12,1.38,1.38,0,0,0,.39-1.09q0-8.52.46-17a1.11,1.11,0,0,1,.17-.53.1.1,0,0,1,.07,0l.07,0a.9.9,0,0,1,.22.36q2.6,8.81,4.58,17.77a2.42,2.42,0,0,0,.5.9.6.6,0,0,0,.49.21.62.62,0,0,0,.46-.26,4.74,4.74,0,0,0,.65-2.89q0-11.19.17-22.39a.35.35,0,0,1,.22-.29,1.46,1.46,0,0,1,.59,0,34.7,34.7,0,0,0,4.08.14,1.23,1.23,0,0,1,.62.17.57.57,0,0,1,.15.16,1.66,1.66,0,0,1,.12.31,14.25,14.25,0,0,1-.17,3.26q-.12,10.62-.17,21.23a1.58,1.58,0,0,0,.42,1,.58.58,0,0,0,.77.09,1.76,1.76,0,0,0,.74-1.58q-.15-9,.05-18Z" transform="translate(-172 -222.09)" fill="#fff"/><path d="M723.65,367.77q-.06-3-.07-6a8.08,8.08,0,0,1,.22-2.13.86.86,0,0,1,.23-.35,1,1,0,0,1,.38-.21c.32-.06.64-.14,1-.22a.8.8,0,0,0,.61-.75.81.81,0,0,0-.55-.78,3.77,3.77,0,0,0-1.38-.08,31.78,31.78,0,0,1-3.64-.24,1.42,1.42,0,0,0-.91.26.49.49,0,0,0-.1.68,1.57,1.57,0,0,0,.9.63c.33.11.67.21,1,.3l.26.12a.87.87,0,0,1,.32.77q-.11,10.42.22,20.85a2,2,0,0,1-.15.57.84.84,0,0,1-.42.32l-.32.05c-.2.05-.41.09-.61.12l-.28.07a.61.61,0,0,0-.35.47.63.63,0,0,0,.19.55,1.45,1.45,0,0,0,.79.44c1.22.09,2.45.14,3.68.15a1.19,1.19,0,0,0,1-1.11.46.46,0,0,0-.22-.44l-.29-.12a5.6,5.6,0,0,0-.55-.27.87.87,0,0,1-.53-.74q-.24-6.42-.41-12.86Z" transform="translate(-172 -222.09)" fill="#fff"/><path d="M294.61,391.77a1.1,1.1,0,0,0-1.21-.18l-.53.54a4.35,4.35,0,0,1-4.64,2,5.69,5.69,0,0,1-4.24-3.49,26.81,26.81,0,0,1-2.68-7.67,29.77,29.77,0,0,0-3.7-9.54.54.54,0,0,1-.06-.31.5.5,0,0,1,.12-.29l.82-.7a12.92,12.92,0,0,0,4-11.07A6.19,6.19,0,0,0,275.1,354a5.54,5.54,0,0,1-1.86-.1l-.33-.05a.69.69,0,0,0-.66.45,7.48,7.48,0,0,0-.37,2.4q-.15,12.87.16,25.74c0,2.15,0,4.3,0,6.45a1,1,0,0,0,.31.74,1,1,0,0,0,.75.28.93.93,0,0,0,.64-.55,7.72,7.72,0,0,0,.31-3.63q.07-5.12-.12-10.21a5.94,5.94,0,0,1,.14-.71.72.72,0,0,1,.92-.47,4.58,4.58,0,0,1,2.48,2.63q1.77,6.61,3.88,13.15a11.56,11.56,0,0,0,4.68,5.56A7.88,7.88,0,0,0,294.9,393,1.11,1.11,0,0,0,294.61,391.77Zm-19.34-20.13a1.21,1.21,0,0,1-.95-.09,1,1,0,0,1-.39-.76q-.14-6.87-.24-13.74a1,1,0,0,1,.49-.74,3.41,3.41,0,0,1,2-.42,9.65,9.65,0,0,1,1.61.16,2,2,0,0,1,1.39.71,10.85,10.85,0,0,1,1.47,7.62A7.43,7.43,0,0,1,275.27,371.64Z" transform="translate(-172 -222.09)" fill="#fff"/><path d="M306.24,390a.82.82,0,0,0-1-.17l-.44.5a3.43,3.43,0,0,1-3.79,1.86,4.85,4.85,0,0,1-3.48-3.18,26.7,26.7,0,0,1-2.19-7,29,29,0,0,0-3-8.69.58.58,0,0,1,0-.29.46.46,0,0,1,.1-.26l.67-.64a12.58,12.58,0,0,0,3.3-10.09,6.06,6.06,0,0,0-1.5-5,4.73,4.73,0,0,0-4.58-1.43,4,4,0,0,1-1.51-.09l-.28-.05a.59.59,0,0,0-.54.41,7.72,7.72,0,0,0-.3,2.19q-.12,11.73.13,23.46c0,2,0,3.92,0,5.88a.93.93,0,0,0,.26.66.63.63,0,0,0,1.13-.24,7.88,7.88,0,0,0,.26-3.31c0-3.1,0-6.2-.1-9.3a4.5,4.5,0,0,1,.11-.64.67.67,0,0,1,.29-.4.57.57,0,0,1,.46,0,4,4,0,0,1,2,2.4q1.44,6,3.17,12a10.32,10.32,0,0,0,3.83,5.07,6.07,6.07,0,0,0,7.21-2.5A1.06,1.06,0,0,0,306.24,390Zm-15.81-18.35a.86.86,0,0,1-.78-.08,1,1,0,0,1-.32-.69q-.12-6.26-.19-12.52a.87.87,0,0,1,.39-.67,2.59,2.59,0,0,1,1.64-.39,7.42,7.42,0,0,1,1.32.15,1.55,1.55,0,0,1,1.13.65,10.74,10.74,0,0,1,1.2,6.94A6.69,6.69,0,0,1,290.43,371.69Z" transform="translate(-172 -222.09)" fill="#fff"/><path d="M268.87,388.88a127.51,127.51,0,0,1-2.35-15.17,11.91,11.91,0,0,1,.09-1.89l0-.34-.44-1.15a98.85,98.85,0,0,0-3-16.08,1.78,1.78,0,0,0-1-.85.76.76,0,0,0-.88.41,2.21,2.21,0,0,0-.21.79q-2.19,12.28-4.34,24.56a94.38,94.38,0,0,0-1.83,10.27,1.32,1.32,0,0,0,.25.88.75.75,0,0,0,.64.26.78.78,0,0,0,.58-.39,2.73,2.73,0,0,0,.38-1.21c.77-4.9,1.69-9.78,2.77-14.61l.24-.67.25-.21a2.65,2.65,0,0,1,1.38-.57,12.09,12.09,0,0,1,2.33-.1.92.92,0,0,1,.68.43,16.4,16.4,0,0,1,.61,4.29,105.41,105.41,0,0,1,1.92,12.25,2,2,0,0,0,.25.58.69.69,0,0,0,.52.27.7.7,0,0,0,.55-.19A1.69,1.69,0,0,0,268.87,388.88Zm-4.77-18.22a.52.52,0,0,1-.2.3,1.19,1.19,0,0,1-.55.21l-1.49.09c-.43.06-.87.09-1.32.11a.44.44,0,0,1-.39-.22.89.89,0,0,1-.06-.51q.86-4.2,1.47-8.45c0-.34.08-.69.11-1a5.69,5.69,0,0,1,.14-1.3.38.38,0,0,1,.29-.28.29.29,0,0,1,.16,0,.49.49,0,0,1,.14.18c.68,3.32,1.24,6.66,1.66,10A2.16,2.16,0,0,1,264.1,370.66Z" transform="translate(-172 -222.09)" fill="#fff"/><path d="M312.86,358.93c0-.58,0-1.16.05-1.73a2,2,0,0,1,.53-1.4,1.85,1.85,0,0,1,1.36-.27c.86,0,1.71-.06,2.56-.15.47-.05.88-.5,1.11-1.2a2,2,0,0,0,0-1,1,1,0,0,0-.42-.63,1,1,0,0,0-.68-.19q-6.44,0-12.87-.12a1.16,1.16,0,0,0-.88.57,1.64,1.64,0,0,0-.16.84,1.36,1.36,0,0,0,.26.77,1.89,1.89,0,0,0,1.75.81,42.45,42.45,0,0,1,4.37,0,1.67,1.67,0,0,1,.76.45,1.58,1.58,0,0,1,.36.85,15.22,15.22,0,0,1,.11,2.34q0,16,.13,31.91a3,3,0,0,0,.65,2c.25.2.54.12.74-.21a5.16,5.16,0,0,0,.64-2.66q-.29-15.49-.35-31Z" transform="translate(-172 -222.09)" fill="#fff"/><path d="M319.67,377.59c0-1,0-2.1,0-3.15a.83.83,0,0,1,.5-.76,3.66,3.66,0,0,1,1.36,0c.61.05,1.21.13,1.82.24a.6.6,0,0,0,.48-.12,1.72,1.72,0,0,0,.33-.51l.15-.28a.48.48,0,0,0-.18-.6,2.58,2.58,0,0,0-1.12-.28c-.82-.11-1.65-.2-2.48-.28a.94.94,0,0,1-.79-.59,4.64,4.64,0,0,1-.16-1.39q-.3-4.29-.35-8.6a1.22,1.22,0,0,1,.37-.89l.26-.13a12.91,12.91,0,0,1,2.24-.15c.67,0,1.34,0,2,0a1.55,1.55,0,0,0,.56-.11,1.08,1.08,0,0,0,.37-.26,3,3,0,0,0,.35-.5.42.42,0,0,0,0-.31.37.37,0,0,0-.2-.24,1.74,1.74,0,0,0-1.07-.2q-2.25.07-4.5,0a2.16,2.16,0,0,0-1.91,2.23q.18,11.83.15,23.69a1.34,1.34,0,0,0,.47.95,1.37,1.37,0,0,0,1,.34c1.59,0,3.17-.06,4.75-.18a1,1,0,0,0,1-1,.57.57,0,0,0-.35-.56,4.33,4.33,0,0,0-2.14-.19q-1,0-2,.06a1.22,1.22,0,0,1-.56-.17.56.56,0,0,1-.22-.28,4.33,4.33,0,0,1-.05-1.39c0-1.45,0-2.9,0-4.34Z" transform="translate(-172 -222.09)" fill="#fff"/><path d="M306.44,359.7a2.34,2.34,0,0,0-2.21-1.37,5.33,5.33,0,0,0-3.76.67,7.74,7.74,0,0,0-1.76,4.87q-.16,7.94.07,15.88a5.94,5.94,0,0,0,1.67,3.86,3.3,3.3,0,0,0,5.28-1.66,30.94,30.94,0,0,0,1.44-9.31c.13-1.83.19-3.65.18-5.48A16.07,16.07,0,0,0,306.44,359.7Zm-1,10.77a58,58,0,0,1-1,10.35,2.86,2.86,0,0,1-1.74,1.95h-.28a1.55,1.55,0,0,1-1.08-.91,18,18,0,0,1-.8-7,57.58,57.58,0,0,1,.55-13.18,2.34,2.34,0,0,1,1.91-1.85c.35,0,.71.09,1.05.15a1,1,0,0,1,.77.61,12.08,12.08,0,0,1,.63,2.77A41.41,41.41,0,0,1,305.45,370.47Z" transform="translate(-172 -222.09)" fill="#fff"/><path d="M242,357.18l.06,31.74a.82.82,0,0,0,1.63,0l-.06-31.74a.82.82,0,0,0-1.63,0Z" transform="translate(-172 -222.09)" fill="#fff"/><path d="M236.77,362.15c2.91-2.4,11.66-8.81,14.81-3s-2.47,13.27-8.08,14.25l.44,1.57c2.41-.66,5.69-1.83,7.61,1.16a10.77,10.77,0,0,1,.86,5.47c-1.28,7.6-8.73,7.57-14,4.33-.9-.55-1.72.86-.82,1.41,5.57,3.41,14.44,3.7,16.26-4.14.59-2.53.15-7.55-1.61-9.65-1.95-2.34-6.19-.85-8.72-.15-1,.28-.58,1.75.44,1.57,7.6-1.33,12.28-10.31,8.8-17.46-3.21-6.61-13.62.58-17.13,3.47-.81.67.35,1.82,1.16,1.15Z" transform="translate(-172 -222.09)" fill="#fff"/><path d="M453.21,381.12a162.25,162.25,0,0,1-4.55-26.62,1.56,1.56,0,0,0-.46-.91.78.78,0,0,0-.68-.22.81.81,0,0,0-.57.43,1.83,1.83,0,0,0-.23.68q-2.43,14.13-6,28a1.23,1.23,0,0,0,.44,1,.51.51,0,0,0,.52.06,1.38,1.38,0,0,0,.72-.85q1.29-4.38,2.2-8.85a1.24,1.24,0,0,1,1.27-1l2.84.14a1.3,1.3,0,0,1,.8.53,1.6,1.6,0,0,1,.25.67c.06.35.13.7.21,1q.92,3.69,1.57,7.43a.76.76,0,0,0,.53.59.73.73,0,0,0,.54-.15A1.77,1.77,0,0,0,453.21,381.12Zm-4.27-10.68a.8.8,0,0,1-.29.51,1.64,1.64,0,0,1-.73.28,7.67,7.67,0,0,1-2.08-.28.47.47,0,0,1-.31-.27v-.6c.22-1.61.5-3.21.84-4.79a43.13,43.13,0,0,1,.95-5.66.09.09,0,0,1,.08-.05.08.08,0,0,1,.08.05q.66,4.74,1.35,9.46A4.71,4.71,0,0,1,448.94,370.44Z" transform="translate(-172 -222.09)" fill="#fff"/><path d="M439.81,358.54a52.93,52.93,0,0,0,.13-7.66.71.71,0,0,0-.56-.72c-.29,0-.55.24-.62.63a7.67,7.67,0,0,0-.16,1.86,135.68,135.68,0,0,0-.61,16.26c0,.68-.08,1.35-.13,2s-.39,1-.82,1h-1.85a.93.93,0,0,1-.65-.2,1.44,1.44,0,0,1-.31-.78c-.47-6.77-.61-13.58-.43-20.38a1.62,1.62,0,0,0-.31-1,.59.59,0,0,0-.71-.14,1,1,0,0,0-.45.76,9.4,9.4,0,0,0-.1,1.76l.1,20q.09,5,.4,10a1.19,1.19,0,0,0,.42.83.65.65,0,0,0,.75.07,2.44,2.44,0,0,0,.66-2.21,42.27,42.27,0,0,1-.3-5.28.91.91,0,0,1,.31-.75,1.5,1.5,0,0,1,.61-.16h1.71a.92.92,0,0,1,.8.93q.13,4.1,0,8.19a2.73,2.73,0,0,0,.38,1.35.75.75,0,0,0,.38.35.46.46,0,0,0,.42-.09,2.77,2.77,0,0,0,.73-2.33,103.35,103.35,0,0,1,.14-13.17c-.07-3.71-.05-7.43.05-11.14Z" transform="translate(-172 -222.09)" fill="#fff"/><path d="M455.34,366.25A88.69,88.69,0,0,1,456,382.7c-.05,1.05,1.58,1.05,1.64,0a89.56,89.56,0,0,0-.64-16.45c-.14-1-1.77-1-1.63,0Z" transform="translate(-172 -222.09)" fill="#fff"/><path d="M456.94,366.93q-2.62-6.65-5.58-13.17c-.43-1-1.84-.13-1.41.82q2.87,6.33,5.42,12.79c.38,1,2,.54,1.57-.44Z" transform="translate(-172 -222.09)" fill="#fff"/><path d="M459.34,354.68c-.19,4-2.41,8.14-3.82,11.88-.37,1,1.2,1.41,1.57.44,1.47-3.9,3.69-8.11,3.88-12.32,0-1.05-1.58-1.05-1.63,0Z" transform="translate(-172 -222.09)" fill="#fff"/><path d="M515,365.41c-.06-2.29,0-4.58.07-6.87a.73.73,0,0,0-.69-.73.74.74,0,0,0-.79.62,36.18,36.18,0,0,0-.13,7c0,2.44.1,4.89.18,7.33a1,1,0,0,1-.15.51l-.18.13a1.52,1.52,0,0,1-.6.05c-.85.05-1.7.07-2.56.06a1.42,1.42,0,0,1-1.33-1.11,33.17,33.17,0,0,1-.17-8.62.8.8,0,0,0-1.59-.19,73.74,73.74,0,0,0-.05,8.92,2.72,2.72,0,0,1-.2.93,1.67,1.67,0,0,0-.13,1.1,15.66,15.66,0,0,1,.43,5.62,1.73,1.73,0,0,0,.28,1.17.59.59,0,0,0,.78.15,1.23,1.23,0,0,0,.52-.86c.06-1.22.1-2.43.12-3.65a6.2,6.2,0,0,1,.12-1.36.53.53,0,0,1,.16-.23.42.42,0,0,1,.26-.12q1.47-.06,2.94-.06a2.4,2.4,0,0,1,.79.19.72.72,0,0,1,.46.65c.14,2.47.18,5,.11,7.42a1.79,1.79,0,0,0,.37,1.09.48.48,0,0,0,.35.18.45.45,0,0,0,.37-.12,2.14,2.14,0,0,0,.65-1.67c.11-5.84,0-11.69-.39-17.51Z" transform="translate(-172 -222.09)" fill="#fff"/><path d="M530.24,382.43a162.09,162.09,0,0,1-4.56-26.62,1.62,1.62,0,0,0-.46-.91.77.77,0,0,0-.68-.21.77.77,0,0,0-.56.43,1.68,1.68,0,0,0-.24.68q-2.43,14.13-6,28a1.27,1.27,0,0,0,.44,1,.55.55,0,0,0,.53.06,1.48,1.48,0,0,0,.72-.85c.85-2.92,1.59-5.87,2.19-8.85a1.25,1.25,0,0,1,1.27-1l2.85.14a1.28,1.28,0,0,1,.79.53,1.56,1.56,0,0,1,.25.68c.06.35.13.69.21,1q.91,3.69,1.58,7.43a.73.73,0,0,0,.53.6.81.81,0,0,0,.54-.15A1.79,1.79,0,0,0,530.24,382.43ZM526,371.76a.72.72,0,0,1-.29.5,1.55,1.55,0,0,1-.73.28,7.35,7.35,0,0,1-2.08-.28.42.42,0,0,1-.31-.27v-.6c.22-1.61.5-3.2.84-4.79a45,45,0,0,1,1-5.65.1.1,0,0,1,.09-.06.07.07,0,0,1,.07.06q.66,4.73,1.35,9.45A4.42,4.42,0,0,1,526,371.76Z" transform="translate(-172 -222.09)" fill="#fff"/><path d="M570.67,383q-1.56-8.72-2.71-17.51a130.44,130.44,0,0,1-2.19-14.71,1.32,1.32,0,0,0-.41-.88,1.07,1.07,0,0,0-.75-.24.75.75,0,0,0-.5.31,3.05,3.05,0,0,0-.39.91q-2.76,16.35-6.41,32.51a1.25,1.25,0,0,0,.72,1.36.63.63,0,0,0,.73-.21,1.52,1.52,0,0,0,.32-.6q1.3-6.43,2.78-12.85a1.29,1.29,0,0,1,.34-.6,1,1,0,0,1,.65-.14c1.12.06,2.24.16,3.35.28a.65.65,0,0,1,.55.44c.54,2.5,1,5,1.33,7.56q.43,2.72.72,5.44a1.27,1.27,0,0,0,.82,1,.68.68,0,0,0,.75-.26A2.29,2.29,0,0,0,570.67,383Zm-4.38-14.79a.67.67,0,0,1-.62.47c-.59,0-1.19,0-1.79,0a2.63,2.63,0,0,1-1.07-.19.65.65,0,0,1-.32-.58,9.53,9.53,0,0,1,.28-1.83c.48-2.45,1-4.91,1.52-7.35a.32.32,0,0,1,.2-.21.25.25,0,0,1,.25.06,1.27,1.27,0,0,1,.26.55c.53,2.64,1,5.29,1.29,8A2.44,2.44,0,0,1,566.29,368.22Z" transform="translate(-172 -222.09)" fill="#fff"/><path d="M540.38,358a5.65,5.65,0,0,0-5.84-3.44,4.35,4.35,0,0,1-1.48-.17l-.28,0a.67.67,0,0,0-.43.16l-.36.4a13.31,13.31,0,0,1-1.81,1.17,8.93,8.93,0,0,0-1.34,1,.89.89,0,0,0-.29.65.49.49,0,0,0,.24.4.5.5,0,0,0,.46,0,3.58,3.58,0,0,0,.94-.6,13.48,13.48,0,0,1,1.45-.9.49.49,0,0,1,.39-.05.39.39,0,0,1,.22.28,5,5,0,0,1,.09,1.09q.23,9.66.66,19.32c0,2.12.18,4.23.41,6.33a.73.73,0,0,0,.75.67.75.75,0,0,0,.55-.5,1.56,1.56,0,0,0,.16-.76q-.32-5.67-.42-11.35a.58.58,0,0,1,.34-.56,2.15,2.15,0,0,1,.67-.07c.28,0,.56,0,.83-.08a4.83,4.83,0,0,0,3.79-3.33A14.74,14.74,0,0,0,540.38,358Zm-1.79,9.63a2.87,2.87,0,0,1-3.51,1.93.83.83,0,0,1-.65-.37,2,2,0,0,1-.12-.48q-.07-6-.41-11.92a.72.72,0,0,1,.44-.65,3.6,3.6,0,0,1,2.4.2,6.24,6.24,0,0,1,2.06,2.09A12,12,0,0,1,538.59,367.64Z" transform="translate(-172 -222.09)" fill="#fff"/><path d="M532.57,384.81c4-.35,8.63-1.28,9.52-5.83.66-3.43.5-8.57-3.55-9.69a.82.82,0,0,0-.43,1.58c3.06.84,3.09,6,2.22,8.5-1.1,3.16-4.94,3.56-7.76,3.81-1,.09-1.05,1.72,0,1.63Z" transform="translate(-172 -222.09)" fill="#fff"/><path d="M545.06,361.53q.77,10.79.62,21.58a.82.82,0,0,0,1.63,0q.15-10.8-.62-21.58c-.07-1-1.71-1-1.63,0Z" transform="translate(-172 -222.09)" fill="#fff"/><path d="M544,363.54c2.66-1.34,9.17-3.85,9.5,1,.13,2-.07,4-1.95,5.17a42.37,42.37,0,0,1-4.57,2.16c-1,.45-.12,1.85.83,1.41,2.3-1.06,5.56-1.94,6.78-4.4a9.49,9.49,0,0,0,.25-6.31c-1.51-4.64-8.75-1.95-11.67-.48-.93.48-.11,1.89.83,1.41Z" transform="translate(-172 -222.09)" fill="#fff"/><path d="M547.83,374.58l4.09,3.46.15,1.23c.11.47.14,1,.22,1.45a32.8,32.8,0,0,0,1.32,5.25,8.86,8.86,0,0,0,3,4.58c4.22,2.88,7.74-1.84,9.38-5.22.45-.94-1-1.77-1.41-.82-.92,1.9-2,4.6-4.38,5.11-2.75.61-4.08-1.71-4.85-3.66-1.17-2.95-1.27-6-1.92-9.07a4.69,4.69,0,0,0-6-3.89c-1,.24-.59,1.81.43,1.58Z" transform="translate(-172 -222.09)" fill="#fff"/><path d="M888.74,371.42a99.21,99.21,0,0,1-3.6-12.48,2.71,2.71,0,0,1,.38-1.87.89.89,0,0,1,.84-.36,5.72,5.72,0,0,1,4.14,3.38,5.34,5.34,0,0,0,.69.93.94.94,0,0,0,.6.34.43.43,0,0,0,.41-.28,1.12,1.12,0,0,0,0-.7,7.63,7.63,0,0,0-6.72-5.56,3.25,3.25,0,0,0-2,1.8,4.11,4.11,0,0,0-.22,2.91A72.62,72.62,0,0,0,887,372.07a42.53,42.53,0,0,1,1.56,11.85,5.78,5.78,0,0,1-2.78,4.73,1,1,0,0,1-1-.17,4.45,4.45,0,0,1-1.76-3.24,2.6,2.6,0,0,0-.22-.84.62.62,0,0,0-.4-.36.8.8,0,0,0-.69-.08.93.93,0,0,0-.53.5,2.27,2.27,0,0,0,0,1.34,5.2,5.2,0,0,0,5.35,4.57,8,8,0,0,0,3.89-6.48,41.67,41.67,0,0,0-1.25-10.63c-.16-.62-.32-1.23-.5-1.84Z" transform="translate(-172 -222.09)" fill="#fff"/><path d="M849.61,387.42a1.1,1.1,0,0,0-1.2-.19l-.54.55a4.36,4.36,0,0,1-4.64,2,5.75,5.75,0,0,1-4.24-3.49,27.54,27.54,0,0,1-2.68-7.67,29.54,29.54,0,0,0-3.7-9.54.55.55,0,0,1,.06-.6l.82-.7a12.94,12.94,0,0,0,4-11.08,6.2,6.2,0,0,0-7.43-7.07,5.48,5.48,0,0,1-1.85-.1l-.33-.05a.67.67,0,0,0-.66.44,7.59,7.59,0,0,0-.38,2.41q-.15,12.87.16,25.74-.06,3.22.06,6.45a1,1,0,0,0,.31.73,1,1,0,0,0,.74.28.89.89,0,0,0,.64-.55,7.7,7.7,0,0,0,.32-3.63q.06-5.1-.13-10.2a5.59,5.59,0,0,1,.15-.71.69.69,0,0,1,.35-.43A.73.73,0,0,1,830,370a4.69,4.69,0,0,1,2.49,2.63q1.77,6.63,3.87,13.16a11.61,11.61,0,0,0,4.69,5.55,7.88,7.88,0,0,0,8.82-2.74A1.09,1.09,0,0,0,849.61,387.42Zm-19.33-20.13a1.21,1.21,0,0,1-.95-.1,1,1,0,0,1-.39-.75c-.1-4.58-.17-9.16-.24-13.74a1,1,0,0,1,.48-.74,3.43,3.43,0,0,1,2-.42,9.65,9.65,0,0,1,1.61.16,2,2,0,0,1,1.39.71,10.83,10.83,0,0,1,1.46,7.62A7.42,7.42,0,0,1,830.28,367.29Z" transform="translate(-172 -222.09)" fill="#fff"/><path d="M861.25,385.69a.83.83,0,0,0-1-.17l-.44.49a3.43,3.43,0,0,1-3.8,1.87,4.87,4.87,0,0,1-3.47-3.19,26.59,26.59,0,0,1-2.19-7,28.77,28.77,0,0,0-3-8.69.52.52,0,0,1-.05-.28.55.55,0,0,1,.1-.26l.67-.64a12.58,12.58,0,0,0,3.3-10.09,6,6,0,0,0-1.5-5,4.72,4.72,0,0,0-4.57-1.43,4.32,4.32,0,0,1-1.52-.09l-.27-.05a.57.57,0,0,0-.54.41,7.63,7.63,0,0,0-.31,2.19q-.12,11.73.13,23.45c0,2,0,3.92.05,5.88a1,1,0,0,0,.25.67.79.79,0,0,0,.61.26.74.74,0,0,0,.52-.51,7.51,7.51,0,0,0,.26-3.3q.06-4.65-.1-9.3c0-.22.07-.43.12-.65a.61.61,0,0,1,.29-.39.53.53,0,0,1,.46,0,4,4,0,0,1,2,2.4q1.46,6,3.17,12a10.35,10.35,0,0,0,3.83,5.06,6.06,6.06,0,0,0,7.22-2.5A1.07,1.07,0,0,0,861.25,385.69Zm-15.82-18.35a.9.9,0,0,1-.77-.08,1,1,0,0,1-.33-.69q-.11-6.26-.19-12.52a.87.87,0,0,1,.4-.68,2.55,2.55,0,0,1,1.63-.38,7.21,7.21,0,0,1,1.32.15,1.54,1.54,0,0,1,1.14.64,10.83,10.83,0,0,1,1.2,7A6.7,6.7,0,0,1,845.43,367.34Z" transform="translate(-172 -222.09)" fill="#fff"/><path d="M823.88,384.53a127.7,127.7,0,0,1-2.36-15.18,15,15,0,0,1,.09-1.89l0-.33-.45-1.15a99.91,99.91,0,0,0-3-16.08,1.78,1.78,0,0,0-1-.85.75.75,0,0,0-.88.41,2.21,2.21,0,0,0-.21.79q-2.2,12.27-4.35,24.56a94.17,94.17,0,0,0-1.82,10.26,1.32,1.32,0,0,0,.24.89.73.73,0,0,0,.65.25.72.72,0,0,0,.57-.38,2.66,2.66,0,0,0,.39-1.22q1.14-7.35,2.77-14.61l.23-.66.25-.21a2.64,2.64,0,0,1,1.38-.57,12.09,12.09,0,0,1,2.33-.1.89.89,0,0,1,.68.43,16,16,0,0,1,.61,4.29,101.31,101.31,0,0,1,1.92,12.25,2.48,2.48,0,0,0,.25.58.72.72,0,0,0,.52.27.76.76,0,0,0,.56-.2A1.66,1.66,0,0,0,823.88,384.53ZM819.1,366.3a.44.44,0,0,1-.19.3,1.29,1.29,0,0,1-.56.22c-.49,0-1,.05-1.48.09a11.73,11.73,0,0,1-1.32.1.43.43,0,0,1-.4-.21.81.81,0,0,1,0-.51q.85-4.2,1.46-8.45c.05-.35.08-.69.12-1a5.62,5.62,0,0,1,.13-1.3.39.39,0,0,1,.29-.28.25.25,0,0,1,.17,0,.3.3,0,0,1,.13.18c.69,3.32,1.24,6.66,1.67,10A2,2,0,0,1,819.1,366.3Z" transform="translate(-172 -222.09)" fill="#fff"/><path d="M867.86,354.58c0-.58,0-1.16,0-1.73a2.07,2.07,0,0,1,.53-1.4,1.89,1.89,0,0,1,1.37-.27c.85,0,1.7-.06,2.56-.15.46,0,.88-.5,1.11-1.2a2.07,2.07,0,0,0,0-1,1,1,0,0,0-.42-.64,1.08,1.08,0,0,0-.68-.18c-4.29,0-8.58,0-12.87-.12a1.13,1.13,0,0,0-.88.57,1.62,1.62,0,0,0-.17.84,1.44,1.44,0,0,0,.26.77,1.9,1.9,0,0,0,1.76.81,39.83,39.83,0,0,1,4.37,0,1.61,1.61,0,0,1,.75.45,1.63,1.63,0,0,1,.37.84,16.74,16.74,0,0,1,.11,2.35q-.06,16,.12,31.9a3,3,0,0,0,.65,2c.25.2.55.12.75-.2a5.2,5.2,0,0,0,.64-2.67q-.3-15.48-.36-31Z" transform="translate(-172 -222.09)" fill="#fff"/><path d="M874.68,373.23c0-1.05,0-2.1,0-3.15a.8.8,0,0,1,.5-.75,3.41,3.41,0,0,1,1.35,0,14,14,0,0,1,1.82.24.62.62,0,0,0,.49-.12,1.91,1.91,0,0,0,.32-.51l.16-.29a.48.48,0,0,0-.19-.59,2.4,2.4,0,0,0-1.11-.28c-.83-.12-1.66-.21-2.48-.28a.94.94,0,0,1-.8-.59,4.67,4.67,0,0,1-.15-1.39c-.2-2.87-.32-5.73-.35-8.6a1.21,1.21,0,0,1,.36-.9l.27-.13a12.9,12.9,0,0,1,2.24-.14c.66,0,1.33,0,2,0a1.69,1.69,0,0,0,.55-.12.86.86,0,0,0,.37-.26,2.74,2.74,0,0,0,.35-.49.43.43,0,0,0,0-.31.42.42,0,0,0-.2-.25,1.8,1.8,0,0,0-1.07-.19c-1.5.05-3,0-4.51,0a2.15,2.15,0,0,0-1.9,2.23q.16,11.85.15,23.7a1.39,1.39,0,0,0,.46,1,1.43,1.43,0,0,0,1,.34q2.37,0,4.74-.18a1,1,0,0,0,1-1,.57.57,0,0,0-.36-.56,4.41,4.41,0,0,0-2.13-.2c-.68,0-1.36.06-2,.07a1.37,1.37,0,0,1-.56-.18.45.45,0,0,1-.22-.27,4.69,4.69,0,0,1-.06-1.4c0-1.44,0-2.89,0-4.34Z" transform="translate(-172 -222.09)" fill="#fff"/><path d="M861.45,355.35a2.36,2.36,0,0,0-2.21-1.37,5.25,5.25,0,0,0-3.77.67,7.83,7.83,0,0,0-1.76,4.86q-.16,8,.07,15.89a6,6,0,0,0,1.68,3.85,3.3,3.3,0,0,0,5.27-1.65,31.33,31.33,0,0,0,1.45-9.32c.13-1.82.19-3.64.18-5.47A16.07,16.07,0,0,0,861.45,355.35Zm-1,10.77a58,58,0,0,1-1,10.35,2.79,2.79,0,0,1-1.73,1.94l-.28,0a1.53,1.53,0,0,1-1.08-.91,18,18,0,0,1-.8-7,57,57,0,0,1,.55-13.18,2.34,2.34,0,0,1,1.91-1.85c.35,0,.7.08,1,.15a1,1,0,0,1,.76.61,12.39,12.39,0,0,1,.64,2.77A40.43,40.43,0,0,1,860.45,366.12Z" transform="translate(-172 -222.09)" fill="#fff"/><path d="M797,352.82l.07,31.74a.82.82,0,0,0,1.63,0l-.07-31.74a.82.82,0,0,0-1.63,0Z" transform="translate(-172 -222.09)" fill="#fff"/><path d="M791.77,357.8c2.92-2.4,11.66-8.82,14.82-3s-2.47,13.26-8.08,14.25l.43,1.57c2.41-.67,5.7-1.83,7.62,1.15a10.91,10.91,0,0,1,.85,5.48c-1.28,7.59-8.72,7.56-14,4.32-.9-.55-1.72.87-.83,1.41,5.57,3.41,14.44,3.71,16.27-4.13.59-2.53.14-7.55-1.61-9.65-2-2.34-6.2-.85-8.72-.15a.81.81,0,0,0,.43,1.57c7.6-1.33,12.28-10.31,8.81-17.46-3.22-6.61-13.62.57-17.13,3.47-.81.67.35,1.82,1.15,1.15Z" transform="translate(-172 -222.09)" fill="#fff"/><path d="M890.37,503.24a26.33,26.33,0,0,0-.19-5.54,1.25,1.25,0,0,1,1.54-1.35l.6.09.3.09a.86.86,0,0,0,.49-1.63,14.15,14.15,0,0,0-2.49-.53A.72.72,0,0,1,890,494a3,3,0,0,1-.08-1.15,35.86,35.86,0,0,1,.3-7.75,1.37,1.37,0,0,1,1.29-1.14,20.82,20.82,0,0,1,2.62,0,1.23,1.23,0,0,0,.65-.13l.2-.18a2.41,2.41,0,0,0,.28-.91.58.58,0,0,0-.43-.59,2.86,2.86,0,0,0-1.2,0c-1.41.14-2.83.3-4.24.48l-.66.17a.84.84,0,0,0-.38.51,5.26,5.26,0,0,0-.11,1.48q-.12,8.89.15,17.79a.67.67,0,0,1-.24.51.24.24,0,0,1-.18.05.21.21,0,0,1-.16-.1l-.09-.21q-1-12.52-1-25.09a5.34,5.34,0,0,0-.31-1.53.72.72,0,0,0-.61-.5.88.88,0,0,0-.64.24.86.86,0,0,0-.26.63q.35,8.4.31,16.8a1.05,1.05,0,0,1-.58.89,4.84,4.84,0,0,1-1.46.28c-.92.13-1.83.23-2.75.28a.81.81,0,0,1-.81-.49,4.41,4.41,0,0,1,0-1.45q-.09-6.51-.56-13a.8.8,0,0,0-1.58,0,6.83,6.83,0,0,0,0,1.43q.18,11.65.43,23.32a2.18,2.18,0,0,0,.36,1.1.58.58,0,0,0,.44.21.59.59,0,0,0,.45-.18,2.37,2.37,0,0,0,.61-1.7q-.06-3.14-.18-6.27a1,1,0,0,1,.51-.85,4.34,4.34,0,0,1,1.47-.31,9.08,9.08,0,0,1,2.85-.07,1.42,1.42,0,0,1,1,1.1,64.65,64.65,0,0,1,1,12.5,2.94,2.94,0,0,0,.17.71.86.86,0,0,0,.44.44.59.59,0,0,0,.53-.08,1.64,1.64,0,0,0,.6-1.47,17.6,17.6,0,0,1,0-2.41l.14-.64a.62.62,0,0,1,.48-.28,19.81,19.81,0,0,1,4.41-.43.78.78,0,0,0,.55-.26,1.87,1.87,0,0,0,.4-.49.84.84,0,0,0-.05-.74.83.83,0,0,0-.63-.39,11.69,11.69,0,0,0-2.29,0,.72.72,0,0,1-.48,0,.57.57,0,0,1-.26-.4l0-.41Z" transform="translate(-172 -222.09)" fill="#fff"/><path d="M1037.88,510.66a1.35,1.35,0,0,0-1.29-.17l-.57.49a5,5,0,0,1-5,1.86,6,6,0,0,1-4.53-3.17,22.34,22.34,0,0,1-2.87-6.95,24.45,24.45,0,0,0-3.95-8.65.45.45,0,0,1-.06-.28.43.43,0,0,1,.13-.26c.28-.22.58-.43.87-.63a10.79,10.79,0,0,0,4.31-10,5.13,5.13,0,0,0-2-5,7.48,7.48,0,0,0-6-1.42,6.58,6.58,0,0,1-2-.09l-.35,0a.74.74,0,0,0-.71.4,6.05,6.05,0,0,0-.4,2.18q-.15,11.66.17,23.33-.06,2.92.06,5.85a.85.85,0,0,0,.33.66,1.24,1.24,0,0,0,.8.26.92.92,0,0,0,.68-.5,6,6,0,0,0,.34-3.29c0-3.09,0-6.17-.13-9.25a3.5,3.5,0,0,1,.15-.64.71.71,0,0,1,.38-.4.94.94,0,0,1,.6,0,4.56,4.56,0,0,1,2.65,2.39q1.89,6,4.14,11.92a11.11,11.11,0,0,0,5,5,9.31,9.31,0,0,0,9.42-2.48A.89.89,0,0,0,1037.88,510.66Zm-20.65-18.25a1.52,1.52,0,0,1-1-.08.87.87,0,0,1-.42-.69q-.15-6.22-.25-12.45a.85.85,0,0,1,.51-.67,4.21,4.21,0,0,1,2.14-.38,11,11,0,0,1,1.72.14,2.29,2.29,0,0,1,1.49.64,8.64,8.64,0,0,1,1.56,6.91C1023,488.87,1020.68,491.57,1017.23,492.41Z" transform="translate(-172 -222.09)" fill="#fff"/><path d="M936.77,508.45a1.38,1.38,0,0,0-1.28-.16l-.58.48a5.06,5.06,0,0,1-4.95,1.79,6,6,0,0,1-4.53-3.07,21.21,21.21,0,0,1-2.86-6.74,23.58,23.58,0,0,0-4-8.38.37.37,0,0,1-.06-.27.41.41,0,0,1,.13-.26c.28-.21.57-.41.87-.61a10.33,10.33,0,0,0,4.31-9.74,4.9,4.9,0,0,0-2-4.84,7.67,7.67,0,0,0-6-1.38,6.92,6.92,0,0,1-2-.08l-.35-.05a.78.78,0,0,0-.71.39,5.78,5.78,0,0,0-.4,2.12q-.15,11.31.17,22.62-.06,2.84.06,5.67a.85.85,0,0,0,.33.65,1.27,1.27,0,0,0,.8.24.9.9,0,0,0,.68-.48,5.64,5.64,0,0,0,.34-3.19q.07-4.49-.14-9a4.34,4.34,0,0,1,.16-.62.65.65,0,0,1,.38-.38.86.86,0,0,1,.59,0,4.49,4.49,0,0,1,2.66,2.31q1.89,5.82,4.14,11.56a10.91,10.91,0,0,0,5,4.88,9.5,9.5,0,0,0,9.42-2.41A.86.86,0,0,0,936.77,508.45Zm-20.64-17.69a1.55,1.55,0,0,1-1-.08.85.85,0,0,1-.41-.67q-.15-6-.26-12.07a.85.85,0,0,1,.52-.65,4.32,4.32,0,0,1,2.14-.37,12.34,12.34,0,0,1,1.72.14,2.3,2.3,0,0,1,1.48.62,8.12,8.12,0,0,1,1.56,6.7C921.93,487.33,919.57,490,916.13,490.76Z" transform="translate(-172 -222.09)" fill="#fff"/><path d="M980.66,491.21a113.53,113.53,0,0,1,.19-13.68,2.45,2.45,0,0,0-.16-.66.93.93,0,0,0-.9-.57.94.94,0,0,0-.85.66q-.69,9.45-.52,18.93.29,7.53.11,15.07a1.33,1.33,0,0,0,.87,1.15.56.56,0,0,0,.5-.09,1.93,1.93,0,0,0,.6-1,68.17,68.17,0,0,0,.21-9.9c-.17-3.31-.19-6.63-.05-9.94Z" transform="translate(-172 -222.09)" fill="#fff"/><path d="M958.14,490.62q0-4.23.21-8.44a.56.56,0,0,1,.14-.25.12.12,0,0,1,.14,0,.65.65,0,0,1,.36.35c.41,1.22.78,2.46,1.12,3.7q1.47,6.1,3,12.2a2.71,2.71,0,0,0,.4.75.6.6,0,0,0,.72.21,1.9,1.9,0,0,0,.85-1,88.62,88.62,0,0,1,5.44-13.54.14.14,0,0,1,.11-.06.12.12,0,0,1,.1.08,2.22,2.22,0,0,1,.11.92,143.53,143.53,0,0,0-.2,18,54.14,54.14,0,0,0,0,6.86,1.56,1.56,0,0,0,.41.91l.21.19a.56.56,0,0,0,.52,0,1.49,1.49,0,0,0,.47-.43,1.72,1.72,0,0,0,.43-1.26q-.56-16,.34-32a8.72,8.72,0,0,0,.08-2.65.92.92,0,0,0-1.24-.73.92.92,0,0,0-.4.51,59.3,59.3,0,0,1-5,14c-.49,1.35-1,2.72-1.43,4.09a4.82,4.82,0,0,1-.6,1.4.21.21,0,0,1-.17.07.23.23,0,0,1-.17-.1,1.52,1.52,0,0,1-.22-.58A142.22,142.22,0,0,0,958.38,475a1.79,1.79,0,0,0-.85-.78.9.9,0,0,0-.77.22,1,1,0,0,0-.31.74q0,16.2-.53,32.4c.06,1.05.15,2.1.26,3.15a1,1,0,0,0,.49.68.65.65,0,0,0,.53,0,1.56,1.56,0,0,0,.63-1.55q.09-9.61.31-19.22Z" transform="translate(-172 -222.09)" fill="#fff"/><path d="M1006.67,500.93c0-3.1,0-6.21.07-9.31a2.53,2.53,0,0,1,.71-1.54,1.11,1.11,0,0,1,1.25-.22,6,6,0,0,1,.78.27.81.81,0,0,0,1.11-.4,2.08,2.08,0,0,0,.15-1.68,1.15,1.15,0,0,0-.53-.5c-1-.28-1.94-.53-2.91-.74a.9.9,0,0,1-.54-.74,10,10,0,0,1-.09-1.73c0-3.27.06-6.53.25-9.78a1.12,1.12,0,0,1,.6-.94,4.61,4.61,0,0,1,1.23,0c.51,0,1,0,1.53-.07a1.61,1.61,0,0,0,1.23-1.12,1.3,1.3,0,0,0,0-.65.76.76,0,0,0-.3-.47,1.52,1.52,0,0,0-.87-.3c-1.48-.17-3-.33-4.42-.47a1.16,1.16,0,0,0-.85.67,2.59,2.59,0,0,0-.25,1.37q.17,19.29-.19,38.58a3.33,3.33,0,0,0,.49,1.89,1.48,1.48,0,0,0,1.27.73,25.7,25.7,0,0,0,4.47-.21c.61-.08,1.09-.8,1.14-1.7a1.05,1.05,0,0,0-.24-.63l-.26-.15a3.64,3.64,0,0,0-2.26-.06c-.66,0-1.32.05-2,.09a.58.58,0,0,1-.52-.31,1.33,1.33,0,0,1-.19-.78q.1-4.53.1-9.06Z" transform="translate(-172 -222.09)" fill="#fff"/><path d="M988.44,508.22q.19-15.77-.26-31.54l-.14-1.42a1,1,0,0,0-.22-.63.58.58,0,0,0-.48-.26.63.63,0,0,0-.48.27l-.14.27a7.07,7.07,0,0,0,0,2.34l0,30.4c0,1,.08,2,.18,2.93l0,.61a1.53,1.53,0,0,0,1.35,1.43,41.49,41.49,0,0,0,9,.17.75.75,0,0,0,.6-.75.74.74,0,0,0-.62-.73,25.29,25.29,0,0,0-3.14,0,33.7,33.7,0,0,1-4.92-.21.76.76,0,0,1-.45-.29,1.42,1.42,0,0,1-.08-.18c0-.12-.06-.23-.08-.34,0-.68-.06-1.35-.07-2Z" transform="translate(-172 -222.09)" fill="#fff"/><path d="M900.89,488.16a164.91,164.91,0,0,0,6.76,15.49.56.56,0,0,0,.7.22,1.64,1.64,0,0,0,.81-1,10.17,10.17,0,0,0,.29-3.43q-.5-15,.47-30.06a1.65,1.65,0,0,0-.37-.94.83.83,0,0,0-1.41.09,3,3,0,0,0-.1,1.16q-1,13.78-.68,27.62l-.1.56a.15.15,0,0,1-.11.08.14.14,0,0,1-.12-.06,120.87,120.87,0,0,1-6.82-17.64,1.47,1.47,0,0,0-1.2-.9.76.76,0,0,0-.73.47l-.07.33q0,11.91-.53,23.82a1.47,1.47,0,0,0,.8,1.15.51.51,0,0,0,.49,0l.17-.2a4.56,4.56,0,0,0,.52-2q.47-7.56.4-15.15a.27.27,0,0,1,.26-.23.44.44,0,0,1,.39.22l.18.39Z" transform="translate(-172 -222.09)" fill="#fff"/><path d="M930.61,489.67a94.72,94.72,0,0,1,.68,17.57c-.06,1.12,1.68,1.12,1.74,0a94.72,94.72,0,0,0-.68-17.57c-.14-1.09-1.89-1.11-1.74,0Z" transform="translate(-172 -222.09)" fill="#fff"/><path d="M932.32,490.4q-2.8-7.09-6-14.06c-.46-1-2-.14-1.5.88q3.06,6.75,5.78,13.65c.41,1,2.1.58,1.68-.47Z" transform="translate(-172 -222.09)" fill="#fff"/><path d="M934.89,477.32c-.21,4.31-2.58,8.7-4.09,12.69-.39,1.05,1.29,1.5,1.68.46,1.57-4.16,3.94-8.65,4.15-13.15,0-1.12-1.69-1.12-1.74,0Z" transform="translate(-172 -222.09)" fill="#fff"/><path d="M994.55,477.47c0,8.62-.08,17.24,0,25.86,0,5.34,2.42,6,7.87,5.71,1.11-.07,1.12-1.81,0-1.75a6.67,6.67,0,0,1-6.12-2V477.47a.87.87,0,0,0-1.74,0Z" transform="translate(-172 -222.09)" fill="#fff"/><path d="M863.52,497.8h2.9a.87.87,0,0,0,0-1.74h-2.9a.87.87,0,0,0,0,1.74Z" transform="translate(-172 -222.09)" fill="#fff"/><path d="M481.84,487.54" transform="translate(-172 -222.09)" fill="#fff"/><path d="M478.47,493.38a1.19,1.19,0,0,1-.42.11,31.47,31.47,0,0,0-3.22.22,6.71,6.71,0,0,1-3.18-.07.89.89,0,0,1-.52-.43,1.66,1.66,0,0,1-.24-1.11,407.16,407.16,0,0,0,5.39-43.88q1-11.66,1.67-23.32a11.28,11.28,0,0,0,.09-1.42.56.56,0,0,0-.25-.44,1.54,1.54,0,0,0-.76-.14c-1,.05-2,.12-3.06.22a1.12,1.12,0,0,1-.75-.19,1.44,1.44,0,0,1-.4-1.2,33.33,33.33,0,0,0,.38-8,1.14,1.14,0,0,1,.21-.71,1.29,1.29,0,0,1,1.1-.36,26,26,0,0,0,3.42.05,49.81,49.81,0,0,0,16.55-1.14,1.22,1.22,0,0,1,1.49.88,3.61,3.61,0,0,1-.05,1.5q-3.09,14.29-6.33,28.56-3.1,16.5-6.41,33h0q-1,5.49-2.35,10.93c0,.38-.07.75-.13,1.13h1.14l15.83-4.61a1.52,1.52,0,0,0,1-1l.85-3a1.62,1.62,0,0,1,1.4-1.17l5.11-.51a.51.51,0,0,1,.55.63l-3,11.9a1.81,1.81,0,0,1-1.6,1.36l-21.57,2Z" transform="translate(-172 -222.09)" fill="#fff"/><path d="M644.43,475q1.7-13.12,2.66-26.32,1.86-13.85,4.46-27.58a.87.87,0,0,0-.15-.76,1.23,1.23,0,0,0-.74-.46,10,10,0,0,0-4.12.11L630,421.71a.85.85,0,0,0-.77.75,5,5,0,0,0,.08,1.39,13.91,13.91,0,0,1-.55,4.75,1.73,1.73,0,0,0,.35,1.16,1,1,0,0,0,.53.25,9.29,9.29,0,0,0,2.74-.2l1-.2a1.1,1.1,0,0,1,.65.05l.19.17a1.16,1.16,0,0,1,.09.63q.35,11.42,1,22.82-.2,10.34.31,20.69a103.08,103.08,0,0,0,.52,14.69l.33.95a.77.77,0,0,0,.33.22,2.16,2.16,0,0,0,.67.14,32.24,32.24,0,0,1,4,.07.82.82,0,0,0,1-.41,7.44,7.44,0,0,0,.55-3.39q.63-5.62,1.38-11.26Z" transform="translate(-172 -222.09)" fill="#fff"/><path d="M642.84,489.89l19.93-.59a1.55,1.55,0,0,0,1.42-1L667.3,480a1.45,1.45,0,0,0-1.27-1.91l-4.06-.51a1.54,1.54,0,0,0-1.75,1.18l-.44,2.37a1.51,1.51,0,0,1-1.39,1.18l-15,1.26a1.53,1.53,0,0,1-1.71-1.5l.64-19.9a1.5,1.5,0,0,1,1.44-1.4l18.39-1.23a1.51,1.51,0,0,0,1.42-1.17l1.21-6.08a1.5,1.5,0,0,0-1.59-1.72l-18.41.54a1.49,1.49,0,0,1-1.57-1.82l5.05-17.61a1.54,1.54,0,0,1,1.55-1.07l19.28.62a1.48,1.48,0,0,1,1.47,1.78h0a1.48,1.48,0,0,0,1.48,1.78l3.49.12a1.53,1.53,0,0,0,1.58-1.16l3.72-17.41a1.51,1.51,0,0,0-1.78-1.72l-43.67,6.26a1.46,1.46,0,0,0-1.31,1.57l7.21,66.14A1.53,1.53,0,0,0,642.84,489.89Z" transform="translate(-172 -222.09)" fill="#fff"/><path d="M503.28,289.64a9.8,9.8,0,0,1,2.42-2.07c1.14-.69.09-2.49-1.05-1.79a11.64,11.64,0,0,0-2.84,2.39,1.08,1.08,0,0,0,0,1.47,1,1,0,0,0,1.47,0Z" transform="translate(-172 -222.09)" fill="#fff"/><path d="M593.37,321a1,1,0,0,0,0-2.08,1,1,0,0,0,0,2.08Z" transform="translate(-172 -222.09)" fill="#fff"/><path d="M919.09,319.08l-2.62,3.58a1,1,0,0,0,.37,1.42,1.06,1.06,0,0,0,1.42-.37l2.62-3.58a1,1,0,0,0-.37-1.42,1.06,1.06,0,0,0-1.42.37Z" transform="translate(-172 -222.09)" fill="#fff"/><path d="M329.3,383.86l-3.05,3.86c-.82,1,.64,2.52,1.47,1.47l3-3.86c.82-1-.64-2.52-1.47-1.47Z" transform="translate(-172 -222.09)" fill="#fff"/><path d="M567.21,347.62l1.45-1.85a1.07,1.07,0,0,0,0-1.47,1.05,1.05,0,0,0-1.47,0l-1.45,1.85a1.07,1.07,0,0,0,0,1.47,1,1,0,0,0,1.47,0Z" transform="translate(-172 -222.09)" fill="#fff"/></svg>