<svg id="Capa_5" data-name="Capa 5" xmlns="http://www.w3.org/2000/svg" viewBox="0 0 900 340"><title>S02</title><rect width="900" height="340" fill="none"/><path d="M602.85,443.45a1.93,1.93,0,0,0-1-2.1c-.41-.16-.83-.3-1.24-.42l-.42-.12a2.62,2.62,0,0,0-1,.16q-8.78,1.5-17.58,2.85-10,1.65-20,2.51a15.93,15.93,0,0,0-3.59,1,1.57,1.57,0,0,0-.9,1q-.61,4.63-1.43,9.24c-.1.42-.19.85-.27,1.27a2,2,0,0,0,.13,1.18.7.7,0,0,0,.48.34h.39q2.3-.45,4.62-.72a55.68,55.68,0,0,0,5.91-.53,1.66,1.66,0,0,1,1.14.3,1,1,0,0,1,.33.62,4.27,4.27,0,0,1-.2,1.74q-1.94,12.86-4,25.68-1.62,10.47-2.94,21l-.12.7h0a2.5,2.5,0,0,1,.15.38,1.83,1.83,0,0,1,.26.21h0a84.08,84.08,0,0,1,8.65-1.21,2.56,2.56,0,0,1,.78,0,16.81,16.81,0,0,1,2.13-.14,3.88,3.88,0,0,1,.89-.23l.16,0a4.55,4.55,0,0,0,.9-2,1.15,1.15,0,0,1-.11-.55,326.74,326.74,0,0,1,7.32-45.79,1.58,1.58,0,0,1,1-1,41.93,41.93,0,0,1,7.76-.15c2.58-.09,5.17-.06,7.75.09a2.26,2.26,0,0,0,1.87-1.67Q601.87,450.2,602.85,443.45Z" transform="translate(-172 -222.09)" fill="#fff"/><path d="M628.5,430a12.91,12.91,0,0,0-18.92,5.36,38.32,38.32,0,0,0-3.7,13.26q-.66,10.86-.65,21.74a132.51,132.51,0,0,0,.43,25.58,15.83,15.83,0,0,0,1.34,3.44.67.67,0,0,1,0,.37l-.06.14c.06.17.11.34.17.52a2.63,2.63,0,0,1,.32.77h0c.11.16.21.33.32.5l.52.29a6.74,6.74,0,0,0,2.64.75c.46,0,1,.16,1.48.17a3.29,3.29,0,0,0,.38-.16,3.71,3.71,0,0,1,1.12-.38,5.9,5.9,0,0,1,1.26-.9,24.59,24.59,0,0,0,7.49-12.87,411.85,411.85,0,0,0,9.85-45A16.42,16.42,0,0,0,628.5,430Zm-5.35,25.13q-1.53,6.66-2.5,13.44-2.5,11.56-5.38,23.07a3.8,3.8,0,0,1-1.44,2.21.51.51,0,0,1-.3.06.28.28,0,0,1-.2-.13,1,1,0,0,1-.18-.67,32.11,32.11,0,0,0,.29-4.6q2.4-15.64,4.62-31.31a79.8,79.8,0,0,1,4.06-18.11,1.62,1.62,0,0,1,1-.89.51.51,0,0,1,.54.11,1.24,1.24,0,0,1,.24.62A55.38,55.38,0,0,1,623.15,455.12Z" transform="translate(-172 -222.09)" fill="#fff"/><path d="M484.51,513.1a7.43,7.43,0,0,0,.1-3.35,145,145,0,0,1,.32-19.44q1.21-20.08,3.65-40.06,1-7.41,1.75-14.85a1.74,1.74,0,0,1,1.4-1.38,20.06,20.06,0,0,1,2.44-.42,1.47,1.47,0,0,0,1.27-1.13,6.17,6.17,0,0,0,.19-2,42.53,42.53,0,0,1,.49-4.78,1.33,1.33,0,0,0-.33-1,.76.76,0,0,0-.55-.31,12.08,12.08,0,0,0-4.66.53c-3.48.24-6.95.55-10.42.95a1.14,1.14,0,0,0-.87.73,12.1,12.1,0,0,0-.17,2.88q-.63,9.69-.43,19.41-.09,4.46.1,8.9a.65.65,0,0,1-.53.64,8.64,8.64,0,0,1-1.44.08c-2.57.1-5.14.26-7.71.51a.87.87,0,0,1-.72-.19,1.17,1.17,0,0,1-.23-.75,165.4,165.4,0,0,0-.83-21.46,103.84,103.84,0,0,1,.77-14.86c.1-.28.21-.55.32-.82a.84.84,0,0,0-.57-1.05,1.94,1.94,0,0,0-.86-.12q-9.06.69-18.16.75a1,1,0,0,0-1.07.86c0,.1,0,.19,0,.28v0a12,12,0,0,0,0,1.47q-.06,3.84-.3,7.67a1.46,1.46,0,0,0,1.85,1.47l4.75-.76a1.15,1.15,0,0,1,.81.15,1.17,1.17,0,0,1,.37.74q1.86,24,1.92,48.2.5,11.88,1.05,23.76a1.81,1.81,0,0,0,.64,1.2,2,2,0,0,0,1.42.2q3.48-.5,6.93-1.18a1.17,1.17,0,0,0,1-1.15,3.31,3.31,0,0,0-.1-1.29,109.53,109.53,0,0,1-.9-18l.24-4.15a1.61,1.61,0,0,1,1.19-1.49,58.67,58.67,0,0,1,6.95-1.56,1.28,1.28,0,0,1,1.12.32,1.32,1.32,0,0,1,.25.74q0,17.58.36,35.16a.84.84,0,0,1-.19.53l6.84,0A1.07,1.07,0,0,0,484.51,513.1Z" transform="translate(-172 -222.09)" fill="#fff"/><path d="M518.79,485.73q1.58-17.55,2.32-35.16,1.73-18.51,4.32-36.92a1.34,1.34,0,0,0-.2-1,1.31,1.31,0,0,0-.85-.56,9.69,9.69,0,0,0-4.66.35L501,415.61a1.09,1.09,0,0,0-.85,1,7.57,7.57,0,0,0,.13,1.84,21.52,21.52,0,0,1-.5,6.35,2.56,2.56,0,0,0,.42,1.52,1.05,1.05,0,0,0,.62.31,8.77,8.77,0,0,0,3.09-.41l1.14-.32a1.11,1.11,0,0,1,.74,0l.22.22a1.8,1.8,0,0,1,.11.83q.69,15.17,1.77,30.3.06,13.76.9,27.51a161,161,0,0,0,1,19.51l.4,1.25a.86.86,0,0,0,.38.27,2.2,2.2,0,0,0,.76.16,32,32,0,0,1,4.59-.12.91.91,0,0,0,1.06-.59,11.46,11.46,0,0,0,.53-4.54q.57-7.53,1.26-15Z" transform="translate(-172 -222.09)" fill="#fff"/><path d="M549.25,503.65A15.72,15.72,0,0,0,556,490.33a49.7,49.7,0,0,0-.79-18.82,155.72,155.72,0,0,0-6.84-29.44,6.73,6.73,0,0,1,2.28-8.08,4.56,4.56,0,0,1,3.29-.16,1,1,0,0,1,.62.5.86.86,0,0,1,.09.39.77.77,0,0,1-.14.39,20.51,20.51,0,0,1-1.6,1.63,16.11,16.11,0,0,0-1.77,1.92,1.19,1.19,0,0,0,0,1.44,15.08,15.08,0,0,0,3.68,3.17,3.22,3.22,0,0,0,.86.5,1.78,1.78,0,0,0,1.64-.49q5.26-4.65,10.33-9.52a6.79,6.79,0,0,0,1-1.21,1,1,0,0,0,0-.76,8.83,8.83,0,0,0-2.4-3,46.12,46.12,0,0,0-8.74-7.07,24.74,24.74,0,0,0-17.13-2.06,17.77,17.77,0,0,0-10,19.46,82,82,0,0,0,3.92,14q3.51,12.69,7.81,25.13a16.09,16.09,0,0,1-1.56,14.21,7.89,7.89,0,0,1-10.38-.72q-1-.75-2-1.44a1.35,1.35,0,0,0-1.11-.1,1.33,1.33,0,0,0-.81.75,123.85,123.85,0,0,0-6.35,14.16,1.25,1.25,0,0,0,.24,1.13,7.19,7.19,0,0,0,1.5,1.07c1,.7,2,1.37,3,2a1.06,1.06,0,0,0,1.11-.1,3,3,0,0,0,1.08-1.29c.52-1,1-2.09,1.57-3.12a2.08,2.08,0,0,1,1-.9,1.31,1.31,0,0,1,.76.05,23.85,23.85,0,0,0,19.06-.39Z" transform="translate(-172 -222.09)" fill="#fff"/><path d="M703.39,515.34a1.49,1.49,0,0,0-.74-1,41.63,41.63,0,0,1-4.9-3.2,1.82,1.82,0,0,0-2.22.48q-2.1,2.32-4,4.82a2.12,2.12,0,0,1-1.87.58,26.18,26.18,0,0,1-11.37-6.86,65.59,65.59,0,0,1-15.06-18A94,94,0,0,1,656,470.85c-.21-1-.4-2-.58-3a2.5,2.5,0,0,1,.34-1.44l.55-.67a56.59,56.59,0,0,0,12.56-19.94,21.7,21.7,0,0,0-.7-15.36,20.82,20.82,0,0,0-20.34-13q-6.81-.3-13.62-.5c-.35-.09-.69-.2-1-.32l-.44-.14a.83.83,0,0,0-.7.14.86.86,0,0,0-.34.64c0,.32,0,.65.06,1a60.84,60.84,0,0,1-.8,9.63,1.92,1.92,0,0,0,2.17,2.07,8.68,8.68,0,0,0,.88,0,1.2,1.2,0,0,1,.72.13.77.77,0,0,1,.35.54,10.63,10.63,0,0,1,.1,1.78,147,147,0,0,1-2,25.05q-2.55,21.79-4.57,43.64c-.09.88-.2,1.76-.32,2.63a1.69,1.69,0,0,0,2.07,1.73,52.72,52.72,0,0,1,6.63-1,2.37,2.37,0,0,0,2-2.64q1.39-15.53,3.77-30.95a1.94,1.94,0,0,1,.61-1,2.22,2.22,0,0,1,1-.34l1.09-.25a1.76,1.76,0,0,1,.79,0,.74.74,0,0,1,.42.41,20.59,20.59,0,0,1,.8,4.35,50.89,50.89,0,0,0,3.7,15,120.3,120.3,0,0,0,6.17,17.4q4.76,7.55,9.88,14.83a58.67,58.67,0,0,0,23.11,15.25A1.55,1.55,0,0,0,692,536a65.7,65.7,0,0,0,5.67-9.87,54.66,54.66,0,0,0,5.64-9.89A1.17,1.17,0,0,0,703.39,515.34Zm-46.67-71.28a17.27,17.27,0,0,1-9.89,13.1,1.72,1.72,0,0,1-.87.14.42.42,0,0,1-.35-.38l.1-.82q.85-6.33,1.45-12.69.4-5.87,1-11.71a1,1,0,0,1,1.14-.75,8.67,8.67,0,0,1,5.64,3.4A11,11,0,0,1,656.72,444.06Z" transform="translate(-172 -222.09)" fill="#fff"/><path d="M681.36,475.74q3.4-17,6.62-34,3.33-14.7,6.51-29.44a3.52,3.52,0,0,0,.06-1.55,1.27,1.27,0,0,0-1.54-.91A51,51,0,0,1,676,411a25.85,25.85,0,0,1-3.52-.05,1.33,1.33,0,0,0-1.14.37,1.19,1.19,0,0,0-.22.73,34.27,34.27,0,0,1-.39,8.22,1.48,1.48,0,0,0,.41,1.24,1.1,1.1,0,0,0,.78.2c1-.1,2.1-.18,3.15-.22a1.66,1.66,0,0,1,.79.14.55.55,0,0,1,.25.45,8.88,8.88,0,0,1-.09,1.46q-.69,12-1.72,24.05a422,422,0,0,1-5.55,45.24,1.69,1.69,0,0,0,.24,1.14.89.89,0,0,0,.54.45,6.86,6.86,0,0,0,3.28.07c1.1-.13,2.2-.21,3.31-.23a1.31,1.31,0,0,0,1-.6,18.36,18.36,0,0,0,1.86-6.69q1.35-5.6,2.42-11.27Z" transform="translate(-172 -222.09)" fill="#fff"/><path d="M756.51,480.44A136.82,136.82,0,0,0,747.07,458,43.64,43.64,0,0,1,742,444.07a14.28,14.28,0,0,1,1.38-7,3.71,3.71,0,0,1,2.08-1.52,1.48,1.48,0,0,1,1.24,2.41c-.63.63-1.25,1.27-1.86,1.91a1,1,0,0,0,0,1.08,9.91,9.91,0,0,0,2.37,2.9,3.11,3.11,0,0,0,3.66,0q4.85-3.42,9.46-7.15a1,1,0,0,0,.18-1.07,13.92,13.92,0,0,0-2.27-3.33,22.61,22.61,0,0,0-18.49-6.52,20.86,20.86,0,0,0-13.29,7.34A19.31,19.31,0,0,0,728,452.17q8.22,14.83,15.85,30a8,8,0,0,1-1.91,8.89,2,2,0,0,1-2.45.13,21.94,21.94,0,0,1-4.76-7.42,6,6,0,0,0-1.13-1.59,1.26,1.26,0,0,0-1.24-.16,33.92,33.92,0,0,0-3.65,1.87q-4,1.86-8.11,3.65a.76.76,0,0,1-.78-.35,5.72,5.72,0,0,1-.51-1.51,187.44,187.44,0,0,1-5.36-24,129.89,129.89,0,0,1-2.4-24.33,52.71,52.71,0,0,0-.81-6.62,2.33,2.33,0,0,0-2.9-1.36,58.94,58.94,0,0,1-8.49.92,1,1,0,0,0-.83.72,9.68,9.68,0,0,0-.16,1.52c-.18,1.38-.42,2.74-.72,4.09a1.66,1.66,0,0,0,.59,1.59,1,1,0,0,0,.7.14c.44,0,.89-.09,1.33-.15a.81.81,0,0,1,.71.21.76.76,0,0,1,.22.7,5.87,5.87,0,0,1-.54,1.74q-2.85,12.27-5.79,24.51-5.79,20.91-11.89,41.74a2.61,2.61,0,0,0-.09,1,1.54,1.54,0,0,0,1.49,1.12c1.67-.14,3.33-.32,5-.55a18.74,18.74,0,0,0,3.64-.49,2.46,2.46,0,0,0,1.4-1.54q2.22-7.29,4.72-14.5c.26-.92.55-1.84.86-2.74a2.45,2.45,0,0,1,1.33-1.55,19.94,19.94,0,0,1,6.62-1.6,1.13,1.13,0,0,1,1.11.56,2.85,2.85,0,0,1,.34,1.14q1,11.55,1.75,23.12a1,1,0,0,0,.68.8,2.12,2.12,0,0,0,1.22,0q5.07-.84,10.12-1.77a2,2,0,0,0,1.19-.79,3.62,3.62,0,0,0,.13-2.51q-.9-4.41-1.86-8.8a1.1,1.1,0,0,1,.37-1,20.94,20.94,0,0,1,3.57-2,1.22,1.22,0,0,1,1.53.48,14.85,14.85,0,0,0,21.37,3.36A15.52,15.52,0,0,0,756.51,480.44Zm-48.58-1.39-3.23.8a2.73,2.73,0,0,1-1.5.06.64.64,0,0,1-.5-.74l3.54-14.87.17-.55a3.17,3.17,0,0,1,.6-1.22.16.16,0,0,1,.16,0,.16.16,0,0,1,.12.12,81.32,81.32,0,0,1,1.53,15.33A1.14,1.14,0,0,1,707.93,479.05Z" transform="translate(-172 -222.09)" fill="#fff"/><path d="M871,367.36a44.78,44.78,0,0,1,1.66-17.15,2.92,2.92,0,0,1,.65-.87.7.7,0,0,1,.5-.18.69.69,0,0,1,.49.23.56.56,0,0,1,.1.15c.1.22.19.44.27.67a6.65,6.65,0,0,1,.33.84,1,1,0,0,0,.8.73.86.86,0,0,0,.89-.62,4.05,4.05,0,0,0-3.37-4.89,2.29,2.29,0,0,0-1.77,1.05,25.21,25.21,0,0,0-3,12.14q-.12,11.51.67,23a6.89,6.89,0,0,0,2.39,4.52,3.44,3.44,0,0,0,3.45-.15,2.52,2.52,0,0,0,1.38-1.95.88.88,0,0,0-.43-.78.87.87,0,0,0-.88,0l-.37.3q-.37.25-.72.54l-.37.23a1,1,0,0,1-1.09-.23,4.43,4.43,0,0,1-1-2.49,103.89,103.89,0,0,1-.55-15.07Z" transform="translate(-172 -222.09)" fill="#fff"/><path d="M862.25,377.22a33,33,0,0,0-.22-6.81,1.54,1.54,0,0,1,.5-1.33,1.51,1.51,0,0,1,1.38-.33l.74.12.37.1a1.06,1.06,0,0,0,.61-2,18.07,18.07,0,0,0-3.07-.66.86.86,0,0,1-.71-.51,3.73,3.73,0,0,1-.1-1.41,44.67,44.67,0,0,1,.37-9.53,1.68,1.68,0,0,1,1.59-1.4,24.56,24.56,0,0,1,3.21,0,1.56,1.56,0,0,0,.8-.16l.25-.22a3,3,0,0,0,.35-1.12.73.73,0,0,0-.54-.73,3.42,3.42,0,0,0-1.46,0c-1.75.17-3.49.36-5.22.58l-.82.21a1.05,1.05,0,0,0-.46.63,6.55,6.55,0,0,0-.13,1.82c-.1,7.28,0,14.58.19,21.86a.87.87,0,0,1-.31.63.29.29,0,0,1-.22.06.25.25,0,0,1-.19-.12l-.12-.26q-1.27-15.39-1.23-30.84a7.06,7.06,0,0,0-.38-1.88.9.9,0,0,0-.76-.61,1,1,0,0,0-.78.29,1,1,0,0,0-.32.77Q856,354.71,856,365a1.27,1.27,0,0,1-.71,1.09,6.17,6.17,0,0,1-1.8.34c-1.12.17-2.25.29-3.38.35a1,1,0,0,1-1-.61,5.26,5.26,0,0,1,0-1.77q-.12-8-.69-16a1,1,0,0,0-1-.83,1,1,0,0,0-1,.83,8,8,0,0,0,0,1.76q.21,14.32.52,28.66a2.62,2.62,0,0,0,.45,1.35.74.74,0,0,0,.54.26.71.71,0,0,0,.55-.23,2.85,2.85,0,0,0,.75-2.08q-.08-3.86-.22-7.71a1.25,1.25,0,0,1,.63-1.05,5.79,5.79,0,0,1,1.8-.38,11.11,11.11,0,0,1,3.5-.08,1.76,1.76,0,0,1,1.25,1.35,79.21,79.21,0,0,1,1.26,15.37,4.41,4.41,0,0,0,.21.87,1.09,1.09,0,0,0,.54.54.69.69,0,0,0,.66-.11,2,2,0,0,0,.73-1.79,22.53,22.53,0,0,1,0-3l.18-.79a.7.7,0,0,1,.58-.35,24.1,24.1,0,0,1,5.43-.52,1,1,0,0,0,.68-.33,2.31,2.31,0,0,0,.48-.6,1,1,0,0,0-.06-.91,1,1,0,0,0-.77-.48,14.77,14.77,0,0,0-2.82.06.93.93,0,0,1-.59-.05.65.65,0,0,1-.31-.49l0-.5Z" transform="translate(-172 -222.09)" fill="#fff"/><path d="M908.82,361.61a13.08,13.08,0,0,1-2.31-9.26,2.17,2.17,0,0,1,1.21-1.6,1.29,1.29,0,0,1,.8,0,11.82,11.82,0,0,1,3.41,1.87,1.59,1.59,0,0,0,.83.33.7.7,0,0,0,.35-.09.49.49,0,0,0,.21-.26,1,1,0,0,0,0-.77,6.07,6.07,0,0,0-3.73-2.92,3.63,3.63,0,0,0-3.53,0,7.34,7.34,0,0,0-1.32,9.12,57.89,57.89,0,0,1,5.13,13.64A12.88,12.88,0,0,1,907.76,382a3.07,3.07,0,0,1-4.93-1.44,3.33,3.33,0,0,0-.51-.9,1.12,1.12,0,0,0-1.43-.24,1.14,1.14,0,0,0-.48,1.37,7.17,7.17,0,0,0,4.84,4.56,4.78,4.78,0,0,0,2.86-.71,8.4,8.4,0,0,0,3.18-4.3,23.59,23.59,0,0,0-2.47-18.68Z" transform="translate(-172 -222.09)" fill="#fff"/><path d="M886.47,358c-.08-3,0-6,.1-9a1,1,0,0,0-.92-1,1,1,0,0,0-1,.83,48.24,48.24,0,0,0-.18,9.15q.09,4.82.25,9.63a1.26,1.26,0,0,1-.21.66l-.23.18a2.09,2.09,0,0,1-.79.06c-1.12.07-2.23.1-3.35.08a1.88,1.88,0,0,1-1.76-1.45,44.23,44.23,0,0,1-.22-11.32,1.05,1.05,0,0,0-2.08-.26,95.49,95.49,0,0,0-.06,11.72,3.55,3.55,0,0,1-.27,1.21,2.21,2.21,0,0,0-.17,1.45,20.64,20.64,0,0,1,.56,7.38,2.34,2.34,0,0,0,.37,1.54.78.78,0,0,0,1,.19,1.62,1.62,0,0,0,.67-1.13c.08-1.6.13-3.19.17-4.79a7.61,7.61,0,0,1,.15-1.78.66.66,0,0,1,.21-.31.76.76,0,0,1,.34-.16c1.29,0,2.57-.07,3.86-.07a3.11,3.11,0,0,1,1,.25,1,1,0,0,1,.6.85q.29,4.86.14,9.74a2.5,2.5,0,0,0,.49,1.44.68.68,0,0,0,.46.23.62.62,0,0,0,.49-.16A2.78,2.78,0,0,0,887,381q.24-11.49-.5-23Z" transform="translate(-172 -222.09)" fill="#fff"/><path d="M900.2,362.3c-.18-1.92-.45-3.84-.79-5.75a22.37,22.37,0,0,0-.81-3.42,1.69,1.69,0,0,0-1.44-1.18A5.19,5.19,0,0,0,890,355.9a43.73,43.73,0,0,0-.42,16.52,18.4,18.4,0,0,0,1.24,5,4,4,0,0,0,6.69,0A23.54,23.54,0,0,0,900.2,362.3Zm-4.59,14a1.64,1.64,0,0,1-2.71-.06,29,29,0,0,1-1.36-11,16.27,16.27,0,0,1,2.06-10.55,2,2,0,0,1,1.85-.88,1.46,1.46,0,0,1,1.31,1,50.42,50.42,0,0,1,1.39,11.15A16,16,0,0,1,895.61,376.27Z" transform="translate(-172 -222.09)" fill="#fff"/><path d="M946.76,375c-1.32.13-2.65.24-4,.34a1.59,1.59,0,0,1-.85-.22.87.87,0,0,1-.33-.61c0-.51,0-1,0-1.52,0-2.21-.06-4.43-.07-6.64a2.83,2.83,0,0,1,.23-.75.91.91,0,0,1,.57-.37q.72-.08,1.44-.09a2.55,2.55,0,0,0,1.36-.31,1.13,1.13,0,0,0,.31-1.75,1.65,1.65,0,0,0-.88-.29c-.61,0-1.22-.06-1.82-.13a1.19,1.19,0,0,1-1-.76,5.55,5.55,0,0,1-.15-1.81,39.94,39.94,0,0,1,.13-5.47,1.31,1.31,0,0,1,1.08-1.12,34.62,34.62,0,0,1,4.07-.27,1.59,1.59,0,0,0,1.33-1.43.59.59,0,0,0-.28-.53,3.55,3.55,0,0,0-.77-.22,52.89,52.89,0,0,0-7,.14,1.23,1.23,0,0,0-1,1.28,77,77,0,0,1,0,10s0,0,0,0,0,0,0,0A20.24,20.24,0,0,0,934,351a10.69,10.69,0,0,0-2.71-1.44,1.4,1.4,0,0,0-1.66.53,3.17,3.17,0,0,0-.76,3.09,214,214,0,0,1,.27,23.49,2.75,2.75,0,0,0,.35,1.08.83.83,0,0,0,1,.39,6.23,6.23,0,0,0,1.43-.73A16.29,16.29,0,0,0,939,364.34l0,0,0,0a48.76,48.76,0,0,1,.39,6.61c0,1.78-.05,3.55-.13,5.32a1.89,1.89,0,0,0,.75,1.47.79.79,0,0,0,.29.11,3.23,3.23,0,0,0,.53,0c2-.17,4-.37,6-.6a1.27,1.27,0,0,0,1.18-1.33A1.25,1.25,0,0,0,946.76,375Zm-14.61-.49a.5.5,0,0,1-.36,0,.31.31,0,0,1-.21-.19l-.06-.78q.22-10.49-.36-21a.38.38,0,0,1,.21-.32.81.81,0,0,1,.55-.07,3.23,3.23,0,0,1,1.33.88,22.91,22.91,0,0,1,3.52,9.15A13.73,13.73,0,0,1,932.15,374.54Z" transform="translate(-172 -222.09)" fill="#fff"/><path d="M802.79,414.25a4.4,4.4,0,0,0-2.24-.92,17.14,17.14,0,0,0-8.46.83,7.17,7.17,0,0,0-3.44,5.8,2.4,2.4,0,0,1-.25.74.13.13,0,0,1-.07.05.13.13,0,0,1-.08,0,1.73,1.73,0,0,1-.4-.57,8.18,8.18,0,0,0-10.07-5.29,9,9,0,0,0-4,15.8c1,.5,2,1,3.09,1.45a3.44,3.44,0,0,0,2.72-.14l1-.41a2.61,2.61,0,0,1,.78-.18.37.37,0,0,1,.28.09l.14.3a8.23,8.23,0,0,1-.15,2c-.14.74-.26,1.48-.35,2.22a1.27,1.27,0,0,0,2.25.87,22.58,22.58,0,0,0,5.09-10.3.92.92,0,0,1,.37-.62.19.19,0,0,1,.19,0,.49.49,0,0,1,.24.21,6.54,6.54,0,0,0,5.8,4.41,7.45,7.45,0,0,0,2.39-.69,1.17,1.17,0,0,1,.61-.11l.22.12a1.5,1.5,0,0,1,.26.74,6.75,6.75,0,0,1-1.32,4.89,1.7,1.7,0,0,0-.31.76,1,1,0,0,0,1.38.87,3.68,3.68,0,0,0,1.44-1.09,19.25,19.25,0,0,0,6.5-15.47A17.07,17.07,0,0,0,802.79,414.25Z" transform="translate(-172 -222.09)" fill="#1d1d1b"/><path d="M560.69,364.49c0-3.92.09-7.85.15-11.77a1.32,1.32,0,0,0-.5-1.07,1.31,1.31,0,0,0-1.16-.23.89.89,0,0,0-.53.54,10.27,10.27,0,0,0-.4,1.81A55.89,55.89,0,0,1,555.62,364l-.27.56a.16.16,0,0,1-.12.06.14.14,0,0,1-.12-.06,2,2,0,0,1-.24-.58,60.14,60.14,0,0,0-4.33-12.21,1.42,1.42,0,0,0-1.74-.7,1.07,1.07,0,0,0-.59.88l.35,7.47.41,19.32a3.91,3.91,0,0,0,0,1.08.8.8,0,0,0,.57.7.88.88,0,0,0,.74-.08.9.9,0,0,0,.42-.62,58,58,0,0,0,0-13.93c0-2.48,0-5,.16-7.45a.11.11,0,0,1,.1-.08.14.14,0,0,1,.12.07q1.68,5.4,3,10.89a1.83,1.83,0,0,0,.79,1.18.62.62,0,0,0,.35.08.75.75,0,0,0,.37-.15,2.24,2.24,0,0,0,.82-1.22c.48-1.55.92-3.11,1.34-4.68l.34-1,.19-.23a.31.31,0,0,1,.41.09,1,1,0,0,1,.13.67q.08,11,.36,21.94c0,1-.1,1.93-.17,2.89a1.9,1.9,0,0,0,1,1.52.63.63,0,0,0,.65-.08,2.63,2.63,0,0,0,.9-2.17q-.21-11.85-.79-23.71Z" transform="translate(-172 -222.09)" fill="#fff"/><path d="M800.05,360.18q.08-5.67.46-11.32a1.4,1.4,0,0,0-2.76-.45,92.15,92.15,0,0,1-3,10.94.43.43,0,0,1-.22.24.26.26,0,0,1-.27,0,1.39,1.39,0,0,1-.43-.56,56.83,56.83,0,0,1-2.52-10.29,3.84,3.84,0,0,0-.8-1.57,1.21,1.21,0,0,0-2.09,1,152.72,152.72,0,0,1-.73,22.73,2.33,2.33,0,0,0,.72,1.9.82.82,0,0,0,1.25-.15,2,2,0,0,0,.46-1.15c.42-3.37.68-6.75.8-10.13l.11-.7a.13.13,0,0,1,.14-.08.27.27,0,0,1,.18.11,12.28,12.28,0,0,1,1,4.51,11.12,11.12,0,0,0,.39,2,1.55,1.55,0,0,0,.53.75.72.72,0,0,0,.71,0,3.86,3.86,0,0,0,1-.93,2.48,2.48,0,0,0,.74-1.28c.39-1.46.73-2.94,1-4.43a1.68,1.68,0,0,1,.43-.68.34.34,0,0,1,.23-.1.16.16,0,0,1,.15.1,1.57,1.57,0,0,1,.1.71q.38,11.61.9,23.2a2.14,2.14,0,0,0,.85,1.59.8.8,0,0,0,.69.07,2.14,2.14,0,0,0,1.22-2.51q-.56-10.68-1.19-21.36c0-.72,0-1.44,0-2.16Z" transform="translate(-172 -222.09)" fill="#fff"/><path d="M565.14,375.29c0-.67,0-1.34,0-2a1.48,1.48,0,0,1,.55-1.19,1.36,1.36,0,0,1,.78-.24c.52,0,1,.11,1.55.18a1.54,1.54,0,0,0,1.25-.2,1.34,1.34,0,0,0,.65-1.47.69.69,0,0,0-.38-.37,4.26,4.26,0,0,0-1.41-.24q-1.2-.11-2.4-.24a1,1,0,0,1-.82-.72,15.47,15.47,0,0,1-.15-2.89,52.8,52.8,0,0,1-.17-6.29,2,2,0,0,1,2.29-1.76c1.25,0,2.51,0,3.77.13a1.55,1.55,0,0,0,1.33-.94.61.61,0,0,0-.28-.78,4,4,0,0,0-1.43-.4q-3.44-.37-6.9-.61a1.21,1.21,0,0,0-1,.39,1.29,1.29,0,0,0-.18.67q.69,13.44.79,26.91a1.86,1.86,0,0,0,1.71,1.77c2.22,0,4.45,0,6.67,0a.86.86,0,0,0,.6-.29,4.54,4.54,0,0,0,.56-1.15,1,1,0,0,0-.1-1,1.25,1.25,0,0,0-.78-.29c-1.54.15-3.09.24-4.63.26l-.92-.15a.58.58,0,0,1-.18-.17,2.09,2.09,0,0,1-.22-.48,44.3,44.3,0,0,1-.49-6.41Z" transform="translate(-172 -222.09)" fill="#fff"/><path d="M608.38,364.47a20.51,20.51,0,0,0-1-3.6,13.45,13.45,0,0,0-2.83-4.55,2.84,2.84,0,0,0-2.09-.67,2.77,2.77,0,0,0-1.94,1,15.4,15.4,0,0,0-2.55,9.27,100.31,100.31,0,0,0,.29,14.4,4.22,4.22,0,0,0,6.53,3.47,8.71,8.71,0,0,0,3.91-5.64A34.3,34.3,0,0,0,608.38,364.47Zm-1.94,13a7.7,7.7,0,0,1-2.85,4.19,1.53,1.53,0,0,1-1.63.08,2.7,2.7,0,0,1-.83-1.09A33,33,0,0,1,600,371a31.64,31.64,0,0,1,1.63-11.74,1.52,1.52,0,0,1,.64-.73l.36-.16.37.19.77,1A28.36,28.36,0,0,1,606.44,377.43Z" transform="translate(-172 -222.09)" fill="#fff"/><path d="M621.84,357.67a26.31,26.31,0,0,1,2.64-1.23,1,1,0,0,1,1,.26,1.63,1.63,0,0,1,.27.8,235.27,235.27,0,0,1-.14,24.05,2.15,2.15,0,0,0,1,1.79.64.64,0,0,0,.36,0,.61.61,0,0,0,.34-.17,2,2,0,0,0,.64-1.52,202,202,0,0,0,0-22.95c0-.95.07-1.9.13-2.84a1.71,1.71,0,0,1,1.16-1.44c2.05-1,4.13-1.88,6.24-2.72a3.36,3.36,0,0,0,1.21-1.6.76.76,0,0,0-.18-.82,1.42,1.42,0,0,0-1.24-.24q-6.44,3-13.05,5.5a1.56,1.56,0,0,1-.8.1.56.56,0,0,1-.39-.36,3.59,3.59,0,0,1-.14-1.42c.06-3.27.08-6.54,0-9.81a1.57,1.57,0,0,0-1.4-1.5.79.79,0,0,0-.6.32l-.16.35a1.69,1.69,0,0,0-.18.86q-.12,12.48.05,25c-.08,1.3-.15,2.61-.23,3.92a.51.51,0,0,1-.28.36.3.3,0,0,1-.35-.06,1.87,1.87,0,0,1-.39-.8q-2.69-9.15-4.67-18.49a2.61,2.61,0,0,0-.51-.92,1.13,1.13,0,0,0-1.19-.32,1.15,1.15,0,0,0-.81.94,160.7,160.7,0,0,1,.19,18.23c0,1.87.11,3.74.18,5.61a2,2,0,0,0,.72,1.33.92.92,0,0,0,.71.05.85.85,0,0,0,.53-.47,2.1,2.1,0,0,0,.21-.92,80.12,80.12,0,0,1,.23-10.16l.2-.72a.24.24,0,0,1,.19-.11.15.15,0,0,1,.16.09,10,10,0,0,1,.53,1.79q1.88,7.1,3.56,14.26a3.32,3.32,0,0,0,.57.91.88.88,0,0,0,.65.36.86.86,0,0,0,.69-.27,3.55,3.55,0,0,0,1-2.38,161.79,161.79,0,0,0,.52-21.46,1.36,1.36,0,0,1,.75-1.19Z" transform="translate(-172 -222.09)" fill="#fff"/><path d="M643.49,368.81a25,25,0,0,0-1.09-9.34,5.91,5.91,0,0,0-5.23-5.14,3.26,3.26,0,0,0-2.9,2.23,27.14,27.14,0,0,0-2.11,11.56,40.37,40.37,0,0,0,.75,11.5,4.23,4.23,0,0,0,7.12,2A17.64,17.64,0,0,0,643.49,368.81Zm-5.32,11.41a1.59,1.59,0,0,1-1.64.41,2.21,2.21,0,0,1-.85-1.08,27.15,27.15,0,0,1-1.2-9.3,29.8,29.8,0,0,1,1.68-12.1,3,3,0,0,1,1-1.32.78.78,0,0,1,.71-.05,4.25,4.25,0,0,1,.81.51l.4.31.56,1.18A26.29,26.29,0,0,1,641,371,11.67,11.67,0,0,1,638.17,380.22Z" transform="translate(-172 -222.09)" fill="#fff"/><path d="M688.32,356.59a22.23,22.23,0,0,0-3.75-12.16,10.59,10.59,0,0,0-2.78-1.91,2.42,2.42,0,0,0-.51-.14.86.86,0,0,0-.28,0,3.38,3.38,0,0,0-.73.44,3.79,3.79,0,0,1-1.57.77,11.29,11.29,0,0,0-7,8.64,48.2,48.2,0,0,0,.52,23,7.27,7.27,0,0,0,8.37,4.25,1.1,1.1,0,0,1,1.19.64q.36,1,.75,2a2.12,2.12,0,0,0,.26.38.69.69,0,0,0,.19.19.63.63,0,0,0,.62,0,1.34,1.34,0,0,0,.6-.62,3.05,3.05,0,0,0,.35-.78,1.29,1.29,0,0,0-.1-.75c-.22-.5-.43-1-.63-1.51a1.66,1.66,0,0,1,0-1.31,14,14,0,0,1,1.19-1.77,26.57,26.57,0,0,0,3.48-13.6A40.84,40.84,0,0,0,688.32,356.59Zm-4.62,17.77a2.27,2.27,0,0,1-.87,1,.52.52,0,0,1-.5,0l-.21-.21-.48-.59-.57-.65a.92.92,0,0,0-1.08,0,.91.91,0,0,0-.35,1q.21.6.45,1.17l.13.41a.74.74,0,0,1-.28.63,1.39,1.39,0,0,1-.75.31,4.6,4.6,0,0,1-4.11-2.23,29.46,29.46,0,0,1-1.81-10.69,31,31,0,0,1,2.16-15,5.74,5.74,0,0,1,4.13-3.7h2c.29,0,.58-.07.88-.09a1.27,1.27,0,0,1,.86.62A34.79,34.79,0,0,1,686.18,358a27.47,27.47,0,0,1,.18,2.87A32.24,32.24,0,0,1,683.7,374.36Z" transform="translate(-172 -222.09)" fill="#fff"/><path d="M819.34,362.3a37,37,0,0,1-4.19-12.82,2.35,2.35,0,0,1,1.37-2.34,2.15,2.15,0,0,1,2.16,1c.52.72,1,1.43,1.58,2.14a2.24,2.24,0,0,0,.66.52.9.9,0,0,0,.88-.25.89.89,0,0,0,.2-.88,7.81,7.81,0,0,0-5.08-5,4.62,4.62,0,0,0-4.43,4.72,31.72,31.72,0,0,0,3.85,12.28,18.41,18.41,0,0,1,.89,14.35,6.77,6.77,0,0,1-6.58,4.48,2.34,2.34,0,0,1-1.86-1.81,12,12,0,0,0-.62-1.95,1.31,1.31,0,0,0-2.45.91,6.11,6.11,0,0,0,10.45,3.52,15.35,15.35,0,0,0,4.33-15.23c-.33-1.22-.72-2.43-1.16-3.62Z" transform="translate(-172 -222.09)" fill="#fff"/><path d="M589.35,365.93a25.19,25.19,0,0,1,2.24-13.6,3.29,3.29,0,0,1,4.47-1q.42.29.87.54a.76.76,0,0,0,.64.05.78.78,0,0,0,.47-.44,1.73,1.73,0,0,0-.67-2.16,6.14,6.14,0,0,0-9.26,4.4,46.51,46.51,0,0,0-1,16.54,23,23,0,0,0,1.6,9.28,4.18,4.18,0,0,0,6.72.94,4.44,4.44,0,0,0,1.68-1.91,1,1,0,0,0-.25-1.07,1,1,0,0,0-1.07-.17,6.44,6.44,0,0,0-1.3.81,4.23,4.23,0,0,1-2.16,1,1.63,1.63,0,0,1-1.49-1.22,45.92,45.92,0,0,1-1.5-12Z" transform="translate(-172 -222.09)" fill="#fff"/><path d="M787.36,380q-2-12.13-4.69-24.15a87.27,87.27,0,0,1-1.9-9.2,1.93,1.93,0,0,0-1.59-1.43,1.27,1.27,0,0,0-1.16,1q-2.47,12.45-5.42,24.8a42.37,42.37,0,0,0-2,7.68,1.55,1.55,0,0,0,.24,1.07.81.81,0,0,0,.56.35.76.76,0,0,0,.62-.2,4.24,4.24,0,0,0,1.29-2.51l3.21-11.09a2.36,2.36,0,0,1,1.69-1.26,9.74,9.74,0,0,1,2.58-.43,1.23,1.23,0,0,1,1,.46,4.57,4.57,0,0,1,.49,1.69q1.13,7,2.56,14a1.77,1.77,0,0,0,.55.75.84.84,0,0,0,1,0c.2-.14.39-.29.58-.45A1.18,1.18,0,0,0,787.36,380Zm-6.55-18.36a.76.76,0,0,1-.2.28,1.55,1.55,0,0,1-.41.25,3.85,3.85,0,0,1-1.38.27,2.93,2.93,0,0,1-1,.09.53.53,0,0,1-.28-.16.88.88,0,0,1-.17-.35l.08-1.22q.65-3,1.31-5.94a1.44,1.44,0,0,1,.38-.72.37.37,0,0,1,.24-.1.33.33,0,0,1,.22.11l.28.72,1,5.82A1.72,1.72,0,0,1,780.81,361.65Z" transform="translate(-172 -222.09)" fill="#fff"/><path d="M706.55,370.25c0-1.14.05-2.27.15-3.4a1.08,1.08,0,0,1,.67-.94,2.39,2.39,0,0,1,1,0l1.66.27a1.66,1.66,0,0,0,1.41-1,.74.74,0,0,0,.12-.63.77.77,0,0,0-.41-.49,6.25,6.25,0,0,0-2.73-.5c-.36,0-.72-.05-1.08-.1a.92.92,0,0,1-.76-.5,3.79,3.79,0,0,1-.15-1.42q-.53-6-.73-12.11a15.39,15.39,0,0,1,.07-2.88l.13-.38a1.05,1.05,0,0,1,.65-.46,8.44,8.44,0,0,1,1.81-.21c.64-.06,1.29-.14,1.93-.24a2.16,2.16,0,0,0,1.21-1,.72.72,0,0,0,.07-.62.74.74,0,0,0-.43-.45,2.64,2.64,0,0,0-1.47-.13,33.69,33.69,0,0,1-5.22.14,1.34,1.34,0,0,0-.81.17,1.05,1.05,0,0,0-.49.64,4.85,4.85,0,0,0-.08,1.82,148.55,148.55,0,0,1,.44,33,2.89,2.89,0,0,0,.4,1.68,1.31,1.31,0,0,0,1.06.59,30.13,30.13,0,0,0,6.9-.53,3.71,3.71,0,0,0,1.26-1.1.73.73,0,0,0,.1-.52.5.5,0,0,0-.27-.35,8.78,8.78,0,0,0-4.55-.16,5.79,5.79,0,0,1-1.5,0,1.3,1.3,0,0,1-.52-.27.84.84,0,0,1-.24-.43,5.36,5.36,0,0,1,.07-1.83c.19-1.89.29-3.78.3-5.68Z" transform="translate(-172 -222.09)" fill="#fff"/><path d="M735.63,369.58l0-1.29a1.33,1.33,0,0,1,.18-.78.66.66,0,0,1,.56-.22l.39.09c.44.11.88.21,1.32.29a.85.85,0,0,0,.62-.19,5,5,0,0,0,.64-.66.88.88,0,0,0,.17-.69.84.84,0,0,0-.42-.57,13,13,0,0,0-1.36-.49c-.33-.12-.66-.25-1-.36a1.6,1.6,0,0,1-1.1-1.34,109.34,109.34,0,0,1-.36-14.59,2.76,2.76,0,0,1,.3-1,1.08,1.08,0,0,1,.58-.47,25.7,25.7,0,0,1,5.54-.46,2.72,2.72,0,0,0,1.51-1,.67.67,0,0,0-.1-.88,1.6,1.6,0,0,0-1.17-.38,71.36,71.36,0,0,0-8.36,1.1,1,1,0,0,0-.7.79A5.31,5.31,0,0,0,733,348q.13,15.57.12,31.12a1.78,1.78,0,0,0,2.07,1.64c1.62-.13,3.25-.25,4.87-.36a3,3,0,0,0,2.05-1.24.64.64,0,0,0-.13-.87,1.72,1.72,0,0,0-1.43-.48c-1.23.06-2.46.08-3.69.08a1.28,1.28,0,0,1-.9-.41,1.25,1.25,0,0,1-.31-.94c0-2.33,0-4.66,0-7Z" transform="translate(-172 -222.09)" fill="#fff"/><path d="M766.27,354.43c0-.9,0-1.8.11-2.7a1.54,1.54,0,0,1,.63-1.17,8.75,8.75,0,0,1,1.76-.74c1.41-.58,2.85-1.12,4.29-1.61a4.12,4.12,0,0,0,2-1.65.84.84,0,0,0-.23-1,1.75,1.75,0,0,0-2,0q-7.68,3.12-15.51,5.81a3.82,3.82,0,0,0-1.07.58,1.17,1.17,0,0,0,1.37,1.89,35.29,35.29,0,0,1,5-2l.79-.17a.53.53,0,0,1,.48.38,4.14,4.14,0,0,1,.2,1.75q-.11,12.56-.68,25.12a1.14,1.14,0,0,0,1.85.86,4.34,4.34,0,0,0,.72-.56,1.36,1.36,0,0,0,.31-.75q-.1-12,0-24Z" transform="translate(-172 -222.09)" fill="#fff"/><path d="M700.5,356.65a7.38,7.38,0,0,0-.24-1.75,1.13,1.13,0,0,0-2.21.42,61.5,61.5,0,0,1-.54,19.94,4.08,4.08,0,0,1-2.85,2.07,1,1,0,0,1-.9-.41,14.54,14.54,0,0,1-1.67-7.39,149.58,149.58,0,0,1,.12-18.7c.11-.91.2-1.82.27-2.74a1.29,1.29,0,0,0-.2-.74.84.84,0,0,0-.61-.27.86.86,0,0,0-.63.24,2.18,2.18,0,0,0-.74,1.44,155.54,155.54,0,0,0,.17,26.52,5.62,5.62,0,0,0,2.84,4.42,3.62,3.62,0,0,0,3.5-.78,6.09,6.09,0,0,0,1.82-1.56,16.8,16.8,0,0,0,2.21-10.71c0-3.34-.1-6.67-.34-10Z" transform="translate(-172 -222.09)" fill="#fff"/><path d="M749.44,355.12a7.84,7.84,0,0,1-1.44-6.43,2.71,2.71,0,0,1,1.36-1.59,1.13,1.13,0,0,1,1,.17,9.36,9.36,0,0,1,1.69,2,2.16,2.16,0,0,0,.62.69.5.5,0,0,0,.54,0,1.26,1.26,0,0,0,.39-1.42,5.4,5.4,0,0,0-4.32-3.72,4.56,4.56,0,0,0-3.36,2.45,8,8,0,0,0,.8,7.9,49.61,49.61,0,0,1,6.45,12.92,8.63,8.63,0,0,1-1.85,7.59,3.31,3.31,0,0,1-5.26-1.66,1.83,1.83,0,0,0-1.46-1.18,2.32,2.32,0,0,0-.7.1.81.81,0,0,0-.45.87,6.22,6.22,0,0,0,1.39,2.83,5.42,5.42,0,0,0,9.31-.67,11.94,11.94,0,0,0,.16-12.24,50,50,0,0,0-4.92-8.62Z" transform="translate(-172 -222.09)" fill="#fff"/><path d="M811.51,359.46a39.12,39.12,0,0,0-.61-8.64,26.49,26.49,0,0,0-.94-3.91,3.84,3.84,0,0,0-6.32.45,32.48,32.48,0,0,0-2.46,15.7,16.9,16.9,0,0,0,2.41,10.4,3.63,3.63,0,0,0,2.95.73,3.56,3.56,0,0,0,2.45-1.78A20.18,20.18,0,0,0,811.51,359.46Zm-3.22,9.32a5.37,5.37,0,0,1-1.43,2.58,1,1,0,0,1-1.26.07,2.71,2.71,0,0,1-.82-1.3,56.49,56.49,0,0,1-.43-17.12,10.48,10.48,0,0,1,1.72-4.6,1.29,1.29,0,0,1,.67-.4l.35-.05a.69.69,0,0,1,.54.43,33.84,33.84,0,0,1,1.39,8.18A38.54,38.54,0,0,1,808.29,368.78Z" transform="translate(-172 -222.09)" fill="#fff"/><path d="M643.67,344.88a1,1,0,0,0-1.07.2l-.24.39a12.21,12.21,0,0,0-.64,1.31,1.63,1.63,0,0,0,.34,2.11,1.08,1.08,0,0,0,.35.19.43.43,0,0,0,.25,0,1.38,1.38,0,0,0,.61-.51,8,8,0,0,0,1.05-2.27,1.19,1.19,0,0,0-.65-1.42Z" transform="translate(-172 -222.09)" fill="#fff"/><path d="M451.4,373.91q-.33-15.42.08-30.86c.1-.67.21-1.34.31-2a1.34,1.34,0,0,1,.75-1.08,5.31,5.31,0,0,1,1.82-.2c2.13-.1,4.26-.24,6.38-.45a2,2,0,0,0,1.44-1.24.67.67,0,0,0-.43-.82,3.8,3.8,0,0,0-1.74-.11q-8.85.62-17.71.67a1.49,1.49,0,0,0-1.05.61,1,1,0,0,0,.46,1.33,4.35,4.35,0,0,0,2.59.3c1.27-.06,2.55-.09,3.83-.1a1.24,1.24,0,0,1,1.18,1.16q-.74,22.51.09,45a23.22,23.22,0,0,1-2.16,8.86,1.55,1.55,0,0,1-.55.53.84.84,0,0,1-1-.19,2.63,2.63,0,0,1-.79-1.39c-.13-.37-.25-.74-.36-1.12a2,2,0,0,0-1.51-1.55,1,1,0,0,0-1.11.83,2.78,2.78,0,0,0,.26,1.94,5.15,5.15,0,0,0,4.53,4.07,2.82,2.82,0,0,0,2.1-1.27,18.78,18.78,0,0,0,3.1-12.86c-.27-3.35-.44-6.72-.51-10.09Z" transform="translate(-172 -222.09)" fill="#fff"/><path d="M502.21,390.47a1.45,1.45,0,0,0-1.58-.24l-.7.71a5.72,5.72,0,0,1-6.09,2.69,7.55,7.55,0,0,1-5.57-4.59A35.89,35.89,0,0,1,484.75,379a38.9,38.9,0,0,0-4.85-12.51.76.76,0,0,1-.08-.42.68.68,0,0,1,.16-.37l1.07-.92a17,17,0,0,0,5.3-14.54,8.13,8.13,0,0,0-9.74-9.29,7.14,7.14,0,0,1-2.44-.13l-.43-.06a.9.9,0,0,0-.87.58,10,10,0,0,0-.49,3.16q-.19,16.89.21,33.78c-.06,2.82,0,5.65.07,8.47a1.28,1.28,0,0,0,.41,1,1.3,1.3,0,0,0,1,.37,1.16,1.16,0,0,0,.84-.72,10.16,10.16,0,0,0,.42-4.77q.09-6.69-.16-13.39a7.62,7.62,0,0,1,.18-.93.93.93,0,0,1,1.2-.62,6,6,0,0,1,3.27,3.45q2.32,8.69,5.08,17.26a15.18,15.18,0,0,0,6.15,7.29A10.33,10.33,0,0,0,502.6,392,1.46,1.46,0,0,0,502.21,390.47Zm-25.37-26.42a1.6,1.6,0,0,1-1.25-.12,1.32,1.32,0,0,1-.51-1q-.19-9-.32-18a1.25,1.25,0,0,1,.64-1,4.47,4.47,0,0,1,2.63-.55,12.37,12.37,0,0,1,2.11.21,2.62,2.62,0,0,1,1.83.93,14.26,14.26,0,0,1,1.92,10A9.75,9.75,0,0,1,476.84,364.05Z" transform="translate(-172 -222.09)" fill="#fff"/><path d="M288.67,386.07a213.22,213.22,0,0,1-6-34.94,2.15,2.15,0,0,0-.6-1.19,1,1,0,0,0-.89-.28,1,1,0,0,0-.75.56,2.36,2.36,0,0,0-.31.89Q277,369.67,272.3,387.9a1.59,1.59,0,0,0,.58,1.26.67.67,0,0,0,.68.08,1.89,1.89,0,0,0,.95-1.12q1.68-5.75,2.88-11.61a1.64,1.64,0,0,1,1.67-1.32l3.73.19a1.67,1.67,0,0,1,1,.69,2.17,2.17,0,0,1,.32.89c.08.45.17.9.28,1.35q1.2,4.85,2.06,9.76a1,1,0,0,0,.7.78,1.06,1.06,0,0,0,.71-.2A2.36,2.36,0,0,0,288.67,386.07Zm-5.61-14a1,1,0,0,1-.38.66,2.05,2.05,0,0,1-1,.37,9.72,9.72,0,0,1-2.73-.37.53.53,0,0,1-.4-.35v-.79q.44-3.16,1.11-6.29a58,58,0,0,1,1.24-7.42.12.12,0,0,1,.11-.07.1.1,0,0,1,.1.07q.87,6.21,1.77,12.41A5.91,5.91,0,0,1,283.06,372.06Z" transform="translate(-172 -222.09)" fill="#fff"/><path d="M309.85,363.34a.94.94,0,0,1,.17-.65.31.31,0,0,1,.44,0l.21.25q1.44,4.39,2.6,8.87c.29.9.59,1.78.92,2.66a1.73,1.73,0,0,0,.63.76.78.78,0,0,0,.78,0,3.06,3.06,0,0,0,1.26-1.4q2.7-6.07,4.82-12.38l.25-.55a.13.13,0,0,1,.22,0,2,2,0,0,1,.19,1q-.13,12.4-.52,24.8a1.71,1.71,0,0,0,.29.89.94.94,0,0,0,.71.33,1,1,0,0,0,.73-.31,2.79,2.79,0,0,0,.78-2.29q.1-16,.69-32.06a1.27,1.27,0,0,0-1.18-1.41,1,1,0,0,0-.7.34,2.9,2.9,0,0,0-.59,1q-2.88,7.81-5.8,15.61a5.29,5.29,0,0,1-.85,1.63.35.35,0,0,1-.49,0,2.39,2.39,0,0,1-.59-1.08q-2.51-8.5-5.06-17a2,2,0,0,0-1.41-1.36.82.82,0,0,0-.83.34,3.15,3.15,0,0,0-.23,1.79q.22,10.38.62,20.76-.29,6.62-.76,13.23a1.31,1.31,0,0,0,.86,1.32.69.69,0,0,0,.64-.19,2.3,2.3,0,0,0,.64-1.49,134.3,134.3,0,0,0,.56-23.47Z" transform="translate(-172 -222.09)" fill="#fff"/><path d="M368.08,364.6a46.41,46.41,0,0,1,0-8.5,1.42,1.42,0,0,0-.17-1.1,1.47,1.47,0,0,0-.91-.63,1.16,1.16,0,0,0-1,.1,1.19,1.19,0,0,0-.57.78,7,7,0,0,0,0,1.52,185.84,185.84,0,0,1,.25,21.5,10,10,0,0,1-2.85,6.84,2.82,2.82,0,0,1-4.56-1.18,35.21,35.21,0,0,1-.94-15.74q0-6.39,0-12.77a1.48,1.48,0,0,0-.5-1.18,1.06,1.06,0,0,0-1.75.71q-.45,11.67-.69,23.33a17.42,17.42,0,0,0,2.42,8.52,5.93,5.93,0,0,0,9.62-2.84,30.81,30.81,0,0,0,1.86-13.62c0-1.91-.11-3.83-.26-5.74Z" transform="translate(-172 -222.09)" fill="#fff"/><path d="M383.07,361.72q.21-7.1.59-14.18a1.38,1.38,0,0,0-.37-1.05,1.1,1.1,0,0,0-1.91.58q-.74,15.39-1.18,30.78a.43.43,0,0,1-.24.33.29.29,0,0,1-.33-.06,1.71,1.71,0,0,1-.4-.78q-3.24-10.63-6.57-21.23a2.48,2.48,0,0,0-1-1,.84.84,0,0,0-.77,0,.88.88,0,0,0-.44.63c-.11,1-.17,2.1-.19,3.15q-.78,13.62-.7,27.27a2.7,2.7,0,0,0,.71,1.38.87.87,0,0,0,1.45-.38,4.92,4.92,0,0,0,.16-1.75q0-10.17.33-20.34l.13-.56a.09.09,0,0,1,.08-.05.14.14,0,0,1,.11.05,5.21,5.21,0,0,1,.93,2.3q3,10.35,6.43,20.58a1.57,1.57,0,0,0,.91.86.48.48,0,0,0,.31,0,1.09,1.09,0,0,0,.36-.28,7.06,7.06,0,0,0,1-4.64q0-10.78.67-21.54Z" transform="translate(-172 -222.09)" fill="#fff"/><path d="M429.39,345.2a9.24,9.24,0,0,0-9.56-5.62,7.94,7.94,0,0,1-2.42-.28l-.45-.08a1.06,1.06,0,0,0-.7.27l-.58.66a23.2,23.2,0,0,1-3,1.91,15.87,15.87,0,0,0-2.18,1.66,1.5,1.5,0,0,0-.48,1.07.84.84,0,0,0,.39.66.82.82,0,0,0,.76.05,5.89,5.89,0,0,0,1.54-1,22.26,22.26,0,0,1,2.37-1.47.76.76,0,0,1,.64-.08.67.67,0,0,1,.36.46,7.52,7.52,0,0,1,.15,1.77q.36,15.81,1.07,31.6c.08,3.46.3,6.92.68,10.36a1.17,1.17,0,0,0,1.21,1.09,1.28,1.28,0,0,0,.92-.83,2.74,2.74,0,0,0,.25-1.23q-.51-9.27-.69-18.56a.93.93,0,0,1,.56-.91,3.35,3.35,0,0,1,1.09-.12c.46,0,.91-.08,1.36-.14a7.84,7.84,0,0,0,6.19-5.45A24,24,0,0,0,429.39,345.2ZM426.47,361a4.7,4.7,0,0,1-5.75,3.15,1.31,1.31,0,0,1-1.05-.6,3.69,3.69,0,0,1-.21-.79q-.12-9.76-.67-19.5a1.19,1.19,0,0,1,.73-1,5.79,5.79,0,0,1,3.91.32,10.49,10.49,0,0,1,3.38,3.41A19.65,19.65,0,0,1,426.47,361Z" transform="translate(-172 -222.09)" fill="#fff"/><path d="M445.58,386a167.43,167.43,0,0,1-3.09-19.91,17.1,17.1,0,0,1,.12-2.48l-.05-.44-.58-1.51a130.66,130.66,0,0,0-4-21.11,2.28,2.28,0,0,0-1.29-1.11,1,1,0,0,0-1.15.54,2.82,2.82,0,0,0-.28,1q-2.88,16.13-5.7,32.24a123.31,123.31,0,0,0-2.39,13.47,1.69,1.69,0,0,0,.32,1.17,1,1,0,0,0,1.6-.18,3.72,3.72,0,0,0,.51-1.59q1.5-9.65,3.63-19.18l.31-.87.33-.28a3.42,3.42,0,0,1,1.8-.74,15,15,0,0,1,3.07-.13,1.14,1.14,0,0,1,.89.56,21,21,0,0,1,.8,5.63A136.12,136.12,0,0,1,443,387.15a3.15,3.15,0,0,0,.32.76.93.93,0,0,0,.69.35,1,1,0,0,0,.73-.25A2.22,2.22,0,0,0,445.58,386ZM439.31,362a.63.63,0,0,1-.25.4,1.64,1.64,0,0,1-.73.28l-1.95.12c-.57.07-1.15.12-1.73.14a.57.57,0,0,1-.52-.29,1.1,1.1,0,0,1-.08-.67q1.14-5.5,1.93-11.08c.06-.46.1-.91.15-1.37a7,7,0,0,1,.18-1.71.5.5,0,0,1,.38-.36.3.3,0,0,1,.21.05.5.5,0,0,1,.18.23q1.35,6.54,2.19,13.16A2.73,2.73,0,0,1,439.31,362Z" transform="translate(-172 -222.09)" fill="#fff"/><path d="M470.62,386.13q-.94-11.86-2.51-23.68-1-10.18-1.71-20.42a1.39,1.39,0,0,0-2.76-.27,373.55,373.55,0,0,1-7.16,37.95c-.56,2.09-1.16,4.17-1.77,6.25a1.79,1.79,0,0,0,1,2,.9.9,0,0,0,1.1-.5q2.88-10.12,4.94-20.44a1.26,1.26,0,0,1,.88-.81,5.91,5.91,0,0,1,1.63-.07,3.38,3.38,0,0,1,1.05.11.85.85,0,0,1,.55.39,4.27,4.27,0,0,1,.38,1.61q1.19,9.21,2.07,18.44a2.5,2.5,0,0,0,.74,1.49.62.62,0,0,0,.78-.05A2.17,2.17,0,0,0,470.62,386.13ZM465,363.61a2.23,2.23,0,0,1-.81.14,8.08,8.08,0,0,1-.85.05l-.38-.06a1,1,0,0,1-.46-1q1-4.56,1.8-9.16a.1.1,0,0,1,.1-.07.24.24,0,0,1,.15.09,1.69,1.69,0,0,1,.22.63q.42,4.23.73,8.47A1,1,0,0,1,465,363.61Z" transform="translate(-172 -222.09)" fill="#fff"/><path d="M332.08,362.46q0-4.59.17-9.16a1.29,1.29,0,0,0-1.51-1.17.67.67,0,0,0-.43.36,3.38,3.38,0,0,0-.24,1.41,205.5,205.5,0,0,0,.2,22.2c.12,3.52.07,7.06-.15,10.58a2.15,2.15,0,0,0,.35,1.18.76.76,0,0,0,.91.23,2.43,2.43,0,0,0,1.25-2.12,214.45,214.45,0,0,0-.55-23.51Z" transform="translate(-172 -222.09)" fill="#fff"/><path d="M491.87,361a142.82,142.82,0,0,1,.24-16.81,3.19,3.19,0,0,0-.19-.81,1.17,1.17,0,0,0-1.12-.7,1.13,1.13,0,0,0-1,.81q-.86,11.61-.65,23.26.35,9.25.14,18.53a1.62,1.62,0,0,0,1.07,1.41.7.7,0,0,0,.61-.11,2.37,2.37,0,0,0,.74-1.19,83.81,83.81,0,0,0,.26-12.17q-.31-6.11-.07-12.22Z" transform="translate(-172 -222.09)" fill="#fff"/><path d="M502.32,361.72a155.07,155.07,0,0,1,.34-21.12,2.91,2.91,0,0,1,.29-.76,1.1,1.1,0,0,1,.66-.39,4.89,4.89,0,0,1,1.79,0c3.67,0,7.35.08,11,.22a1.09,1.09,0,0,0,.73-.3,6.88,6.88,0,0,0,.93-.94.63.63,0,0,0,.15-.56.82.82,0,0,0-.49-.4,8.67,8.67,0,0,0-3-.28q-10.79,0-21.57-.53-3.22.07-6.46.19a1,1,0,0,0-.68.36.78.78,0,0,0,.39,1.3,12.94,12.94,0,0,0,4.6.26c2.58,0,5.16.15,7.73.35a1.14,1.14,0,0,1,1,.68,4.56,4.56,0,0,1,.12,1.8q-.48,13.28-.2,26.57-.6,8.61-.83,17.24a2.65,2.65,0,0,0,.54,1.56.76.76,0,0,0,.93.14,2.27,2.27,0,0,0,1.1-1.76l.92-23.67Z" transform="translate(-172 -222.09)" fill="#fff"/><path d="M526.65,365.31a100.21,100.21,0,0,0-.93-15.86,8.91,8.91,0,0,0-12.43-6,12.43,12.43,0,0,0-3.95,10.36q.45,8.26.68,16.53a26.83,26.83,0,0,0,1.55,12.92,14.21,14.21,0,0,0,1.67,2.11,7,7,0,0,0,8-.35,13,13,0,0,0,5.09-9A37.26,37.26,0,0,0,526.65,365.31ZM523,378.26a6.64,6.64,0,0,1-5.4,5.68,4.36,4.36,0,0,1-4.46-4.22q-1-14-.94-28.07a7.12,7.12,0,0,1,2.5-6.07,6.2,6.2,0,0,1,8.3,3.89,74,74,0,0,1,1.1,10.07c0,1.2.06,2.41.06,3.61A44.43,44.43,0,0,1,523,378.26Z" transform="translate(-172 -222.09)" fill="#fff"/><path d="M1007.23,301.16a5.2,5.2,0,0,0-1.41-.85,9.91,9.91,0,0,1-3.87-7.1,13.51,13.51,0,0,0-1.57-3.81l-.24-.42a1.18,1.18,0,0,1,.32-1.23,13.89,13.89,0,0,0,2.78-3.93l.41-1.38a5.79,5.79,0,0,0-9.24-5,1.1,1.1,0,0,0-.31.73l.07.45a62.16,62.16,0,0,1-.2,10.3,61.07,61.07,0,0,1-.48,6.33,1.69,1.69,0,0,0,.65,1.66.71.71,0,0,0,.57,0,2.26,2.26,0,0,0,1.24-1.69c.07-1.47.1-2.94.1-4.4a.86.86,0,0,1,.52-.79,1.16,1.16,0,0,1,1,.24,6,6,0,0,1,2,3.68,12.35,12.35,0,0,0,5.57,8.68,1.77,1.77,0,0,0,2.29-.47A.76.76,0,0,0,1007.23,301.16Zm-8.64-14.72-.65.45a1.64,1.64,0,0,1-1.35.17.53.53,0,0,1-.33-.38l0-.79a29.05,29.05,0,0,1,.64-6.1,1.39,1.39,0,0,1,.81-1,2.82,2.82,0,0,1,3,.86,4.89,4.89,0,0,1-2,6.8Z" transform="translate(-172 -222.09)" fill="#fff"/><path d="M986.1,289.63c1.29,0,2.58-.07,3.86-.16a2,2,0,0,0,1.57-1,.77.77,0,0,0,0-.66.79.79,0,0,0-.47-.46,3.4,3.4,0,0,0-1.31,0,12.57,12.57,0,0,1-3.82-.26,1,1,0,0,1-.77-.78,11.5,11.5,0,0,1,0-1.76q0-2.61.09-5.22a.76.76,0,0,1,.5-.67,4.87,4.87,0,0,1,1.42-.11c1.39.05,2.78.05,4.16,0a2,2,0,0,0,1.3-.7.8.8,0,0,0-.33-1.14,6.52,6.52,0,0,0-3.08-.52,17.4,17.4,0,0,0-5.53.13,1.25,1.25,0,0,0-1,1.32q0,9.74-.31,19.47a1,1,0,0,0,.53.81,7.24,7.24,0,0,0,4.15.07,17.56,17.56,0,0,1,3.4-.06,1.7,1.7,0,0,0,1.59-.83l.13-.29a.84.84,0,0,0-.55-.82,3.52,3.52,0,0,0-1.75-.31c-.91,0-1.82,0-2.73,0a7.71,7.71,0,0,1-1.52.06,1.18,1.18,0,0,1-.54-.26.9.9,0,0,1-.29-.45,7.45,7.45,0,0,1-.1-1.83c0-.66,0-1.32,0-2a1.48,1.48,0,0,1,1.29-1.58Z" transform="translate(-172 -222.09)" fill="#fff"/><path d="M981.85,279.59q0-.72,0-1.44a4.11,4.11,0,0,0-1.2-1.76,7.47,7.47,0,0,0-3.6-1,13.8,13.8,0,0,0-4,.85,1.6,1.6,0,0,0-.66.55.79.79,0,0,0-.07.67,2.16,2.16,0,0,0,.89,1.22l.33.25a1.66,1.66,0,0,1,.39.85c.33,5.42.42,10.86.25,16.29a3.13,3.13,0,0,0,.39,1.43.59.59,0,0,0,.81.25,3.29,3.29,0,0,0,1-.85,1.76,1.76,0,0,0,.18-1,28.86,28.86,0,0,1,.2-6.09,1.56,1.56,0,0,1,.8-1.14A8.54,8.54,0,0,0,981.85,279.59Zm-3.15,5.61-.38.56a1.34,1.34,0,0,1-.87.57,1.29,1.29,0,0,1-1-.25,1.68,1.68,0,0,1-.39-.87c0-.68,0-1.37-.08-2-.1-1.52-.13-3-.08-4.56a.93.93,0,0,1,.92-.83c.51,0,1,0,1.53.08a1.44,1.44,0,0,1,1.22,1.21A9.28,9.28,0,0,1,978.7,285.2Z" transform="translate(-172 -222.09)" fill="#fff"/><path d="M1015.5,279.59a5.23,5.23,0,0,0-2.56-2c-.69-.37-1.39-.71-2.1-1a3.3,3.3,0,0,0-3.86,1.63,21.71,21.71,0,0,0-2.27,10.74,13,13,0,0,0,2.44,8.4,2,2,0,0,0,1.77.73,7.86,7.86,0,0,0,7.75-7.68A18,18,0,0,0,1015.5,279.59Zm-2.58,14.27a3.59,3.59,0,0,1-3.3,1.84l-.47-.08a2.19,2.19,0,0,1-1.09-1.13,17.68,17.68,0,0,1-.8-8.41,13.53,13.53,0,0,1,1.48-6.21,3.42,3.42,0,0,1,.68-.74,1.4,1.4,0,0,1,.69-.21,1.08,1.08,0,0,1,.63.16c.6.41,1.22.78,1.86,1.13l.46.19a1.53,1.53,0,0,1,.63.81,19.31,19.31,0,0,1,.61,2A14.84,14.84,0,0,1,1012.92,293.86Z" transform="translate(-172 -222.09)" fill="#fff"/><path d="M957.76,285.13q-2.84-4.53-5.58-9.11a140.68,140.68,0,0,1-8.35-12.95,6.36,6.36,0,0,1,1.43-6.71,2.52,2.52,0,0,1,3,.07,30.44,30.44,0,0,1,2.58,2.37,1,1,0,0,0,1,.26.6.6,0,0,0,.33-.38v-.31a1.23,1.23,0,0,0-.23-.71,6.58,6.58,0,0,0-7.19-3.88,7.68,7.68,0,0,0-3.6,8.57,49.17,49.17,0,0,0,7.72,13q2.43,3.64,4.62,7.44a1.74,1.74,0,0,1,.2.73.69.69,0,0,1-.24.56,12.23,12.23,0,0,1-1.48,1,6.77,6.77,0,0,0,.51,11.22,2.12,2.12,0,0,1,.59.64.48.48,0,0,1,.07.4,7.6,7.6,0,0,1-2.58,3.27,44.93,44.93,0,0,1-18,10.69,96,96,0,0,1-18.3,4.43,1,1,0,0,1-.67-.11.21.21,0,0,1-.1-.17.4.4,0,0,1,.1-.28,74,74,0,0,0,9.61-11.44,1.49,1.49,0,0,0,.22-1.09,1.9,1.9,0,0,0-.66-.8.89.89,0,0,0-1,.21,4.56,4.56,0,0,0-1,1.47,42.17,42.17,0,0,1-11.21,12.4,8.87,8.87,0,0,1-3.64.89,118.05,118.05,0,0,1-23.7-.22q-11.49-1.21-23-2.07-7.87-1.5-15.83-2.57a3.92,3.92,0,0,1-2.09-1.46c-.4-.44-.78-.9-1.15-1.37a2.52,2.52,0,0,1-.21-.4,9.32,9.32,0,0,1-.37-1,87.29,87.29,0,0,1-3.9-12.12,3.73,3.73,0,0,0-.16-1l-.15-.25a.32.32,0,0,0-.2-.08.29.29,0,0,0-.2.09l-.09.26a5.84,5.84,0,0,0,.21,1.67,64.21,64.21,0,0,0,4.27,13.83,1,1,0,0,1,.09.42.31.31,0,0,1-.11.2.94.94,0,0,1-.69.15,207.82,207.82,0,0,1-20.4-6.55,28.59,28.59,0,0,1-4.4-2.9,1,1,0,0,1-.29-.95,9.24,9.24,0,0,1,.73-1.52,6.64,6.64,0,0,0-.08-5.63,12.49,12.49,0,0,0-2.79-3.1l-.21-.29a.48.48,0,0,1,0-.55,4.73,4.73,0,0,1,1.3-1.22,45.32,45.32,0,0,1,17.24-6.82A41.41,41.41,0,0,1,840.44,279a2,2,0,0,0,.65-.27.75.75,0,0,0,.24-.58.73.73,0,0,0-.31-.55,4,4,0,0,0-2.69-.61c-.65.06-1.3.13-2,.22a1.67,1.67,0,0,1-.83,0,.81.81,0,0,1-.43-.51,13,13,0,0,1,.18-4.31,18.06,18.06,0,0,1,1.43-4.6,2.47,2.47,0,0,1,1.83-1.21,6.93,6.93,0,0,0,5.46-8.85,1.15,1.15,0,0,1,.18-1.07,4.28,4.28,0,0,1,1.35-.87l1.1-.66a1.26,1.26,0,0,0,.54-.7.65.65,0,0,0-.11-.49.65.65,0,0,0-.44-.26,1.42,1.42,0,0,0-.79,0c-.85.35-1.69.74-2.51,1.17a3.45,3.45,0,0,1-1.42.3c-.95-.13-1.9-.23-2.85-.31a4.52,4.52,0,0,0-2.12.81,5.28,5.28,0,0,0-3.39,4.5,10.69,10.69,0,0,0,1,3.64l.34.71a2.59,2.59,0,0,1,0,1.38l-.31.71a27.18,27.18,0,0,0-2.19,11.07,1.06,1.06,0,0,1-.12.34.48.48,0,0,1-.21.19,5,5,0,0,1-1,.28,61.54,61.54,0,0,0-18.64,6.69q-3.79,3.15-7.85,6a7.59,7.59,0,0,0-1.79,9.23,7.48,7.48,0,0,0,7.47,1.53,1.35,1.35,0,0,1,1.29.31,31.94,31.94,0,0,0,15.28,7.32A149,149,0,0,0,857,316.24q10.41,1.1,20.83,2,9.69.86,19.43.84,3.71-.21,7.43-.11l.69.16a.18.18,0,0,1,.09.16.42.42,0,0,1-.09.27,4,4,0,0,1-1.24,1,46,46,0,0,1-30.58,8.26,1.1,1.1,0,0,1-.85-.74,11.31,11.31,0,0,0-1.48-3.12,5,5,0,0,0-8.22.6,7.89,7.89,0,0,1-.57.7.72.72,0,0,1-.52.23,4.33,4.33,0,0,1-1.43-.41,30.88,30.88,0,0,1-12.82-8.55,4.85,4.85,0,0,0-1-.59.68.68,0,0,0-.62,0,.64.64,0,0,0-.17.81,5.63,5.63,0,0,0,1.1,1.51,23.92,23.92,0,0,0,13.56,9.22,3.71,3.71,0,0,1,1.37.83,2.78,2.78,0,0,1,.45.85,4.83,4.83,0,0,0,5.42,3.59,14.13,14.13,0,0,0,3.61-2.13,2.7,2.7,0,0,1,.55-.24,5.24,5.24,0,0,1,.88-.16,53.24,53.24,0,0,0,18.68-2.42,50.82,50.82,0,0,0,17-9.69,52.1,52.1,0,0,1,8.18-1.78,72.54,72.54,0,0,0,33.73-12.94,18.4,18.4,0,0,0,5.48-7.49,3.13,3.13,0,0,1,1-1.32,6.67,6.67,0,0,0,2.75-3.71A6.14,6.14,0,0,0,957.76,285.13Zm-151.52,8.62-.51.73a4.87,4.87,0,0,0-.44,4,2.5,2.5,0,0,1,.1.9.15.15,0,0,1-.08.11.07.07,0,0,1-.09,0,4.44,4.44,0,0,1,.45-5.87.89.89,0,0,1,.51-.28.12.12,0,0,1,.12.1A.44.44,0,0,1,806.24,293.75Zm148-6.71a2.36,2.36,0,0,1-.36.79,7,7,0,0,0-1.24,3.19,3.94,3.94,0,0,1,0,.91.94.94,0,0,1-.11.32.23.23,0,0,1-.12.1.45.45,0,0,1-.43-.12l-.25-.71a6.25,6.25,0,0,1,1.68-4.6,1.18,1.18,0,0,1,.59-.34.26.26,0,0,1,.29.2Z" transform="translate(-172 -222.09)" fill="#fff"/><path d="M890.65,263.77a14,14,0,0,0-5.55-10.1,2.87,2.87,0,0,0-2.19-.39,8.31,8.31,0,0,0-2.14.49,6.48,6.48,0,0,0-3,5,135.4,135.4,0,0,0-1.3,19.4,155.51,155.51,0,0,0-.36,17.27,6.6,6.6,0,0,0,9,6,11.83,11.83,0,0,0,4.59-8.86q1-6.81,1.41-13.67Q891.16,271.32,890.65,263.77Zm-2.27,18.72a49,49,0,0,1-2.66,15,3.49,3.49,0,0,1-6.19.76,10.89,10.89,0,0,1-1.2-4.28q.31-9,.75-18a71.5,71.5,0,0,1,1.39-18,2.82,2.82,0,0,1,4.57-1.76,9.78,9.78,0,0,1,2.61,4.64,77.94,77.94,0,0,1,.76,15.11A63.48,63.48,0,0,1,888.38,282.49Z" transform="translate(-172 -222.09)" fill="#fff"/><path d="M859.56,297.56q-2.05-11.44-3.57-23a171.88,171.88,0,0,1-2.87-19.31,1.75,1.75,0,0,0-.54-1.15,1.46,1.46,0,0,0-1-.31,1,1,0,0,0-.66.4,4.32,4.32,0,0,0-.51,1.21q-3.63,21.43-8.41,42.66a1.61,1.61,0,0,0,1,1.78.85.85,0,0,0,1-.27,2.13,2.13,0,0,0,.41-.79q1.71-8.44,3.65-16.86a1.65,1.65,0,0,1,.45-.79,1.26,1.26,0,0,1,.85-.18c1.47.08,2.94.2,4.4.36a.88.88,0,0,1,.72.58c.71,3.28,1.29,6.6,1.74,9.92q.57,3.57,1,7.14a1.69,1.69,0,0,0,1.07,1.33.92.92,0,0,0,1-.34A3,3,0,0,0,859.56,297.56Zm-5.76-19.42a.87.87,0,0,1-.81.63c-.78,0-1.56,0-2.35,0a3.37,3.37,0,0,1-1.4-.25.82.82,0,0,1-.42-.75,11.42,11.42,0,0,1,.37-2.4q.94-4.85,2-9.66a.42.42,0,0,1,.28-.27.3.3,0,0,1,.32.08,1.62,1.62,0,0,1,.34.71q1,5.2,1.7,10.46A3.17,3.17,0,0,1,853.8,278.14Z" transform="translate(-172 -222.09)" fill="#fff"/><path d="M866.48,273.14a127.06,127.06,0,0,1,.18-16.09,1,1,0,0,1,.52-.82,4.64,4.64,0,0,1,1.44-.2c2.13-.11,4.26-.27,6.39-.46a1.48,1.48,0,0,0,1.22-1.43.64.64,0,0,0-.37-.5,2.89,2.89,0,0,0-1.64-.24,97.83,97.83,0,0,1-18.43-.08,2.5,2.5,0,0,0-.82.11.62.62,0,0,0-.4.7,1.48,1.48,0,0,0,1.22,1.35,35.28,35.28,0,0,0,7.26.49.9.9,0,0,1,.62.34l.16.35a39.35,39.35,0,0,1,.08,10.73q.4,9.71.6,19.41,0,5.35.11,10.71a1.79,1.79,0,0,0,.78,1.48.83.83,0,0,0,.62.05,1.77,1.77,0,0,0,1.12-1.89q0-12-.66-24Z" transform="translate(-172 -222.09)" fill="#fff"/><path d="M897,273.86q0-5.19.26-10.38a.65.65,0,0,1,.17-.3.17.17,0,0,1,.17,0,.78.78,0,0,1,.44.43c.51,1.51,1,3,1.38,4.56q1.8,7.5,3.67,15a3.54,3.54,0,0,0,.49.92.75.75,0,0,0,.89.26,2.32,2.32,0,0,0,1-1.23,109.44,109.44,0,0,1,6.69-16.65.15.15,0,0,1,.14-.06.14.14,0,0,1,.12.09,2.6,2.6,0,0,1,.13,1.14,176.64,176.64,0,0,0-.24,22.07,65.87,65.87,0,0,0,.06,8.43,1.89,1.89,0,0,0,.5,1.11l.26.24a.74.74,0,0,0,.65,0,2,2,0,0,0,.57-.54,2.08,2.08,0,0,0,.53-1.54q-.69-19.67.42-39.33a11.14,11.14,0,0,0,.1-3.26,1.15,1.15,0,0,0-.55-.82,1.16,1.16,0,0,0-1-.08,1.1,1.1,0,0,0-.49.63,73.77,73.77,0,0,1-6.15,17.17c-.61,1.66-1.2,3.34-1.77,5a6.12,6.12,0,0,1-.73,1.73.24.24,0,0,1-.21.08.3.3,0,0,1-.21-.12,1.87,1.87,0,0,1-.27-.71,176.32,176.32,0,0,0-6.79-23,2.23,2.23,0,0,0-1-1,1.12,1.12,0,0,0-.94.27,1.15,1.15,0,0,0-.38.91q0,19.92-.65,39.82c.07,1.3.18,2.59.32,3.88a1.12,1.12,0,0,0,.61.83.76.76,0,0,0,.64,0,1.93,1.93,0,0,0,.78-1.9q.1-11.82.38-23.63Z" transform="translate(-172 -222.09)" fill="#fff"/><path d="M933.12,257.35a6.79,6.79,0,0,0-11.59-.68,28.1,28.1,0,0,0-1.66,12.88q-.06,11.52.3,23a7.53,7.53,0,0,0,6.59,7,6.23,6.23,0,0,0,5.87-4.88,52.18,52.18,0,0,0,1.79-17.23A48.26,48.26,0,0,0,933.12,257.35Zm-.93,16.51c-.06,2.88-.08,5.75-.08,8.63a34.08,34.08,0,0,1-1.89,12.13,3.93,3.93,0,0,1-3.45,2.65,5,5,0,0,1-4.15-4.73q-.14-13.29-.4-26.59a10.66,10.66,0,0,1,3.09-9.83,2.17,2.17,0,0,1,1.46-.45,6.59,6.59,0,0,1,4.27,3.06A48.13,48.13,0,0,1,932.19,273.86Z" transform="translate(-172 -222.09)" fill="#fff"/><path d="M834.66,286.36c-.1-.54-.22-1.08-.34-1.62l-.16-.33a.34.34,0,0,0-.45-.11.76.76,0,0,0-.33.52,4.59,4.59,0,0,0,0,1.57c.1,1.19.21,2.39.33,3.58l.17,1.06a.43.43,0,0,0,.19.23.31.31,0,0,0,.23,0,.68.68,0,0,0,.41-.42,7.06,7.06,0,0,0,.14-2.71c0-.61-.13-1.21-.24-1.81Z" transform="translate(-172 -222.09)" fill="#fff"/><path d="M528.77,297.38c.06-1.68.07-3.36.06-5a40.36,40.36,0,0,0-1.15-13,7.26,7.26,0,0,0-1.47-2.12,4.3,4.3,0,0,0-3-2.11c-.74.08-1.48.19-2.21.32a8.61,8.61,0,0,0-7.21,9,90.64,90.64,0,0,0,1,23,6.44,6.44,0,0,0,6.74,4.79,2.55,2.55,0,0,1,.87.08,1.28,1.28,0,0,1,.64.53q1,2.19,1.94,4.42a1.46,1.46,0,0,0,.45.59.81.81,0,0,0,1-.09,2.86,2.86,0,0,0,.72-1,.57.57,0,0,0,0-.26,2.73,2.73,0,0,0-.1-.48c-.63-1.36-1.23-2.74-1.78-4.13a1.55,1.55,0,0,1,.08-1.28A21.23,21.23,0,0,0,528.77,297.38Zm-4,10a.92.92,0,0,1-.19.25.26.26,0,0,1-.15.07.62.62,0,0,1-.48-.26,8.27,8.27,0,0,0-.9-1.06,1.77,1.77,0,0,0-1.2-.49.61.61,0,0,0-.51.62,2.82,2.82,0,0,0,.15,1,12,12,0,0,1,.42,1.64.8.8,0,0,1-.12.6l-.23.16a1.27,1.27,0,0,1-.63.17,4.15,4.15,0,0,1-3.78-3.31,81.23,81.23,0,0,1-1-19.45,9.39,9.39,0,0,1,3.33-9,4,4,0,0,1,5.89,1.8,41.37,41.37,0,0,1,1,12.2A42.42,42.42,0,0,1,524.79,307.34Z" transform="translate(-172 -222.09)" fill="#fff"/><path d="M726.07,283.72c0-2.57.06-5.13,0-7.7a1.24,1.24,0,0,0-1-1.15.79.79,0,0,0-.83.62,6.11,6.11,0,0,0-.16,1.81c-.16,3.51-.24,7-.24,10.54a1.11,1.11,0,0,1-.62,1,4,4,0,0,1-1.72.11l-1.26,0a1.47,1.47,0,0,1-1.17-.62,3,3,0,0,1-.28-1.76,126.86,126.86,0,0,0,0-14.33,2.55,2.55,0,0,0-.62-1.49.81.81,0,0,0-.83-.15l-.24.1a.89.89,0,0,0-.26.55q.32,13.22-.58,26.43A1.76,1.76,0,0,0,717,299a.77.77,0,0,0,1-.16,2.21,2.21,0,0,0,.58-1.6,17.26,17.26,0,0,1,.46-5.5,1,1,0,0,1,.84-.58,14.81,14.81,0,0,1,1.63.07c.36,0,.72,0,1.08.05a1,1,0,0,1,.81.5,2.08,2.08,0,0,1,.14.82q-.24,7.77-.73,15.54a2.9,2.9,0,0,0,.4,1.37.78.78,0,0,0,.94.34,2,2,0,0,0,1.06-1.8q.12-9.64,1-19.25c-.11-1.67-.14-3.35-.09-5Z" transform="translate(-172 -222.09)" fill="#fff"/><path d="M781.66,298.1c0-2.57,0-5.15.09-7.72a1.85,1.85,0,0,1,.87-1.27,1.87,1.87,0,0,1,1.53-.19c.33.06.65.14,1,.22a1.21,1.21,0,0,0,1.36-.33,1.25,1.25,0,0,0,.18-1.39A1.28,1.28,0,0,0,786,287c-1.19-.23-2.38-.44-3.58-.62a.87.87,0,0,1-.66-.61,6.27,6.27,0,0,1-.11-1.44q0-4.05.32-8.1a1,1,0,0,1,.72-.78,8.6,8.6,0,0,1,1.52,0c.63,0,1.25,0,1.88-.06a1.89,1.89,0,0,0,1.51-.93.68.68,0,0,0,0-.54.71.71,0,0,0-.37-.39,2.46,2.46,0,0,0-1.07-.24c-1.81-.15-3.62-.28-5.43-.4a1.52,1.52,0,0,0-1,.56,1.5,1.5,0,0,0-.3,1.14q.2,16-.25,32a2.13,2.13,0,0,0,.61,1.57,2.06,2.06,0,0,0,1.56.6,43.89,43.89,0,0,0,5.5-.17,1.53,1.53,0,0,0,1.4-1.41.72.72,0,0,0-.3-.52l-.32-.13a6.8,6.8,0,0,0-2.77-.05l-2.43.08a.85.85,0,0,1-.64-.25.83.83,0,0,1-.23-.65c.09-2.5.13-5,.12-7.51Z" transform="translate(-172 -222.09)" fill="#fff"/><path d="M546.16,300.26l0-5.36a1.19,1.19,0,0,1,1.1-1,11.47,11.47,0,0,1,1.66.09c.36,0,.72.08,1.08.09a1.61,1.61,0,0,0,1.49-1.3.67.67,0,0,0-.25-.56,2.38,2.38,0,0,0-1.54-.49c-.8,0-1.6-.1-2.4-.19a1.13,1.13,0,0,1-.94-1,15.1,15.1,0,0,1,0-1.78c-.08-1.86-.1-3.73-.07-5.6a5.9,5.9,0,0,1,.13-1.51,1.13,1.13,0,0,1,.83-.75,8.25,8.25,0,0,1,1.79-.11c1.27,0,2.54-.07,3.81-.16a1.59,1.59,0,0,0,1.15-1.09.89.89,0,0,0-.36-.94l-.37-.12a23.49,23.49,0,0,0-3.56.06c-1.38,0-2.75,0-4.12,0a1.36,1.36,0,0,0-1.29,1.1,43.07,43.07,0,0,0-.35,10.58,151,151,0,0,0-.34,16.34,2,2,0,0,0,2,1.48,46.39,46.39,0,0,0,7-.61,2.29,2.29,0,0,0,1.48-1.1.67.67,0,0,0,0-.57,1.62,1.62,0,0,0-1.67-.65,27.83,27.83,0,0,1-5.47.33.86.86,0,0,1-.73-.63,10,10,0,0,1-.05-3.09c0-.47,0-.95,0-1.43Z" transform="translate(-172 -222.09)" fill="#fff"/><path d="M587.17,284.42a18.91,18.91,0,0,1-1.74-4.3,2.59,2.59,0,0,1,1.7-3,1.7,1.7,0,0,1,1.76.68,15.93,15.93,0,0,1,1.23,2.84,1.75,1.75,0,0,0,.58.74.62.62,0,0,0,.9-.2,1.47,1.47,0,0,0,.17-1.21,6.89,6.89,0,0,0-3.91-5,4.5,4.5,0,0,0-4.61,6.64,73.42,73.42,0,0,1,6,16.5,5.82,5.82,0,0,1-2.8,6.65,4,4,0,0,1-4.59-1.7,9.37,9.37,0,0,1-1.23-1.64.34.34,0,0,1,0-.17q-.06-.47-.09-.93v-.35a.63.63,0,0,0-.28-.55l-.33-.14a1.43,1.43,0,0,0-.84-.13,47.71,47.71,0,0,1-5.47.5.62.62,0,0,1-.47-.25,1.83,1.83,0,0,1-.17-.76q-.17-4.16,0-8.33a6,6,0,0,1,.14-1.52,1,1,0,0,1,.83-.73h.48a9.79,9.79,0,0,0,2,.23,1.33,1.33,0,0,0,1.27-1.27.86.86,0,0,0-.6-.74,2.56,2.56,0,0,0-.87-.14,7.15,7.15,0,0,1-2.46-.46,1.18,1.18,0,0,1-.71-.93,64.8,64.8,0,0,1-.21-10.61,1.07,1.07,0,0,1,.76-.8,22,22,0,0,1,6.78-.27,1.64,1.64,0,0,0,1.37-.9,1,1,0,0,0,0-.87.94.94,0,0,0-.74-.47,8.63,8.63,0,0,0-1.76-.1,32.48,32.48,0,0,0-7.37.32l-.81.23a1.09,1.09,0,0,0-.49.64,5.32,5.32,0,0,0-.13,1.82q.18,13.56,0,27.12a1.57,1.57,0,0,0,1.82,1.63,52,52,0,0,1,6.11-.62,1.2,1.2,0,0,1,.74.17.32.32,0,0,1,.1.13,2.29,2.29,0,0,1,.09.44,3.15,3.15,0,0,0,1.44,2.82,6.27,6.27,0,0,0,10.86-3,24.43,24.43,0,0,0-2.29-13.65q-1-2.19-2.07-4.32Z" transform="translate(-172 -222.09)" fill="#fff"/><path d="M749.29,288a13.49,13.49,0,0,1-2.83-10.7,2.78,2.78,0,0,1,1.32-1.68,1.23,1.23,0,0,1,1.23.1,3.22,3.22,0,0,1,1.24,1.47c.21.35.41.7.61,1.06a1.67,1.67,0,0,0,.56.59.58.58,0,0,0,.46.06.54.54,0,0,0,.36-.3,1.44,1.44,0,0,0,.12-.82,5.5,5.5,0,0,0-4.19-4.7,5.27,5.27,0,0,0-4.43,6.36A19.32,19.32,0,0,0,748,290.2a19.85,19.85,0,0,1,2.72,10.05,8.09,8.09,0,0,1-8.26,5.16,6.79,6.79,0,0,1-5.08-3.47,3.54,3.54,0,0,0-1.09-1,.83.83,0,0,0-.87,0,.79.79,0,0,0-.37.77,2.78,2.78,0,0,0,.62,1.51A9.49,9.49,0,0,0,752.9,301a21.14,21.14,0,0,0-3.61-13Z" transform="translate(-172 -222.09)" fill="#fff"/><path d="M543,285.16q0-7.1-.2-14.17a1.48,1.48,0,0,0-1.64-1.27,1,1,0,0,0-.67.85c0,1,0,2.07.07,3.1q.24,12.58,0,25.18a6.52,6.52,0,0,1-3.72,6,2.88,2.88,0,0,1-2.42-.36,2.93,2.93,0,0,1-1.27-2.1,162,162,0,0,1-.24-22.25,5.64,5.64,0,0,1,.6-2,2.88,2.88,0,0,0,.35-.81.78.78,0,0,0-.35-.83,3.25,3.25,0,0,0-1.19-.25,21.89,21.89,0,0,0-2.29.21,1.11,1.11,0,0,0-.67.45.4.4,0,0,0-.07.35,2,2,0,0,0,.34.73l.2.25a4,4,0,0,1,.35.46,1.82,1.82,0,0,1,.27.88,164.53,164.53,0,0,0,.07,22.86,5.65,5.65,0,0,0,10.82,1.33A26.23,26.23,0,0,0,543,290.91l-.06-5.75Z" transform="translate(-172 -222.09)" fill="#fff"/><path d="M706.53,298.81q-.09-9,.27-18a16.7,16.7,0,0,1,1.92-6.43,2.54,2.54,0,0,1,2.1-1,1.82,1.82,0,0,1,1.41,1.43,7,7,0,0,1,.3.88l.17.42a.63.63,0,0,0,.56.35.63.63,0,0,0,.56-.33,2.91,2.91,0,0,0-.42-3.14,3.82,3.82,0,0,0-6.74,0,22.83,22.83,0,0,0-2.49,10.75q-.15,9.7.38,19.41a5,5,0,0,0,9,1.93,13,13,0,0,0,1.86-2.63.89.89,0,0,0-.12-.94,1.31,1.31,0,0,0-1.16-.27,1.29,1.29,0,0,0-.89.79,4.77,4.77,0,0,1-3.88,2.85,3.07,3.07,0,0,1-2.77-3.2q-.08-1.43-.06-2.85Z" transform="translate(-172 -222.09)" fill="#fff"/><path d="M631.09,279.38a51.08,51.08,0,0,0,.36-7.82,2.19,2.19,0,0,0-.75-1.31.87.87,0,0,0-.7-.13.84.84,0,0,0-.56.43,5.75,5.75,0,0,0-.53,1.77L625,285.4a2.36,2.36,0,0,1-.35.57.22.22,0,0,1-.15.06.2.2,0,0,1-.15-.06,2.79,2.79,0,0,1-.54-1.09q-1.8-6.94-3.72-13.87a2.26,2.26,0,0,0-1.32-1.4.79.79,0,0,0-.64,0,.76.76,0,0,0-.4.49,4.23,4.23,0,0,0-.11,1.46q-.45,13.88-.76,27.74a2.13,2.13,0,0,0,.15.79,1.06,1.06,0,0,0,1,.46,1.08,1.08,0,0,0,.87-.71,6.21,6.21,0,0,0,.21-1.82q.32-7.86.75-15.71a13.43,13.43,0,0,1,.24-1.77.1.1,0,0,1,.1-.08.12.12,0,0,1,.12.08q1.39,4.94,2.69,9.91a1.44,1.44,0,0,0,.74,1,1.26,1.26,0,0,0,1.5-.4,8.9,8.9,0,0,0,1.43-3.07c.4-1.28.82-2.55,1.27-3.82a.13.13,0,0,1,.11-.06.13.13,0,0,1,.11.08,6.26,6.26,0,0,1,.14,2.4q-.2,9.09.08,18.19a2,2,0,0,0,.3.63.89.89,0,0,0,.59.35.83.83,0,0,0,.66-.2,2.71,2.71,0,0,0,.89-2.58,190.6,190.6,0,0,1,.24-23.66Z" transform="translate(-172 -222.09)" fill="#fff"/><path d="M689.74,280.13a36.81,36.81,0,0,0,.17-7.42.78.78,0,0,0-1.54-.09,5.52,5.52,0,0,0-.21,1.8,96.46,96.46,0,0,0-.81,15.75c0,.65-.09,1.3-.16,1.95a1,1,0,0,1-1.08,1l-2.43,0a1.49,1.49,0,0,1-.85-.2,1.16,1.16,0,0,1-.4-.75,151.13,151.13,0,0,1-.57-19.73,1.37,1.37,0,0,0-.41-1,1,1,0,0,0-.93-.13,1,1,0,0,0-.6.74,6.88,6.88,0,0,0-.12,1.69l.13,19.37q.11,4.85.53,9.68a1.09,1.09,0,0,0,.55.81,1.1,1.1,0,0,0,1,.07,2,2,0,0,0,.88-2.15,30,30,0,0,1-.4-5.1.77.77,0,0,1,.41-.73,2.22,2.22,0,0,1,.8-.15c.75,0,1.5,0,2.25,0a1,1,0,0,1,1.05.89c.11,2.65.12,5.29,0,7.94a2.14,2.14,0,0,0,.5,1.3.87.87,0,0,0,.5.34.75.75,0,0,0,.55-.09,2.29,2.29,0,0,0,1-2.25,73.37,73.37,0,0,1,.18-12.75q-.13-5.4.06-10.78Z" transform="translate(-172 -222.09)" fill="#fff"/><path d="M616.83,301.63q-2.36-11.79-4.22-23.67a53.47,53.47,0,0,0-.85-5.63,2.1,2.1,0,0,0-.91-1.12.75.75,0,0,0-.85.13l-.16.29c-.44,1.38-.83,2.78-1.17,4.18q-4,13.38-7.36,26.9a2,2,0,0,0,1,1.8.66.66,0,0,0,.7-.06,1.75,1.75,0,0,0,.51-.8q1.63-6.63,3.39-13.23a1.38,1.38,0,0,1,1.3-1l2.25-.18a1.54,1.54,0,0,1,.64.07,1.21,1.21,0,0,1,.46.28,1.29,1.29,0,0,1,.48.78l.37,2q1.08,5.33,2.11,10.67a2.74,2.74,0,0,0,.5.9.62.62,0,0,0,.81.16,1.81,1.81,0,0,0,1.08-1A1.9,1.9,0,0,0,616.83,301.63Zm-5.71-14.82-.33.17a7.39,7.39,0,0,1-2,.34,1.84,1.84,0,0,1-.41-.05.64.64,0,0,1-.2-.11.89.89,0,0,1-.21-.94q1-3.27,1.86-6.6a1,1,0,0,1,.33-.47.16.16,0,0,1,.23,0,1.51,1.51,0,0,1,.32.66c.21,1.51.4,3,.56,4.54a9.66,9.66,0,0,1,.18,1.77A.92.92,0,0,1,611.12,286.81Z" transform="translate(-172 -222.09)" fill="#fff"/><path d="M650.13,280.8a9.76,9.76,0,0,1-.66-6.32,1.41,1.41,0,0,1,1.67-1.1,6.44,6.44,0,0,1,2.88,2.89,2.44,2.44,0,0,0,.73.77.7.7,0,0,0,.71.06.71.71,0,0,0,.43-.58,1.85,1.85,0,0,0-.18-.92,6.47,6.47,0,0,0-6-4.65,4.71,4.71,0,0,0-3,5.6,29.58,29.58,0,0,0,4.07,11.5,13.81,13.81,0,0,1-.56,12.15,7.68,7.68,0,0,1-4.16,2.08,5.32,5.32,0,0,1-4.43-3.48,19.55,19.55,0,0,1-.86-3.84,1.42,1.42,0,0,0-1.2-1.27,1.31,1.31,0,0,0-.92.37,1.26,1.26,0,0,0-.38.92,9.32,9.32,0,0,0,7.91,9.51,9.59,9.59,0,0,0,8.23-11.42A21.22,21.22,0,0,0,651,283c-.3-.72-.59-1.43-.86-2.16Z" transform="translate(-172 -222.09)" fill="#fff"/><path d="M777.45,288.74a22.14,22.14,0,0,0-1.34-4.28,17.88,17.88,0,0,0-8.17-9.78,1.3,1.3,0,0,0-1.12-.12,1.2,1.2,0,0,0-.52.55,8.81,8.81,0,0,0-.45,2.88q-.12,12.84-.88,25.66a1.6,1.6,0,0,0,.35,1.05.83.83,0,0,0,.56.35,9.71,9.71,0,0,0,4.58-.77A12.68,12.68,0,0,0,777.45,288.74Zm-7.63,13.63a3.22,3.22,0,0,1-1.49.37.85.85,0,0,1-.61-.31,1.62,1.62,0,0,1-.26-.88q.72-10,.52-20a10.41,10.41,0,0,1,.19-3.15.44.44,0,0,1,.3-.28.67.67,0,0,1,.52.05,5.74,5.74,0,0,1,1.46,1.32,19.52,19.52,0,0,1,4.95,10.65A10.1,10.1,0,0,1,769.82,302.37Z" transform="translate(-172 -222.09)" fill="#fff"/><path d="M694.55,291.71a2.58,2.58,0,0,1,.19-1.1.89.89,0,0,1,.62-.51,1,1,0,0,1,.24,0c.28,0,.55,0,.83.05a5.89,5.89,0,0,1,1,.11l.41.06a1,1,0,0,0,.69-.26l.27-.33a2.83,2.83,0,0,0,.46-.63.54.54,0,0,0-.13-.7,1.86,1.86,0,0,0-.75-.32l-2.53-.37a1.32,1.32,0,0,1-1-.77,4.77,4.77,0,0,1-.18-1.8c0-2.56.07-5.12.14-7.68a1.19,1.19,0,0,1,.61-1,4.87,4.87,0,0,1,1.78-.18c1.28,0,2.55-.07,3.83,0a1.89,1.89,0,0,0,1.48-1.41.76.76,0,0,0-.44-.72,2.87,2.87,0,0,0-1.42-.19c-2.07,0-4.15.08-6.22.2a1.78,1.78,0,0,0-1.54,1.22,37.89,37.89,0,0,0-.52,7.74q.09,9.27-.41,18.52a1.74,1.74,0,0,0,.56,1.17,1.11,1.11,0,0,0,.74.22q2.94-.21,5.88-.52a2.18,2.18,0,0,0,1.6-1.14.72.72,0,0,0-.49-1,2.27,2.27,0,0,0-1-.13,37,37,0,0,1-4.07.35,1.17,1.17,0,0,1-.77-.31.71.71,0,0,1-.18-.27,1.61,1.61,0,0,1-.08-.48q.3-3.84.42-7.68Z" transform="translate(-172 -222.09)" fill="#fff"/><path d="M599,275.86a9.73,9.73,0,0,1,.07-1.32,1.29,1.29,0,0,1,.69-1.06,3.91,3.91,0,0,1,1.79-.21c1.12,0,2.25,0,3.36-.11a1.8,1.8,0,0,0,1.46-.92.89.89,0,0,0,0-.73.92.92,0,0,0-.56-.48,2.06,2.06,0,0,0-.89-.14q-8.45,0-16.89-.09a1.81,1.81,0,0,0-1.16.43.85.85,0,0,0-.21.64.82.82,0,0,0,.34.59,3.42,3.42,0,0,0,2.3.61c1.91-.05,3.83-.05,5.74,0a2.91,2.91,0,0,1,1,.34,1,1,0,0,1,.47.65,6.71,6.71,0,0,1,.15,1.79q-.06,12.15.17,24.31a1.78,1.78,0,0,0,.85,1.49.88.88,0,0,0,1-.15,2.77,2.77,0,0,0,.84-2q-.39-11.82-.47-23.63Z" transform="translate(-172 -222.09)" fill="#fff"/><path d="M741.67,287.35a25.76,25.76,0,0,0-2.58-10.76,4.13,4.13,0,0,0-2.07-2.35,6,6,0,0,0-7.18,4.43,21.69,21.69,0,0,0,.82,17.8,4.53,4.53,0,0,0,7.26.53A10.53,10.53,0,0,0,741.67,287.35ZM736,295.68a2.67,2.67,0,0,1-3.76-.89,18.28,18.28,0,0,1,1.32-17.41l.48-.52a1.59,1.59,0,0,1,1.65-.5,4.1,4.1,0,0,1,1.48,1.1,20.33,20.33,0,0,1,2.28,9.85A8.9,8.9,0,0,1,736,295.68Z" transform="translate(-172 -222.09)" fill="#fff"/><path d="M645.05,276.52a10.86,10.86,0,0,0-2.2-5.61,5.86,5.86,0,0,0-3.94-1.2,6.74,6.74,0,0,0-4.23,6.13,18.67,18.67,0,0,0,1.21,12.9,4.17,4.17,0,0,0,6.67.05A15.29,15.29,0,0,0,645.05,276.52Zm-5.26,11.33a1.78,1.78,0,0,1-2.33-1,18,18,0,0,1-.52-9.53,7.61,7.61,0,0,1,2.33-5.11,1.13,1.13,0,0,1,1.39,0,7.7,7.7,0,0,1,1.78,2.9,13.86,13.86,0,0,1,.47,6.52A6,6,0,0,1,639.79,287.85Z" transform="translate(-172 -222.09)" fill="#fff"/><path d="M233.8,313.35q.25-19.38-.32-38.77l-.16-1.74a1.24,1.24,0,0,0-.28-.78.69.69,0,0,0-.59-.31.66.66,0,0,0-.58.33l-.17.33a8.19,8.19,0,0,0,0,2.88l0,37.36c0,1.2.09,2.4.22,3.6l0,.75a1.87,1.87,0,0,0,1.65,1.76,51.58,51.58,0,0,0,11,.2.92.92,0,0,0,0-1.81,31.24,31.24,0,0,0-3.87,0,40.7,40.7,0,0,1-6-.26.94.94,0,0,1-.55-.36.88.88,0,0,1-.1-.22c0-.14-.07-.28-.1-.42q-.06-1.24-.09-2.49Z" transform="translate(-172 -222.09)" fill="#fff"/><path d="M276.42,299.71a105.23,105.23,0,0,1,.77-20.15,5.49,5.49,0,0,1,6.19-4.65,3.36,3.36,0,0,0,.84-.14.87.87,0,0,0,.53-.8.54.54,0,0,0-.32-.41,6.5,6.5,0,0,0-9.32,4.62A51.1,51.1,0,0,0,274,291.8a74,74,0,0,0,1.65,19.41,4.89,4.89,0,0,0,9.49,0,.75.75,0,0,0-.28-.69.74.74,0,0,0-.73-.09,1.77,1.77,0,0,0-.77.45c-.4.46-.82.91-1.26,1.33a2.47,2.47,0,0,1-3.64-1,23.27,23.27,0,0,1-1.85-8.63c-.08-.95-.13-1.91-.16-2.87Z" transform="translate(-172 -222.09)" fill="#fff"/><path d="M453.05,302.59a157.66,157.66,0,0,1,1.52-21.6,7,7,0,0,1,2.78-5.09,1.36,1.36,0,0,1,1.85.44,6.48,6.48,0,0,1,1,2.79,3.49,3.49,0,0,0,.31.75.82.82,0,0,0,.62.36.83.83,0,0,0,.67-.25,2.57,2.57,0,0,0,.31-2.7,4.55,4.55,0,0,0-8.87-.57,44.39,44.39,0,0,0-2.52,15.11,85.19,85.19,0,0,0,.1,17.92,5.78,5.78,0,0,0,7,5.49,5.68,5.68,0,0,0,3.14-2.6,1.11,1.11,0,0,0-1.36-1.57l-.68.59a3.16,3.16,0,0,1-3.1,1.34,2.13,2.13,0,0,1-1.65-1.2,22.83,22.83,0,0,1-1.09-9.21Z" transform="translate(-172 -222.09)" fill="#fff"/><path d="M341.91,288.2q.15-4.21.24-8.44a1.12,1.12,0,0,0-2.21-.37c-.24,2.93-.34,5.88-.31,8.82q-.08,12.38-.73,24.73a1.85,1.85,0,0,0,.72,1.26.9.9,0,0,0,1.08-.1,2.06,2.06,0,0,0,.82-1.62q.56-12.12.39-24.28Z" transform="translate(-172 -222.09)" fill="#fff"/><path d="M259.33,291.82a105,105,0,0,1-4.73-14.37,2.86,2.86,0,0,1,.5-2.16,1.24,1.24,0,0,1,1.1-.42,7.39,7.39,0,0,1,5.44,3.9,6.15,6.15,0,0,0,.9,1.07,1.32,1.32,0,0,0,.79.39.55.55,0,0,0,.53-.33,1.08,1.08,0,0,0,0-.79,9.81,9.81,0,0,0-8.82-6.42,4.26,4.26,0,0,0-2.65,2.08,4.21,4.21,0,0,0-.29,3.35,75.82,75.82,0,0,0,5,14.44,43.29,43.29,0,0,1,2.05,13.65,6.58,6.58,0,0,1-3.65,5.45,1.44,1.44,0,0,1-1.3-.19,5,5,0,0,1-2.31-3.74,2.53,2.53,0,0,0-.28-1,.76.76,0,0,0-.53-.41,1.18,1.18,0,0,0-.9-.1,1.26,1.26,0,0,0-.7.58,2.39,2.39,0,0,0,0,1.54,6.64,6.64,0,0,0,7,5.27,9.12,9.12,0,0,0,5.1-7.46A42,42,0,0,0,260,293.94c-.2-.71-.42-1.42-.65-2.12Z" transform="translate(-172 -222.09)" fill="#fff"/><path d="M479.54,292.26a202.36,202.36,0,0,0,8.3,19.05.71.71,0,0,0,.87.27,2.13,2.13,0,0,0,1-1.18,13,13,0,0,0,.36-4.22q-.62-18.48.57-36.94a2,2,0,0,0-.45-1.17,1,1,0,0,0-.9-.43,1.06,1.06,0,0,0-.84.54,3.84,3.84,0,0,0-.12,1.43q-1.26,17-.84,33.95l-.11.69a.21.21,0,0,1-.14.1.2.2,0,0,1-.15-.07,148.9,148.9,0,0,1-8.39-21.69,1.78,1.78,0,0,0-1.47-1.1.92.92,0,0,0-.9.58l-.08.39q0,14.66-.65,29.28a1.78,1.78,0,0,0,1,1.42.61.61,0,0,0,.6-.05l.21-.24a5.65,5.65,0,0,0,.64-2.45q.57-9.3.5-18.62a.31.31,0,0,1,.31-.28.52.52,0,0,1,.48.26l.23.48Z" transform="translate(-172 -222.09)" fill="#fff"/><path d="M359.36,287.48c-.07-2.08-.23-4.17-.46-6.24a1.64,1.64,0,0,0-.73-1,.72.72,0,0,0-.64,0,.77.77,0,0,0-.4.51,2.86,2.86,0,0,0-.09,1l0,29.37a2.51,2.51,0,0,0,.55,1.55.81.81,0,0,0,.91.16,2.2,2.2,0,0,0,1.09-1.9q-.33-11.76-.28-23.54Z" transform="translate(-172 -222.09)" fill="#fff"/><path d="M397.5,288.87a14.91,14.91,0,0,1-2.55-9.81,1.59,1.59,0,0,1,1-1.25h.34a2.52,2.52,0,0,1,1.46,1.16c.49.76,1,1.52,1.43,2.29a1.56,1.56,0,0,0,.66.56.61.61,0,0,0,.77-.2,1.73,1.73,0,0,0,.17-.64,6.2,6.2,0,0,0-5.82-5.64,2,2,0,0,0-1.33.84,9,9,0,0,0-.14,9.86,33.94,33.94,0,0,1,4.66,15.14,14.24,14.24,0,0,1-4.9,9,2.38,2.38,0,0,1-2.92-.74c-.59-.72-1.17-1.45-1.75-2.18a2,2,0,0,0-.85-.53.74.74,0,0,0-.85.33,1.5,1.5,0,0,0,0,1.57,9.58,9.58,0,0,0,4.7,4.18,4.74,4.74,0,0,0,4.27-1.65,16.12,16.12,0,0,0,3.28-17.88,23.45,23.45,0,0,0-1.71-4.37Z" transform="translate(-172 -222.09)" fill="#fff"/><path d="M302.29,301.15c0-1.38,0-2.76,0-4.13a1,1,0,0,1,.65-1,4.64,4.64,0,0,1,1.78,0,19.32,19.32,0,0,1,2.39.32.79.79,0,0,0,.63-.16,2.08,2.08,0,0,0,.43-.67l.2-.38a.61.61,0,0,0-.24-.78,3.36,3.36,0,0,0-1.46-.37c-1.08-.15-2.17-.27-3.26-.36a1.25,1.25,0,0,1-1-.78,5.88,5.88,0,0,1-.2-1.82c-.27-3.76-.42-7.53-.46-11.29a1.59,1.59,0,0,1,.48-1.18l.34-.17a18.14,18.14,0,0,1,2.94-.18c.88,0,1.76,0,2.63,0a2.26,2.26,0,0,0,.73-.15,1.17,1.17,0,0,0,.48-.34,3.2,3.2,0,0,0,.46-.65.54.54,0,0,0,.05-.41.55.55,0,0,0-.26-.32,2.37,2.37,0,0,0-1.41-.26c-2,.07-3.94.05-5.91,0a2.82,2.82,0,0,0-2.5,2.92q.22,15.56.2,31.11a1.78,1.78,0,0,0,.61,1.24,1.82,1.82,0,0,0,1.32.45c2.08,0,4.15-.07,6.22-.23a1.37,1.37,0,0,0,1.29-1.35.75.75,0,0,0-.47-.73,5.71,5.71,0,0,0-2.81-.25c-.89,0-1.78.06-2.67.08a1.78,1.78,0,0,1-.74-.23.63.63,0,0,1-.28-.36,5.37,5.37,0,0,1-.07-1.83c-.05-1.9-.06-3.8,0-5.7Z" transform="translate(-172 -222.09)" fill="#fff"/><path d="M358.14,273.62l-.34-.18a1.57,1.57,0,0,0-.84-.24c-3.46-.26-6.93-.36-10.39-.3a1.17,1.17,0,0,0-1.15,1.13q-.41,18.06.07,36.11a2.31,2.31,0,0,0,.47,1,.72.72,0,0,0,.56.27.74.74,0,0,0,.57-.24,1.63,1.63,0,0,0,.43-.82q.19-4.59,0-9.17c0-.28,0-.56,0-.85,0-.09,0-.19,0-.29,0-1.31-.07-2.53,0-3.74,0-1.45,0-2.89,0-4.34a1.21,1.21,0,0,1,.67-1.08,2.85,2.85,0,0,1,1.16-.13h1a3.41,3.41,0,0,1,.73-.07,4.26,4.26,0,0,1,.64.05H352a9.64,9.64,0,0,0,1.52,0,1.32,1.32,0,0,0,1.1-1.67,1,1,0,0,0-.82-.54,21.94,21.94,0,0,0-3.14,0c-.66,0-1.32,0-2,0a1.24,1.24,0,0,1-1.19-1.18q0-5.46.32-10.9a1.21,1.21,0,0,1,1.05-1.07,67,67,0,0,1,8.26.16,1.07,1.07,0,0,0,1-.6,2.93,2.93,0,0,0,.23-.43,1,1,0,0,0,.06-.25A.75.75,0,0,0,358.14,273.62Z" transform="translate(-172 -222.09)" fill="#fff"/><path d="M442.09,291.06a20.26,20.26,0,0,0-6.78-13.33,21.41,21.41,0,0,0-8-3.49,2.59,2.59,0,0,0-.83.1,1.08,1.08,0,0,0-.56.59,4.22,4.22,0,0,0-.29,1.83q-.24,16.5-.81,33a2.67,2.67,0,0,0,.46,1.53,1,1,0,0,0,.61.33,7.27,7.27,0,0,0,3.16-.54,18.21,18.21,0,0,0,12.3-13.55A23.44,23.44,0,0,0,442.09,291.06ZM429.78,308.5a3.9,3.9,0,0,1-1.72.39.66.66,0,0,1-.57-.36,2.58,2.58,0,0,1-.25-1q1-14.58.64-29.21a3.54,3.54,0,0,1,.26-1.21.7.7,0,0,1,.81-.3A13.74,13.74,0,0,1,439,287.49a18.32,18.32,0,0,1-9.25,21Z" transform="translate(-172 -222.09)" fill="#fff"/><path d="M446.75,286.05q0-4.33.32-8.65a2.51,2.51,0,0,0-.54-1.51,1.06,1.06,0,0,0-1-.21,1,1,0,0,0-.69.75,80,80,0,0,0-.6,11.78q-.47,10.4-.63,20.81a2.33,2.33,0,0,0,.58,1.49.64.64,0,0,0,.84.09,2.81,2.81,0,0,0,1.08-2.31q.52-11.12.65-22.24Z" transform="translate(-172 -222.09)" fill="#fff"/><path d="M333.69,283.9a70.62,70.62,0,0,1,.43-7.55,1.35,1.35,0,0,1,1.11-1.14q2.88-.25,5.75-.55a2.11,2.11,0,0,0,1.24-1.14,1,1,0,0,0,0-.72,1,1,0,0,0-.53-.49l-.37-.07a12.52,12.52,0,0,0-2.86.3q-6.82.3-13.65.5a.84.84,0,0,1-.71-.53,5.44,5.44,0,0,1-.1-1.61c0-1.39,0-2.78.07-4.17a1.38,1.38,0,0,0-.19-.77,1.17,1.17,0,0,0-.94-.47h-.21a1.22,1.22,0,0,0-.94.81,4.68,4.68,0,0,0-.19,1.82Q321.4,281,321.35,294a17.6,17.6,0,0,1-.09,3.08.06.06,0,0,1-.06,0,.13.13,0,0,1-.09-.07q-3.15-10.51-6.38-21a2.19,2.19,0,0,0-1.37-1.44.92.92,0,0,0-1,.36l-.13.36a298.85,298.85,0,0,0-.83,31.53,1.88,1.88,0,0,0,.89,1.47.69.69,0,0,0,.82-.16,1.85,1.85,0,0,0,.52-1.43q-.06-11.19.59-22.35a1.57,1.57,0,0,1,.23-.7.12.12,0,0,1,.09-.05.12.12,0,0,1,.1,0,1.08,1.08,0,0,1,.28.47q3.41,11.55,6,23.31a3.44,3.44,0,0,0,.66,1.2.78.78,0,0,0,.64.26.76.76,0,0,0,.6-.34,6.15,6.15,0,0,0,.86-3.79q0-14.69.22-29.38a.46.46,0,0,1,.3-.38,1.67,1.67,0,0,1,.77,0,45.47,45.47,0,0,0,5.35.17,1.59,1.59,0,0,1,.82.23.48.48,0,0,1,.19.21,1.4,1.4,0,0,1,.16.4,18.7,18.7,0,0,1-.22,4.29q-.15,13.92-.23,27.85a2.19,2.19,0,0,0,.56,1.31.74.74,0,0,0,1,.11,2.29,2.29,0,0,0,1-2.06q-.19-11.82.07-23.63Z" transform="translate(-172 -222.09)" fill="#fff"/><path d="M366.89,295.4a44.55,44.55,0,0,1,1.38-15.88,3.4,3.4,0,0,1,3.14-2.25,2.63,2.63,0,0,1,1.33.52c.42.41.85.8,1.3,1.18a1,1,0,0,0,.69.27.63.63,0,0,0,.58-.5,1.56,1.56,0,0,0-.37-1.52,5.15,5.15,0,0,0-9.33,2.34,48.33,48.33,0,0,0-1.09,17.28,27.11,27.11,0,0,0,.9,9.36,4.81,4.81,0,0,0,8.12,1.38,4.17,4.17,0,0,0,1.22-1.39,1,1,0,0,0-.24-1.27,1.05,1.05,0,0,0-1.29-.05L372,306a4.58,4.58,0,0,1-2,.85,2.66,2.66,0,0,1-2.68-2.13,49.36,49.36,0,0,1-.49-9.33Z" transform="translate(-172 -222.09)" fill="#fff"/><path d="M467.75,299.72q.25-1.58.42-3.15a1,1,0,0,1,.86-.91,16.48,16.48,0,0,1,3,0,1.9,1.9,0,0,0,1.7-1.3.59.59,0,0,0-.21-.77,1.46,1.46,0,0,0-1-.3,17.1,17.1,0,0,1-3.43-.07,1.59,1.59,0,0,1-1-1.59q0-4.49.32-8.95a3.68,3.68,0,0,1,.57-1.22,1.64,1.64,0,0,1,1.22-.48c1.1,0,2.19,0,3.29,0a1.13,1.13,0,0,0,.48-2.19,5,5,0,0,0-1.84-.1c-1.54,0-3.08.07-4.61.17a1.26,1.26,0,0,0-1,.75,18.16,18.16,0,0,0-.56,2.94q-.45,7.51-.62,15.06c-.47,3.08-.79,6.19-1,9.31a1.58,1.58,0,0,0,1.49,1.58q3.61-.33,7.24-.55a2,2,0,0,0,1.55-1.37,1,1,0,0,0-.85-1.06,2.64,2.64,0,0,0-1.12,0l-2,.16a21.1,21.1,0,0,1-2.86.16l-.37-.11a.8.8,0,0,1-.36-.68l.05-.55c.15-1.58.34-3.16.55-4.73Z" transform="translate(-172 -222.09)" fill="#fff"/><path d="M247.79,274.82a3.06,3.06,0,0,0-2.9-1.79,6.9,6.9,0,0,0-4.94.87,10.14,10.14,0,0,0-2.31,6.39q-.22,10.43.09,20.85a7.79,7.79,0,0,0,2.19,5.05,4.33,4.33,0,0,0,6.93-2.16,40.61,40.61,0,0,0,1.89-12.23q.25-3.58.24-7.19A21.2,21.2,0,0,0,247.79,274.82ZM246.48,289a75.6,75.6,0,0,1-1.34,13.59,3.68,3.68,0,0,1-2.27,2.55l-.37,0a2,2,0,0,1-1.42-1.2,23.49,23.49,0,0,1-1.05-9.23,75.32,75.32,0,0,1,.73-17.3,3,3,0,0,1,2.5-2.42c.46,0,.92.11,1.38.19a1.32,1.32,0,0,1,1,.8,16.3,16.3,0,0,1,.84,3.64A54.07,54.07,0,0,1,246.48,289Z" transform="translate(-172 -222.09)" fill="#fff"/><path d="M294,286.77c0-2.64-.08-5.29-.09-7.93a11,11,0,0,1,.29-2.81,1.15,1.15,0,0,1,.3-.46,1.22,1.22,0,0,1,.5-.27c.42-.08.84-.18,1.25-.29a1,1,0,0,0,.07-2,4.75,4.75,0,0,0-1.8-.1,40.11,40.11,0,0,1-4.78-.32,2,2,0,0,0-1.2.34.65.65,0,0,0-.13.89,2,2,0,0,0,1.18.83c.44.15.88.28,1.33.4l.34.16a1.14,1.14,0,0,1,.42,1q-.15,13.68.29,27.37a2.87,2.87,0,0,1-.2.75,1,1,0,0,1-.55.42l-.42.07q-.4.09-.81.15l-.36.1a.79.79,0,0,0-.46.61.81.81,0,0,0,.25.72,1.9,1.9,0,0,0,1,.58c1.61.12,3.22.19,4.83.2a1.58,1.58,0,0,0,1.34-1.46.63.63,0,0,0-.29-.58L296,305c-.24-.13-.48-.24-.72-.35a1.13,1.13,0,0,1-.7-1q-.31-8.43-.54-16.88Z" transform="translate(-172 -222.09)" fill="#fff"/><path d="M390.6,283.18a39.48,39.48,0,0,0-1-7.89,4.7,4.7,0,0,0-7.26-1.37,14.73,14.73,0,0,0-3.65,11.42,93.86,93.86,0,0,0-.58,15.81,6.17,6.17,0,0,0,2,3.59,4,4,0,0,0,2.88.3,10.72,10.72,0,0,0,7.32-9.65A61.51,61.51,0,0,0,390.6,283.18Zm-2.72,12.95a7,7,0,0,1-5.84,6.76.91.91,0,0,1-.65-.23,2.73,2.73,0,0,1-.67-1.53,126.39,126.39,0,0,1,.39-16.51,11,11,0,0,1,3.15-9.12,1.87,1.87,0,0,1,1.87-.68,1.89,1.89,0,0,1,1.44,1.38,26.58,26.58,0,0,1,.37,2.66A81.72,81.72,0,0,1,387.88,296.13Z" transform="translate(-172 -222.09)" fill="#fff"/><path d="M219.11,278.5a8.78,8.78,0,0,0-6.81,4.63A9.78,9.78,0,0,0,218.41,297a3.89,3.89,0,0,0,1.71.35l.39-.12a1.07,1.07,0,0,0,.43-1.61,32.08,32.08,0,0,1-1.83-3.42,1.32,1.32,0,0,1,.43-1.55,23.26,23.26,0,0,0,4.64-4.55,6.55,6.55,0,0,0-1.52-6.82,7.52,7.52,0,0,0-3.55-.75Z" transform="translate(-172 -222.09)" fill="#1d1d1b"/><path d="M216.14,271.68a5.91,5.91,0,0,0-2.1-3.56,7.8,7.8,0,0,0-12.29,1.37,14,14,0,0,0,.4,17.22,13.67,13.67,0,0,0,5,4.37,1,1,0,0,0,1.07-.18,2.77,2.77,0,0,0,.52-.56,1,1,0,0,0,0-.74,5.82,5.82,0,0,0-.82-1.51,14.8,14.8,0,0,1-1.59-4,1.15,1.15,0,0,1,.35-1.11,23.07,23.07,0,0,1,3-1.74,12.43,12.43,0,0,0,6.55-8.18A2.46,2.46,0,0,0,216.14,271.68Zm-9.44-1.92a1,1,0,0,1-.29.49c-1,1-2,2-2.92,3a1.47,1.47,0,0,1-.63.41.19.19,0,0,1-.19-.06.4.4,0,0,1-.08-.28,1.34,1.34,0,0,1,.27-.7,14.51,14.51,0,0,1,2.7-2.78,1.34,1.34,0,0,1,1-.25.16.16,0,0,1,.09.07A.13.13,0,0,1,206.7,269.76Z" transform="translate(-172 -222.09)" fill="#1d1d1b"/><path d="M209,268.34a9.27,9.27,0,0,1-1.78,2.32c-.57.62-1.44.81-2.12,1.32a10.09,10.09,0,0,0-1.82,1.76,8.76,8.76,0,0,0-1.32,2.34l-.29,0a8,8,0,0,1,.34-3,8.74,8.74,0,0,1,1.46-2.72,5.84,5.84,0,0,1,2.23-2.13,4.91,4.91,0,0,1,1.53-.38,3.85,3.85,0,0,1,1.68.21Z" transform="translate(-172 -222.09)" fill="#fff"/><path d="M218.57,281.49a11.84,11.84,0,0,1-1.22,1.23c-.36.36-.86.54-1.25.92a5.38,5.38,0,0,0-1,1.25,8.79,8.79,0,0,0-.75,1.54l-.14,0a7,7,0,0,1,.23-1.8,6.05,6.05,0,0,1,.8-1.71,3.45,3.45,0,0,1,1.35-1.38,2.6,2.6,0,0,1,2-.17Z" transform="translate(-172 -222.09)" fill="#fff"/><path d="M793.52,417.21a3.65,3.65,0,0,0-1.17,2.21,6,6,0,0,0,.14,2.45c.18.81.69,1.53.83,2.37a10.85,10.85,0,0,1,.22,1.33,5.65,5.65,0,0,1,0,1.49h0a.12.12,0,0,1-.14.11l0,0a5.4,5.4,0,0,1-2.06-2.16,4.63,4.63,0,0,1-.44-1.41c0-.52-.09-1-.09-1.52a6.45,6.45,0,0,1,.55-3,4,4,0,0,1,2.09-2.06.11.11,0,0,1,.14.06.13.13,0,0,1,0,.12Z" transform="translate(-172 -222.09)" fill="#fff"/><path d="M773.93,421.08a6.84,6.84,0,0,0,.86,4.54,5.24,5.24,0,0,0,.72.84,6.27,6.27,0,0,1,.7.83c.19.32.44.62.63,1a6.12,6.12,0,0,1,.62,1.23l-.12.18a4.17,4.17,0,0,1-2.68-.92,4.88,4.88,0,0,1-1.43-2.46,6.48,6.48,0,0,1-.32-2.78,6.33,6.33,0,0,1,.82-2.54Z" transform="translate(-172 -222.09)" fill="#fff"/><path d="M929.7,492.83a13.77,13.77,0,0,0-.74-2.62,9.76,9.76,0,0,0-2.06-3.32,2.06,2.06,0,0,0-2.94.24,11.21,11.21,0,0,0-1.86,6.77,72.33,72.33,0,0,0,.21,10.51,3.1,3.1,0,0,0,1.64,2.67,3.06,3.06,0,0,0,3.12-.15,6.34,6.34,0,0,0,2.86-4.11A25.08,25.08,0,0,0,929.7,492.83Zm-1.41,9.46a5.66,5.66,0,0,1-2.08,3.06,1.11,1.11,0,0,1-1.19,0,2,2,0,0,1-.6-.79,23.9,23.9,0,0,1-.82-7,23.3,23.3,0,0,1,1.19-8.57,1.13,1.13,0,0,1,.46-.53l.27-.12.27.14.56.75A20.68,20.68,0,0,1,928.29,502.29Z" transform="translate(-172 -222.09)" fill="#fff"/><path d="M918.07,510.7a1,1,0,0,0-1.05-.16l-.47.48a3.79,3.79,0,0,1-4,1.78,5,5,0,0,1-3.71-3,23.72,23.72,0,0,1-2.34-6.7,26.05,26.05,0,0,0-3.23-8.33.55.55,0,0,1-.06-.28.47.47,0,0,1,.11-.25c.24-.21.47-.41.72-.61a11.3,11.3,0,0,0,3.52-9.68,5.41,5.41,0,0,0-6.48-6.18,4.63,4.63,0,0,1-1.62-.09l-.29,0a.61.61,0,0,0-.58.39,6.83,6.83,0,0,0-.33,2.1q-.12,11.25.14,22.49c0,1.88,0,3.76,0,5.64a.87.87,0,0,0,.92.88.76.76,0,0,0,.56-.48,6.82,6.82,0,0,0,.28-3.17c0-3,0-5.95-.11-8.92,0-.2.07-.41.12-.61a.62.62,0,0,1,.31-.38.6.6,0,0,1,.49,0,4,4,0,0,1,2.17,2.3c1,3.85,2.16,7.69,3.39,11.49a10.15,10.15,0,0,0,4.09,4.85,6.88,6.88,0,0,0,7.71-2.39A1,1,0,0,0,918.07,510.7Zm-16.89-17.59a1,1,0,0,1-.83-.08.85.85,0,0,1-.34-.66q-.12-6-.21-12a.85.85,0,0,1,.42-.65,3,3,0,0,1,1.75-.36,7.41,7.41,0,0,1,1.41.14,1.69,1.69,0,0,1,1.21.62,9.41,9.41,0,0,1,1.28,6.65A6.47,6.47,0,0,1,901.18,493.11Z" transform="translate(-172 -222.09)" fill="#fff"/><path d="M896.41,510.72q-.69-8.66-1.83-17.28-.75-7.44-1.25-14.9a1,1,0,0,0-2-.2A276.18,276.18,0,0,1,886.1,506c-.42,1.53-.85,3.05-1.3,4.57a1.29,1.29,0,0,0,.76,1.45.66.66,0,0,0,.81-.36q2.08-7.38,3.6-14.91a.89.89,0,0,1,.64-.59,3.65,3.65,0,0,1,1.19-.05,2.42,2.42,0,0,1,.76.07.64.64,0,0,1,.41.29,3,3,0,0,1,.27,1.17q.87,6.72,1.51,13.46a1.92,1.92,0,0,0,.54,1.08.45.45,0,0,0,.57,0A1.57,1.57,0,0,0,896.41,510.72Zm-4.09-16.43a1.65,1.65,0,0,1-.58.1c-.21,0-.42,0-.63,0l-.27-.05a.75.75,0,0,1-.34-.71c.49-2.22.92-4.45,1.31-6.69a.08.08,0,0,1,.08-.05.14.14,0,0,1,.1.07,1.23,1.23,0,0,1,.17.45c.2,2.06.38,4.13.53,6.19A.69.69,0,0,1,892.32,494.29Z" transform="translate(-172 -222.09)" fill="#fff"/><path d="M885.11,490.72q0-5.18-.15-10.34a1.06,1.06,0,0,0-.41-.71,1,1,0,0,0-.78-.21.7.7,0,0,0-.5.62q0,1.13.06,2.25.17,9.19,0,18.38a4.78,4.78,0,0,1-2.72,4.37,2.07,2.07,0,0,1-1.76-.27,2.1,2.1,0,0,1-.93-1.52,118.94,118.94,0,0,1-.18-16.24,4.3,4.3,0,0,1,.44-1.44,2.41,2.41,0,0,0,.26-.59.57.57,0,0,0-.26-.6,2.34,2.34,0,0,0-.87-.19,13.3,13.3,0,0,0-1.67.16.79.79,0,0,0-.49.32.28.28,0,0,0,0,.26,1.52,1.52,0,0,0,.25.53l.15.18c.09.11.17.22.25.34a1.34,1.34,0,0,1,.2.64,119,119,0,0,0,0,16.68,4.12,4.12,0,0,0,7.89,1,19.16,19.16,0,0,0,1.25-9.41l0-4.19Z" transform="translate(-172 -222.09)" fill="#fff"/><path d="M855.92,501.35c0-1,0-2,0-3a.77.77,0,0,1,.48-.72,3.35,3.35,0,0,1,1.3,0,14.81,14.81,0,0,1,1.74.23.59.59,0,0,0,.46-.12,1.6,1.6,0,0,0,.32-.49l.14-.27a.45.45,0,0,0-.17-.57,2.49,2.49,0,0,0-1.07-.27c-.79-.11-1.58-.2-2.38-.26a.94.94,0,0,1-.76-.57,5,5,0,0,1-.15-1.33c-.19-2.75-.3-5.49-.33-8.24a1.17,1.17,0,0,1,.35-.86l.25-.12a12.87,12.87,0,0,1,2.15-.14c.64,0,1.28,0,1.92,0a1.62,1.62,0,0,0,.53-.11,1.07,1.07,0,0,0,.35-.25,2,2,0,0,0,.33-.48.37.37,0,0,0-.15-.52,1.68,1.68,0,0,0-1-.19c-1.43,0-2.87,0-4.31,0a2.05,2.05,0,0,0-1.82,2.13q.15,11.34.14,22.69a1.32,1.32,0,0,0,.44.91,1.34,1.34,0,0,0,1,.33c1.51,0,3-.05,4.54-.17a1,1,0,0,0,.94-1,.55.55,0,0,0-.35-.54,4.16,4.16,0,0,0-2-.18c-.65,0-1.3.05-2,.06a1.27,1.27,0,0,1-.53-.17.45.45,0,0,1-.21-.26,4,4,0,0,1,0-1.34c0-1.38,0-2.77,0-4.15Z" transform="translate(-172 -222.09)" fill="#fff"/><path d="M873.81,497a16.15,16.15,0,0,0-1-3.12,13,13,0,0,0-6-7.14,1,1,0,0,0-.82-.09,1,1,0,0,0-.38.41,6.43,6.43,0,0,0-.32,2.09q-.11,9.38-.65,18.73a1.2,1.2,0,0,0,.26.77.64.64,0,0,0,.41.25,7.09,7.09,0,0,0,3.34-.56A9.25,9.25,0,0,0,873.81,497Zm-5.57,9.94a2.29,2.29,0,0,1-1.09.27.59.59,0,0,1-.44-.22,1.23,1.23,0,0,1-.19-.65q.53-7.27.38-14.57a7.71,7.71,0,0,1,.14-2.3.33.33,0,0,1,.22-.21.56.56,0,0,1,.38,0,4.44,4.44,0,0,1,1.06,1,14.11,14.11,0,0,1,3.61,7.76A7.37,7.37,0,0,1,868.24,506.92Z" transform="translate(-172 -222.09)" fill="#fff"/><path d="M919.15,493.33a16.37,16.37,0,0,0-1-3.12,13.12,13.12,0,0,0-6-7.14,1,1,0,0,0-.82-.09,1,1,0,0,0-.38.41,6.2,6.2,0,0,0-.33,2.1q-.09,9.36-.64,18.72a1.14,1.14,0,0,0,.26.77.56.56,0,0,0,.41.25,7,7,0,0,0,3.34-.56A9.26,9.26,0,0,0,919.15,493.33Zm-5.57,9.94a2.18,2.18,0,0,1-1.09.27.56.56,0,0,1-.44-.22,1.24,1.24,0,0,1-.2-.64c.36-4.85.48-9.72.39-14.58a7.41,7.41,0,0,1,.14-2.3.3.3,0,0,1,.22-.2.48.48,0,0,1,.37,0,4.3,4.3,0,0,1,1.07,1,14.28,14.28,0,0,1,3.61,7.77A7.35,7.35,0,0,1,913.58,503.27Z" transform="translate(-172 -222.09)" fill="#fff"/><path d="M1026.2,496.52a18.11,18.11,0,0,0-.8-6.82,4.32,4.32,0,0,0-3.81-3.75,2.38,2.38,0,0,0-2.12,1.63,19.87,19.87,0,0,0-1.54,8.44,29.55,29.55,0,0,0,.55,8.39,3.08,3.08,0,0,0,5.19,1.46A12.89,12.89,0,0,0,1026.2,496.52Zm-3.89,8.32a1.13,1.13,0,0,1-1.19.3,1.64,1.64,0,0,1-.62-.78,20.05,20.05,0,0,1-.88-6.79,21.91,21.91,0,0,1,1.23-8.83,2.31,2.31,0,0,1,.72-1,.59.59,0,0,1,.52,0,3.25,3.25,0,0,1,.59.37l.3.23.4.86a19.08,19.08,0,0,1,1,8.89A8.46,8.46,0,0,1,1022.31,504.84Z" transform="translate(-172 -222.09)" fill="#fff"/><path d="M1000.38,507.82Q998.91,499,997,490.2a64.38,64.38,0,0,1-1.38-6.71,1.4,1.4,0,0,0-1.16-1.05.92.92,0,0,0-.85.71q-1.8,9.09-3.95,18.09a31,31,0,0,0-1.48,5.6,1.15,1.15,0,0,0,.18.79.56.56,0,0,0,.4.25.59.59,0,0,0,.46-.14,3.12,3.12,0,0,0,.94-1.84l2.34-8.08a1.7,1.7,0,0,1,1.23-.92,7.12,7.12,0,0,1,1.88-.32.92.92,0,0,1,.77.34,3.11,3.11,0,0,1,.35,1.23q.83,5.14,1.87,10.24a1.31,1.31,0,0,0,.4.55.6.6,0,0,0,.73,0q.21-.15.42-.33A.85.85,0,0,0,1000.38,507.82Zm-4.78-13.4a.43.43,0,0,1-.15.2,1.17,1.17,0,0,1-.3.19,3.12,3.12,0,0,1-1,.2,2.38,2.38,0,0,1-.75.06.37.37,0,0,1-.2-.12.5.5,0,0,1-.13-.25l.06-.9c.31-1.44.63-2.88,1-4.33a1,1,0,0,1,.28-.52.22.22,0,0,1,.17-.07.21.21,0,0,1,.16.08l.2.52.76,4.25A1.25,1.25,0,0,1,995.6,494.42Z" transform="translate(-172 -222.09)" fill="#fff"/><path d="M966.91,507a156.08,156.08,0,0,1-4.37-25.5,1.53,1.53,0,0,0-.43-.87.75.75,0,0,0-1.2.21,1.67,1.67,0,0,0-.22.65q-2.33,13.53-5.73,26.84a1.18,1.18,0,0,0,.42.92.5.5,0,0,0,.5.06,1.43,1.43,0,0,0,.7-.81c.81-2.8,1.52-5.63,2.1-8.48a1.19,1.19,0,0,1,1.21-1l2.73.14a1.2,1.2,0,0,1,.76.5,1.56,1.56,0,0,1,.24.65c.06.33.12.66.2,1,.59,2.35,1.09,4.73,1.51,7.12a.71.71,0,0,0,.51.57.79.79,0,0,0,.51-.15A1.7,1.7,0,0,0,966.91,507Zm-4.1-10.23a.71.71,0,0,1-.27.49,1.63,1.63,0,0,1-.7.27,7.53,7.53,0,0,1-2-.27.42.42,0,0,1-.29-.26v-.57c.21-1.54.48-3.07.8-4.59a43.17,43.17,0,0,1,.91-5.42.1.1,0,0,1,.08-.05s.07,0,.07.05q.65,4.53,1.3,9.06A4.3,4.3,0,0,1,962.81,496.8Z" transform="translate(-172 -222.09)" fill="#fff"/><path d="M1013.87,487.17c.11-3.45.26-6.89.44-10.34a1,1,0,0,0-.27-.76.8.8,0,0,0-1.4.42q-.54,11.22-.86,22.45a.32.32,0,0,1-.17.25.2.2,0,0,1-.24-.05,1.26,1.26,0,0,1-.3-.57q-2.36-7.76-4.79-15.49a1.8,1.8,0,0,0-.76-.76.65.65,0,0,0-.56,0,.62.62,0,0,0-.32.46c-.08.76-.13,1.53-.14,2.3q-.57,9.95-.51,19.9a1.94,1.94,0,0,0,.52,1,.6.6,0,0,0,.61.17.61.61,0,0,0,.45-.44,3.69,3.69,0,0,0,.11-1.28c0-4.95.09-9.89.24-14.84l.1-.41a.07.07,0,0,1,.06,0,.09.09,0,0,1,.08,0,3.81,3.81,0,0,1,.68,1.68q2.19,7.56,4.69,15a1.09,1.09,0,0,0,.66.62.36.36,0,0,0,.23,0,.89.89,0,0,0,.26-.21,5.17,5.17,0,0,0,.71-3.39q0-7.86.48-15.72Z" transform="translate(-172 -222.09)" fill="#fff"/><path d="M981.1,498.6c0-1.88,0-3.76.07-5.63a1.35,1.35,0,0,1,.64-.93,1.32,1.32,0,0,1,1.11-.14l.71.16a.88.88,0,0,0,1-.24.9.9,0,0,0,.13-1,.87.87,0,0,0-.47-.3q-1.31-.25-2.61-.45a.66.66,0,0,1-.49-.45,5.25,5.25,0,0,1-.08-1.05,58.28,58.28,0,0,1,.24-5.91.71.71,0,0,1,.53-.57,6.74,6.74,0,0,1,1.1,0c.46,0,.92,0,1.37,0a1.36,1.36,0,0,0,1.1-.68.48.48,0,0,0-.26-.67,1.71,1.71,0,0,0-.77-.18c-1.33-.11-2.65-.2-4-.29a1.06,1.06,0,0,0-.76.41,1.11,1.11,0,0,0-.22.83q.15,11.67-.18,23.33a1.55,1.55,0,0,0,.45,1.14,1.51,1.51,0,0,0,1.14.44,33.41,33.41,0,0,0,4-.12,1.13,1.13,0,0,0,1-1,.57.57,0,0,0-.22-.38l-.23-.09a4.79,4.79,0,0,0-2,0q-.88,0-1.77.06a.62.62,0,0,1-.46-.19.57.57,0,0,1-.17-.47c.06-1.83.09-3.66.08-5.48Z" transform="translate(-172 -222.09)" fill="#fff"/><path d="M972.57,509.73q.18-14.14-.23-28.29l-.12-1.27a.9.9,0,0,0-.2-.57.51.51,0,0,0-.43-.23.5.5,0,0,0-.43.24l-.12.24a6.18,6.18,0,0,0,0,2.1l0,27.27c0,.87.07,1.75.16,2.62l0,.55a1.36,1.36,0,0,0,1.2,1.28,37.46,37.46,0,0,0,8.06.15.67.67,0,0,0,0-1.32,24.3,24.3,0,0,0-2.83,0,29.58,29.58,0,0,1-4.41-.18.74.74,0,0,1-.4-.27,1.11,1.11,0,0,1-.07-.16,2.82,2.82,0,0,1-.07-.31c0-.6,0-1.21-.07-1.81Z" transform="translate(-172 -222.09)" fill="#fff"/><path d="M945.44,500.3a76.15,76.15,0,0,1,.56-14.71,4,4,0,0,1,4.52-3.39,2.51,2.51,0,0,0,.61-.1.66.66,0,0,0,.39-.59.39.39,0,0,0-.24-.3,4.75,4.75,0,0,0-6.8,3.37,37.36,37.36,0,0,0-.83,9.95,54.23,54.23,0,0,0,1.2,14.15,3.57,3.57,0,0,0,6.93,0,.54.54,0,0,0-.2-.5.55.55,0,0,0-.54-.07,1.32,1.32,0,0,0-.56.33c-.29.34-.6.66-.92,1a1.82,1.82,0,0,1-2.66-.72,17,17,0,0,1-1.34-6.29c-.06-.7-.1-1.39-.12-2.09Z" transform="translate(-172 -222.09)" fill="#fff"/><path d="M951.47,509.53a11.4,11.4,0,0,0,2.1-7.93c-.14-3-2.64-3.1-5.16-3-1,0-1,1.6,0,1.56.78,0,2.45-.27,3.05.23.78.65.55,2,.52,2.82a8.48,8.48,0,0,1-1.62,5.21c-.63.77.47,1.88,1.11,1.1Z" transform="translate(-172 -222.09)" fill="#fff"/><path d="M838.48,498.73h3.12a.78.78,0,0,0,0-1.56h-3.12a.78.78,0,0,0,0,1.56Z" transform="translate(-172 -222.09)" fill="#fff"/></svg>